SplineFontDB: 3.0
FontName: Asap-Regular
FullName: Asap-Regular
FamilyName: Asap
Weight: Regular
Copyright: Copyright (c) 2011-2013, Omnibus-Type (www.omnibus-type.com omnibus.type@gmail.com) with Reserved Font Name 'Asap'

StartChar: .notdef
Encoding: 65536 -1 0
Width: 1052
Flags: MW
HStem: 0 102<178 874 178 1038> 1331 102<176 872 176 176>
VStem: 14 100<195 195 195 1239> 934 104<195 1239 1239 1239>
LayerCount: 2
Fore
SplineSet
14 1434 m 1,0,-1
 1038 1434 l 1,1,-1
 1038 0 l 1,2,-1
 14 0 l 1,3,-1
 14 1434 l 1,0,-1
872 1331 m 1,4,-1
 176 1331 l 1,5,-1
 526 809 l 1,6,-1
 872 1331 l 1,4,-1
115 195 m 1,7,-1
 465 717 l 1,8,-1
 115 1239 l 1,9,-1
 115 195 l 1,7,-1
934 195 m 1,10,-1
 934 1239 l 1,11,-1
 588 717 l 1,12,-1
 934 195 l 1,10,-1
874 102 m 1,13,-1
 524 625 l 1,14,-1
 178 102 l 1,15,-1
 874 102 l 1,13,-1
EndSplineSet
EndChar

StartChar: A
Encoding: 65 65 1
Width: 1255
Flags: MW
HStem: -4 43G<82 113 113 123 1106 1126 1126 1143> 365 156<379 868 379 924 322 868> 1249 188<625 625 625 629> 1397 41G<598 657 657 678>
VStem: 25 1206<20 35 20 35>
LayerCount: 2
Fore
SplineSet
657 1438 m 2,0,1
 728 1438 728 1438 739 1405 c 2,2,-1
 1225 57 l 2,3,4
 1231 42 1231 42 1231 31 c 0,5,6
 1231 -4 1231 -4 1143 -4 c 2,7,-1
 1126 -4 l 2,8,9
 1055 -4 1055 -4 1044 29 c 2,10,-1
 924 365 l 1,11,-1
 322 365 l 1,12,-1
 205 29 l 2,13,14
 194 -4 194 -4 123 -4 c 2,15,-1
 113 -4 l 2,16,17
 25 -4 25 -4 25 31 c 0,18,19
 25 41 25 41 31 59 c 2,20,-1
 516 1405 l 2,21,22
 527 1438 527 1438 598 1438 c 2,23,-1
 657 1438 l 2,0,1
625 1249 m 1,24,25
 609 1173 609 1173 594 1130 c 2,26,-1
 379 520 l 1,27,-1
 868 520 l 1,28,-1
 653 1130 l 2,29,30
 642 1163 642 1163 629 1249 c 1,31,-1
 625 1249 l 1,24,25
EndSplineSet
Substitution2: "Single Substitution lookup 21 subtable" ordfeminine
Substitution2: "'aalt' Access All Alternates lookup 0 subtable" ordfeminine
Position2: "'cpsp' Capital Spacing lookup 3 subtable" dx=10 dy=0 dh=20 dv=0
EndChar

StartChar: Aacute
Encoding: 193 193 2
Width: 1255
Flags: MW
HStem: -4 43G<82 113 113 123 1106 1126 1126 1143> 365 156<379 868 379 924 322 868> 1249 188<625 625 625 629> 1397 41G<598 657 657 678>
VStem: 25 1206<20 35 20 35>
LayerCount: 2
Fore
SplineSet
793 1862 m 0,0,1
 891 1862 891 1862 891 1835 c 0,2,3
 891 1817 891 1817 785.275737715 1696.50565953 c 0,4,5
 733 1637 733 1637 698 1597 c 1,6,7
 665 1561 665 1561 594 1561 c 0,8,9
 547 1561 547 1561 547 1581 c 0,10,11
 547 1595 547 1595 567.5 1633.5 c 128,-1,12
 588 1672 588 1672 666 1808 c 0,13,14
 698 1862 698 1862 793 1862 c 0,0,1
657 1438 m 2,15,16
 728 1438 728 1438 739 1405 c 2,17,-1
 1225 57 l 2,18,19
 1231 42 1231 42 1231 31 c 0,20,21
 1231 -4 1231 -4 1143 -4 c 2,22,-1
 1126 -4 l 2,23,24
 1055 -4 1055 -4 1044 29 c 2,25,-1
 924 365 l 1,26,-1
 322 365 l 1,27,-1
 205 29 l 2,28,29
 194 -4 194 -4 123 -4 c 2,30,-1
 113 -4 l 2,31,32
 25 -4 25 -4 25 31 c 0,33,34
 25 41 25 41 31 59 c 2,35,-1
 516 1405 l 2,36,37
 527 1438 527 1438 598 1438 c 2,38,-1
 657 1438 l 2,15,16
625 1249 m 1,39,40
 609 1173 609 1173 594 1130 c 2,41,-1
 379 520 l 1,42,-1
 868 520 l 1,43,-1
 653 1130 l 2,44,45
 642 1163 642 1163 629 1249 c 1,46,-1
 625 1249 l 1,39,40
EndSplineSet
Position2: "'cpsp' Capital Spacing lookup 3 subtable" dx=10 dy=0 dh=20 dv=0
EndChar

StartChar: Abreve
Encoding: 258 258 3
Width: 1255
Flags: MW
HStem: -4 43G<82 113 113 123 1106 1126 1126 1143> 365 156<379 868 379 924 322 868> 1249 188<625 625 625 629> 1397 41G<598 657 657 678> 1561 135<581 681 581 703>
VStem: 25 1206<20 35 20 35>
LayerCount: 2
Fore
SplineSet
895 1827 m 0,0,1
 926 1827 926 1827 926 1796 c 0,2,3
 926 1685 926 1685 838 1623 c 128,-1,4
 750 1561 750 1561 631 1561 c 0,5,6
 554 1561 554 1561 488.5 1586 c 128,-1,7
 423 1611 423 1611 378.5 1666 c 128,-1,8
 334 1721 334 1721 334 1796 c 0,9,10
 334 1827 334 1827 365 1827 c 0,11,12
 378 1827 378 1827 385 1823 c 128,-1,13
 392 1819 392 1819 394.5 1814.5 c 128,-1,14
 397 1810 397 1810 401.5 1797.5 c 128,-1,15
 406 1785 406 1785 410 1776 c 0,16,17
 454 1696 454 1696 631 1696 c 0,18,19
 806 1696 806 1696 850 1776 c 0,20,21
 854 1785 854 1785 858.5 1797.5 c 128,-1,22
 863 1810 863 1810 865.5 1814.5 c 128,-1,23
 868 1819 868 1819 875 1823 c 128,-1,24
 882 1827 882 1827 895 1827 c 0,0,1
657 1438 m 2,25,26
 728 1438 728 1438 739 1405 c 2,27,-1
 1225 57 l 2,28,29
 1231 42 1231 42 1231 31 c 0,30,31
 1231 -4 1231 -4 1143 -4 c 2,32,-1
 1126 -4 l 2,33,34
 1055 -4 1055 -4 1044 29 c 2,35,-1
 924 365 l 1,36,-1
 322 365 l 1,37,-1
 205 29 l 2,38,39
 194 -4 194 -4 123 -4 c 2,40,-1
 113 -4 l 2,41,42
 25 -4 25 -4 25 31 c 0,43,44
 25 41 25 41 31 59 c 2,45,-1
 516 1405 l 2,46,47
 527 1438 527 1438 598 1438 c 2,48,-1
 657 1438 l 2,25,26
625 1249 m 1,49,50
 609 1173 609 1173 594 1130 c 2,51,-1
 379 520 l 1,52,-1
 868 520 l 1,53,-1
 653 1130 l 2,54,55
 642 1163 642 1163 629 1249 c 1,56,-1
 625 1249 l 1,49,50
EndSplineSet
Position2: "'cpsp' Capital Spacing lookup 3 subtable" dx=10 dy=0 dh=20 dv=0
EndChar

StartChar: Abreveacute
Encoding: 7854 7854 4
Width: 1255
Flags: MW
HStem: -4 43G<82 113 113 123 1106 1126 1126 1143> 365 156<379 868 379 924 322 868> 1249 188<625 625 625 629> 1397 41G<598 657 657 678> 1561 106<581 681 581 703>
VStem: 25 1206<20 35 20 35>
LayerCount: 2
Fore
SplineSet
657 1438 m 2,0,1
 728 1438 728 1438 739 1405 c 2,2,-1
 1225 57 l 2,3,4
 1231 42 1231 42 1231 31 c 0,5,6
 1231 -4 1231 -4 1143 -4 c 2,7,-1
 1126 -4 l 2,8,9
 1055 -4 1055 -4 1044 29 c 2,10,-1
 924 365 l 1,11,-1
 322 365 l 1,12,-1
 205 29 l 2,13,14
 194 -4 194 -4 123 -4 c 2,15,-1
 113 -4 l 2,16,17
 25 -4 25 -4 25 31 c 0,18,19
 25 41 25 41 31 59 c 2,20,-1
 516 1405 l 2,21,22
 527 1438 527 1438 598 1438 c 2,23,-1
 657 1438 l 2,0,1
625 1249 m 1,24,25
 609 1173 609 1173 594 1130 c 2,26,-1
 379 520 l 1,27,-1
 868 520 l 1,28,-1
 653 1130 l 2,29,30
 642 1163 642 1163 629 1249 c 1,31,-1
 625 1249 l 1,24,25
772 2025 m 0,32,33
 807 2025 807 2025 821.5 2019.5 c 128,-1,34
 836 2014 836 2014 836 1999 c 0,35,36
 836 1988 836 1988 822 1966.5 c 128,-1,37
 808 1945 808 1945 755.71541473 1877.14612718 c 0,38,39
 742 1860 742 1860 734 1849 c 128,-1,40
 726 1838 726 1838 711.5 1819 c 128,-1,41
 697 1800 697 1800 684 1782 c 0,42,43
 657 1745 657 1745 610 1745 c 128,-1,44
 563 1745 563 1745 563 1765 c 0,45,46
 563 1782 563 1782 646.422983313 1942.05745828 c 0,47,48
 657 1961 657 1961 662 1972 c 1,49,50
 693 2025 693 2025 772 2025 c 0,32,33
895 1804 m 0,51,52
 926 1804 926 1804 926 1774 c 0,53,54
 926 1677 926 1677 837 1619 c 128,-1,55
 748 1561 748 1561 631 1561 c 0,56,57
 555 1561 555 1561 488.5 1585 c 128,-1,58
 422 1609 422 1609 378 1658.5 c 128,-1,59
 334 1708 334 1708 334 1774 c 0,60,61
 334 1804 334 1804 365 1804 c 0,62,63
 381 1804 381 1804 386 1798 c 128,-1,64
 391 1792 391 1792 396 1778 c 128,-1,65
 401 1764 401 1764 410 1753 c 0,66,67
 437 1721 437 1721 499.5 1694 c 128,-1,68
 562 1667 562 1667 631 1667 c 0,69,70
 702 1667 702 1667 763.5 1693.5 c 128,-1,71
 825 1720 825 1720 850 1753 c 0,72,73
 857 1763 857 1763 862 1778 c 128,-1,74
 867 1793 867 1793 873 1798.5 c 128,-1,75
 879 1804 879 1804 895 1804 c 0,51,52
EndSplineSet
Position2: "'cpsp' Capital Spacing lookup 3 subtable" dx=10 dy=0 dh=20 dv=0
EndChar

StartChar: Abrevedotbelow
Encoding: 7862 7862 5
Width: 1255
Flags: MW
HStem: -358 195<610 668> -4 43G<82 113 113 123 1106 1126 1126 1143> 365 156<379 868 379 924 322 868> 1249 188<625 625 625 629> 1397 41G<598 657 657 678> 1561 135<581 681 581 703>
VStem: 553 172<-313 -209 -327 -196>
LayerCount: 2
Fore
SplineSet
657 1438 m 2,0,1
 728 1438 728 1438 739 1405 c 2,2,-1
 1225 57 l 2,3,4
 1231 42 1231 42 1231 31 c 0,5,6
 1231 -4 1231 -4 1143 -4 c 2,7,-1
 1126 -4 l 2,8,9
 1055 -4 1055 -4 1044 29 c 2,10,-1
 924 365 l 1,11,-1
 322 365 l 1,12,-1
 205 29 l 2,13,14
 194 -4 194 -4 123 -4 c 2,15,-1
 113 -4 l 2,16,17
 25 -4 25 -4 25 31 c 0,18,19
 25 41 25 41 31 59 c 2,20,-1
 516 1405 l 2,21,22
 527 1438 527 1438 598 1438 c 2,23,-1
 657 1438 l 2,0,1
625 1249 m 1,24,25
 609 1173 609 1173 594 1130 c 2,26,-1
 379 520 l 1,27,-1
 868 520 l 1,28,-1
 653 1130 l 2,29,30
 642 1163 642 1163 629 1249 c 1,31,-1
 625 1249 l 1,24,25
895 1827 m 0,32,33
 926 1827 926 1827 926 1796 c 0,34,35
 926 1685 926 1685 838 1623 c 128,-1,36
 750 1561 750 1561 631 1561 c 0,37,38
 554 1561 554 1561 488.5 1586 c 128,-1,39
 423 1611 423 1611 378.5 1666 c 128,-1,40
 334 1721 334 1721 334 1796 c 0,41,42
 334 1827 334 1827 365 1827 c 0,43,44
 378 1827 378 1827 385 1823 c 128,-1,45
 392 1819 392 1819 394.5 1814.5 c 128,-1,46
 397 1810 397 1810 401.5 1797.5 c 128,-1,47
 406 1785 406 1785 410 1776 c 0,48,49
 454 1696 454 1696 631 1696 c 0,50,51
 806 1696 806 1696 850 1776 c 0,52,53
 854 1785 854 1785 858.5 1797.5 c 128,-1,54
 863 1810 863 1810 865.5 1814.5 c 128,-1,55
 868 1819 868 1819 875 1823 c 128,-1,56
 882 1827 882 1827 895 1827 c 0,32,33
553 -209 m 2,57,58
 553 -164 553 -164 643 -164 c 0,59,60
 725 -164 725 -164 725 -209 c 2,61,-1
 725 -313 l 2,62,63
 725 -358 725 -358 635 -358 c 0,64,65
 553 -358 553 -358 553 -313 c 2,66,-1
 553 -209 l 2,57,58
EndSplineSet
Position2: "'cpsp' Capital Spacing lookup 3 subtable" dx=10 dy=0 dh=20 dv=0
EndChar

StartChar: Abrevegrave
Encoding: 7856 7856 6
Width: 1255
Flags: MW
HStem: -4 43G<82 113 113 123 1106 1126 1126 1143> 365 156<379 868 379 924 322 868> 1249 188<625 625 625 629> 1397 41G<598 657 657 678> 1561 106<581 681 581 703>
VStem: 25 1206<20 35 20 35>
LayerCount: 2
Fore
SplineSet
657 1438 m 2,0,1
 728 1438 728 1438 739 1405 c 2,2,-1
 1225 57 l 2,3,4
 1231 42 1231 42 1231 31 c 0,5,6
 1231 -4 1231 -4 1143 -4 c 2,7,-1
 1126 -4 l 2,8,9
 1055 -4 1055 -4 1044 29 c 2,10,-1
 924 365 l 1,11,-1
 322 365 l 1,12,-1
 205 29 l 2,13,14
 194 -4 194 -4 123 -4 c 2,15,-1
 113 -4 l 2,16,17
 25 -4 25 -4 25 31 c 0,18,19
 25 41 25 41 31 59 c 2,20,-1
 516 1405 l 2,21,22
 527 1438 527 1438 598 1438 c 2,23,-1
 657 1438 l 2,0,1
625 1249 m 1,24,25
 609 1173 609 1173 594 1130 c 2,26,-1
 379 520 l 1,27,-1
 868 520 l 1,28,-1
 653 1130 l 2,29,30
 642 1163 642 1163 629 1249 c 1,31,-1
 625 1249 l 1,24,25
539 2025 m 0,32,33
 619 2025 619 2025 641 1972 c 0,34,35
 719 1786 719 1786 719 1765 c 0,36,37
 719 1745 719 1745 672 1745 c 0,38,39
 622 1745 622 1745 598 1782 c 0,40,41
 581 1809 581 1809 563.5 1836 c 128,-1,42
 546 1863 546 1863 535 1880 c 128,-1,43
 524 1897 524 1897 513 1914 c 128,-1,44
 502 1931 502 1931 496 1940.5 c 128,-1,45
 490 1950 490 1950 484 1959.5 c 128,-1,46
 478 1969 478 1969 475.5 1974 c 128,-1,47
 473 1979 473 1979 470.5 1984 c 128,-1,48
 468 1989 468 1989 467.5 1992.5 c 128,-1,49
 467 1996 467 1996 467 1999 c 0,50,51
 467 2014 467 2014 482 2019.5 c 128,-1,52
 497 2025 497 2025 539 2025 c 0,32,33
895 1804 m 0,53,54
 926 1804 926 1804 926 1774 c 0,55,56
 926 1677 926 1677 837 1619 c 128,-1,57
 748 1561 748 1561 631 1561 c 0,58,59
 555 1561 555 1561 488.5 1585 c 128,-1,60
 422 1609 422 1609 378 1658.5 c 128,-1,61
 334 1708 334 1708 334 1774 c 0,62,63
 334 1804 334 1804 365 1804 c 0,64,65
 381 1804 381 1804 386 1798 c 128,-1,66
 391 1792 391 1792 396 1778 c 128,-1,67
 401 1764 401 1764 410 1753 c 0,68,69
 437 1721 437 1721 499.5 1694 c 128,-1,70
 562 1667 562 1667 631 1667 c 0,71,72
 702 1667 702 1667 763.5 1693.5 c 128,-1,73
 825 1720 825 1720 850 1753 c 0,74,75
 857 1763 857 1763 862 1778 c 128,-1,76
 867 1793 867 1793 873 1798.5 c 128,-1,77
 879 1804 879 1804 895 1804 c 0,53,54
EndSplineSet
Position2: "'cpsp' Capital Spacing lookup 3 subtable" dx=10 dy=0 dh=20 dv=0
EndChar

StartChar: Abrevehookabove
Encoding: 7858 7858 7
Width: 1255
Flags: MW
HStem: -4 43G<82 113 113 123 1106 1126 1126 1143> 365 156<379 868 379 924 322 868> 1249 188<625 625 625 629> 1397 41G<598 657 657 678> 1561 106<581 681 581 703> 1964 98<583 623>
VStem: 678 117<1894 1927>
LayerCount: 2
Fore
SplineSet
657 1438 m 2,0,1
 728 1438 728 1438 739 1405 c 2,2,-1
 1225 57 l 2,3,4
 1231 42 1231 42 1231 31 c 0,5,6
 1231 -4 1231 -4 1143 -4 c 2,7,-1
 1126 -4 l 2,8,9
 1055 -4 1055 -4 1044 29 c 2,10,-1
 924 365 l 1,11,-1
 322 365 l 1,12,-1
 205 29 l 2,13,14
 194 -4 194 -4 123 -4 c 2,15,-1
 113 -4 l 2,16,17
 25 -4 25 -4 25 31 c 0,18,19
 25 41 25 41 31 59 c 2,20,-1
 516 1405 l 2,21,22
 527 1438 527 1438 598 1438 c 2,23,-1
 657 1438 l 2,0,1
625 1249 m 1,24,25
 609 1173 609 1173 594 1130 c 2,26,-1
 379 520 l 1,27,-1
 868 520 l 1,28,-1
 653 1130 l 2,29,30
 642 1163 642 1163 629 1249 c 1,31,-1
 625 1249 l 1,24,25
678 1909 m 0,32,33
 678 1935 678 1935 656.5 1949.5 c 128,-1,34
 635 1964 635 1964 602 1964 c 0,35,36
 574 1964 574 1964 553 1957 c 128,-1,37
 532 1950 532 1950 521.5 1943.5 c 128,-1,38
 511 1937 511 1937 508 1937 c 0,39,40
 496 1937 496 1937 477.5 1963.5 c 128,-1,41
 459 1990 459 1990 459 2005 c 0,42,43
 459 2025 459 2025 511 2043.5 c 128,-1,44
 563 2062 563 2062 618 2062 c 0,45,46
 658 2062 658 2062 695.5 2050.5 c 128,-1,47
 733 2039 733 2039 764 2005.5 c 128,-1,48
 795 1972 795 1972 795 1923 c 0,49,50
 795 1852 795 1852 723 1792 c 1,51,52
 703 1774 703 1774 676 1760.5 c 128,-1,53
 649 1747 649 1747 639 1747 c 0,54,55
 608 1747 608 1747 585.5 1760.5 c 128,-1,56
 563 1774 563 1774 563 1788 c 0,57,58
 563 1799 563 1799 574.5 1808.5 c 128,-1,59
 586 1818 586 1818 614 1833 c 0,60,61
 678 1869 678 1869 678 1909 c 0,32,33
895 1804 m 0,62,63
 926 1804 926 1804 926 1774 c 0,64,65
 926 1677 926 1677 837 1619 c 128,-1,66
 748 1561 748 1561 631 1561 c 0,67,68
 555 1561 555 1561 488.5 1585 c 128,-1,69
 422 1609 422 1609 378 1658.5 c 128,-1,70
 334 1708 334 1708 334 1774 c 0,71,72
 334 1804 334 1804 365 1804 c 0,73,74
 381 1804 381 1804 386 1798 c 128,-1,75
 391 1792 391 1792 396 1778 c 128,-1,76
 401 1764 401 1764 410 1753 c 0,77,78
 437 1721 437 1721 499.5 1694 c 128,-1,79
 562 1667 562 1667 631 1667 c 0,80,81
 702 1667 702 1667 763.5 1693.5 c 128,-1,82
 825 1720 825 1720 850 1753 c 0,83,84
 857 1763 857 1763 862 1778 c 128,-1,85
 867 1793 867 1793 873 1798.5 c 128,-1,86
 879 1804 879 1804 895 1804 c 0,62,63
EndSplineSet
Position2: "'cpsp' Capital Spacing lookup 3 subtable" dx=10 dy=0 dh=20 dv=0
EndChar

StartChar: Abrevetilde
Encoding: 7860 7860 8
Width: 1255
Flags: MW
HStem: -4 43G<82 113 113 123 1106 1126 1126 1143> 365 156<379 868 379 924 322 868> 1249 188<625 625 625 629> 1397 41G<598 657 657 678> 1561 106<581 681 581 703> 1849 131<725 759> 1911 131<482 516>
VStem: 25 1206<20 35 20 35>
LayerCount: 2
Fore
SplineSet
657 1438 m 2,0,1
 728 1438 728 1438 739 1405 c 2,2,-1
 1225 57 l 2,3,4
 1231 42 1231 42 1231 31 c 0,5,6
 1231 -4 1231 -4 1143 -4 c 2,7,-1
 1126 -4 l 2,8,9
 1055 -4 1055 -4 1044 29 c 2,10,-1
 924 365 l 1,11,-1
 322 365 l 1,12,-1
 205 29 l 2,13,14
 194 -4 194 -4 123 -4 c 2,15,-1
 113 -4 l 2,16,17
 25 -4 25 -4 25 31 c 0,18,19
 25 41 25 41 31 59 c 2,20,-1
 516 1405 l 2,21,22
 527 1438 527 1438 598 1438 c 2,23,-1
 657 1438 l 2,0,1
625 1249 m 1,24,25
 609 1173 609 1173 594 1130 c 2,26,-1
 379 520 l 1,27,-1
 868 520 l 1,28,-1
 653 1130 l 2,29,30
 642 1163 642 1163 629 1249 c 1,31,-1
 625 1249 l 1,24,25
852 2028 m 0,32,33
 864 2038 864 2038 881 2038 c 0,34,35
 900 2038 900 2038 915 2019 c 0,36,37
 934 1994 934 1994 934 1976 c 0,38,39
 934 1956 934 1956 911 1933 c 1,40,41
 808 1849 808 1849 721 1849 c 0,42,43
 652 1849 652 1849 584 1882 c 0,44,45
 582 1883 582 1883 568 1890.5 c 128,-1,46
 554 1898 554 1898 550.5 1899.5 c 128,-1,47
 547 1901 547 1901 536.5 1905 c 128,-1,48
 526 1909 526 1909 517.5 1910 c 128,-1,49
 509 1911 509 1911 498 1911 c 0,50,51
 451 1911 451 1911 395 1872 c 0,52,53
 374 1858 374 1858 360 1858 c 0,54,55
 338 1858 338 1858 319 1886 c 0,56,57
 307 1904 307 1904 307 1921 c 0,58,59
 307 1942 307 1942 328 1960 c 1,60,61
 434 2042 434 2042 520 2042 c 0,62,63
 540 2042 540 2042 556.5 2040 c 128,-1,64
 573 2038 573 2038 588.5 2032.5 c 128,-1,65
 604 2027 604 2027 611 2024 c 128,-1,66
 618 2021 618 2021 633.5 2012.5 c 128,-1,67
 649 2004 649 2004 651 2003 c 0,68,69
 695 1980 695 1980 743 1980 c 0,70,71
 789 1980 789 1980 852 2028 c 0,32,33
895 1804 m 0,72,73
 926 1804 926 1804 926 1774 c 0,74,75
 926 1677 926 1677 837 1619 c 128,-1,76
 748 1561 748 1561 631 1561 c 0,77,78
 555 1561 555 1561 488.5 1585 c 128,-1,79
 422 1609 422 1609 378 1658.5 c 128,-1,80
 334 1708 334 1708 334 1774 c 0,81,82
 334 1804 334 1804 365 1804 c 0,83,84
 381 1804 381 1804 386 1798 c 128,-1,85
 391 1792 391 1792 396 1778 c 128,-1,86
 401 1764 401 1764 410 1753 c 0,87,88
 437 1721 437 1721 499.5 1694 c 128,-1,89
 562 1667 562 1667 631 1667 c 0,90,91
 702 1667 702 1667 763.5 1693.5 c 128,-1,92
 825 1720 825 1720 850 1753 c 0,93,94
 857 1763 857 1763 862 1778 c 128,-1,95
 867 1793 867 1793 873 1798.5 c 128,-1,96
 879 1804 879 1804 895 1804 c 0,72,73
EndSplineSet
Position2: "'cpsp' Capital Spacing lookup 3 subtable" dx=10 dy=0 dh=20 dv=0
EndChar

StartChar: Acircumflex
Encoding: 194 194 9
Width: 1255
Flags: MW
HStem: -4 43G<82 113 113 123 1106 1126 1126 1143> 365 156<379 868 379 924 322 868> 1249 188<625 625 625 629> 1397 41G<598 657 657 678> 1542 291<413 653 428 653 602 823 602 827>
VStem: 25 1206<20 35 20 35>
LayerCount: 2
Fore
SplineSet
653 1833 m 2,0,1
 719 1833 719 1833 748 1788 c 2,2,-1
 864 1608 l 2,3,4
 877 1588 877 1588 877 1573 c 0,5,6
 877 1542 877 1542 827 1542 c 2,7,-1
 823 1542 l 2,8,9
 786 1542 786 1542 756 1569 c 1,10,-1
 627 1720 l 1,11,-1
 502 1569 l 1,12,13
 472 1542 472 1542 432 1542 c 2,14,-1
 428 1542 l 2,15,16
 381 1542 381 1542 381 1571 c 0,17,18
 381 1587 381 1587 393 1608 c 1,19,-1
 508 1788 l 2,20,21
 537 1833 537 1833 602 1833 c 2,22,-1
 653 1833 l 2,0,1
657 1438 m 2,23,24
 728 1438 728 1438 739 1405 c 2,25,-1
 1225 57 l 2,26,27
 1231 42 1231 42 1231 31 c 0,28,29
 1231 -4 1231 -4 1143 -4 c 2,30,-1
 1126 -4 l 2,31,32
 1055 -4 1055 -4 1044 29 c 2,33,-1
 924 365 l 1,34,-1
 322 365 l 1,35,-1
 205 29 l 2,36,37
 194 -4 194 -4 123 -4 c 2,38,-1
 113 -4 l 2,39,40
 25 -4 25 -4 25 31 c 0,41,42
 25 41 25 41 31 59 c 2,43,-1
 516 1405 l 2,44,45
 527 1438 527 1438 598 1438 c 2,46,-1
 657 1438 l 2,23,24
625 1249 m 1,47,48
 609 1173 609 1173 594 1130 c 2,49,-1
 379 520 l 1,50,-1
 868 520 l 1,51,-1
 653 1130 l 2,52,53
 642 1163 642 1163 629 1249 c 1,54,-1
 625 1249 l 1,47,48
EndSplineSet
Position2: "'cpsp' Capital Spacing lookup 3 subtable" dx=10 dy=0 dh=20 dv=0
EndChar

StartChar: Acircumflexacute
Encoding: 7844 7844 10
Width: 1255
Flags: MW
HStem: -4 43G<82 113 113 123 1106 1126 1126 1143> 365 156<379 868 379 924 322 868> 1249 188<625 625 625 629> 1397 41G<598 657 657 678>
VStem: 25 1206<20 35 20 35>
LayerCount: 2
Fore
SplineSet
657 1438 m 2,0,1
 728 1438 728 1438 739 1405 c 2,2,-1
 1225 57 l 2,3,4
 1231 42 1231 42 1231 31 c 0,5,6
 1231 -4 1231 -4 1143 -4 c 2,7,-1
 1126 -4 l 2,8,9
 1055 -4 1055 -4 1044 29 c 2,10,-1
 924 365 l 1,11,-1
 322 365 l 1,12,-1
 205 29 l 2,13,14
 194 -4 194 -4 123 -4 c 2,15,-1
 113 -4 l 2,16,17
 25 -4 25 -4 25 31 c 0,18,19
 25 41 25 41 31 59 c 2,20,-1
 516 1405 l 2,21,22
 527 1438 527 1438 598 1438 c 2,23,-1
 657 1438 l 2,0,1
625 1249 m 1,24,25
 609 1173 609 1173 594 1130 c 2,26,-1
 379 520 l 1,27,-1
 868 520 l 1,28,-1
 653 1130 l 2,29,30
 642 1163 642 1163 629 1249 c 1,31,-1
 625 1249 l 1,24,25
1059 1968 m 0,32,33
 1093 1968 1093 1968 1107.5 1962.5 c 128,-1,34
 1122 1957 1122 1957 1122 1942 c 0,35,36
 1122 1930 1122 1930 1108 1909 c 128,-1,37
 1094 1888 1094 1888 1021.14809386 1790.7406543 c 0,38,39
 1011 1778 1011 1778 1005.5 1770 c 128,-1,40
 1000 1762 1000 1762 990 1749 c 128,-1,41
 980 1736 980 1736 971 1724 c 0,42,43
 945 1688 945 1688 897 1688 c 0,44,45
 850 1688 850 1688 850 1708 c 0,46,47
 850 1727 850 1727 948 1915 c 1,48,49
 979 1968 979 1968 1059 1968 c 0,32,33
662 1833 m 2,50,51
 708 1833 708 1833 735 1788 c 2,52,-1
 842 1608 l 1,53,54
 854 1590 854 1590 854 1573 c 0,55,56
 854 1542 854 1542 805 1542 c 2,57,-1
 801 1542 l 2,58,59
 751 1542 751 1542 733 1569 c 2,60,-1
 635 1720 l 1,61,-1
 510 1569 l 1,62,63
 480 1542 480 1542 440 1542 c 2,64,-1
 436 1542 l 2,65,66
 389 1542 389 1542 389 1571 c 0,67,68
 389 1587 389 1587 401 1608 c 1,69,-1
 516 1788 l 2,70,71
 545 1833 545 1833 610 1833 c 2,72,-1
 662 1833 l 2,50,51
EndSplineSet
Position2: "'cpsp' Capital Spacing lookup 3 subtable" dx=10 dy=0 dh=20 dv=0
EndChar

StartChar: Acircumflexdotbelow
Encoding: 7852 7852 11
Width: 1255
Flags: MW
HStem: -358 195<610 668> -4 43G<82 113 113 123 1106 1126 1126 1143> 365 156<379 868 379 924 322 868> 1249 188<625 625 625 629> 1397 41G<598 657 657 678> 1542 291<413 653 428 653 602 823 602 827>
VStem: 553 172<-313 -209 -327 -196>
LayerCount: 2
Fore
SplineSet
657 1438 m 2,0,1
 728 1438 728 1438 739 1405 c 2,2,-1
 1225 57 l 2,3,4
 1231 42 1231 42 1231 31 c 0,5,6
 1231 -4 1231 -4 1143 -4 c 2,7,-1
 1126 -4 l 2,8,9
 1055 -4 1055 -4 1044 29 c 2,10,-1
 924 365 l 1,11,-1
 322 365 l 1,12,-1
 205 29 l 2,13,14
 194 -4 194 -4 123 -4 c 2,15,-1
 113 -4 l 2,16,17
 25 -4 25 -4 25 31 c 0,18,19
 25 41 25 41 31 59 c 2,20,-1
 516 1405 l 2,21,22
 527 1438 527 1438 598 1438 c 2,23,-1
 657 1438 l 2,0,1
625 1249 m 1,24,25
 609 1173 609 1173 594 1130 c 2,26,-1
 379 520 l 1,27,-1
 868 520 l 1,28,-1
 653 1130 l 2,29,30
 642 1163 642 1163 629 1249 c 1,31,-1
 625 1249 l 1,24,25
653 1833 m 2,32,33
 719 1833 719 1833 748 1788 c 2,34,-1
 864 1608 l 2,35,36
 877 1588 877 1588 877 1573 c 0,37,38
 877 1542 877 1542 827 1542 c 2,39,-1
 823 1542 l 2,40,41
 786 1542 786 1542 756 1569 c 1,42,-1
 627 1720 l 1,43,-1
 502 1569 l 1,44,45
 472 1542 472 1542 432 1542 c 2,46,-1
 428 1542 l 2,47,48
 381 1542 381 1542 381 1571 c 0,49,50
 381 1587 381 1587 393 1608 c 1,51,-1
 508 1788 l 2,52,53
 537 1833 537 1833 602 1833 c 2,54,-1
 653 1833 l 2,32,33
553 -209 m 2,55,56
 553 -164 553 -164 643 -164 c 0,57,58
 725 -164 725 -164 725 -209 c 2,59,-1
 725 -313 l 2,60,61
 725 -358 725 -358 635 -358 c 0,62,63
 553 -358 553 -358 553 -313 c 2,64,-1
 553 -209 l 2,55,56
EndSplineSet
Position2: "'cpsp' Capital Spacing lookup 3 subtable" dx=10 dy=0 dh=20 dv=0
EndChar

StartChar: Acircumflexgrave
Encoding: 7846 7846 12
Width: 1255
Flags: MW
HStem: -4 43G<82 113 113 123 1106 1126 1126 1143> 365 156<379 868 379 924 322 868> 1249 188<625 625 625 629> 1397 41G<598 657 657 678>
VStem: 25 1206<20 35 20 35>
LayerCount: 2
Fore
SplineSet
657 1438 m 2,0,1
 728 1438 728 1438 739 1405 c 2,2,-1
 1225 57 l 2,3,4
 1231 42 1231 42 1231 31 c 0,5,6
 1231 -4 1231 -4 1143 -4 c 2,7,-1
 1126 -4 l 2,8,9
 1055 -4 1055 -4 1044 29 c 2,10,-1
 924 365 l 1,11,-1
 322 365 l 1,12,-1
 205 29 l 2,13,14
 194 -4 194 -4 123 -4 c 2,15,-1
 113 -4 l 2,16,17
 25 -4 25 -4 25 31 c 0,18,19
 25 41 25 41 31 59 c 2,20,-1
 516 1405 l 2,21,22
 527 1438 527 1438 598 1438 c 2,23,-1
 657 1438 l 2,0,1
625 1249 m 1,24,25
 609 1173 609 1173 594 1130 c 2,26,-1
 379 520 l 1,27,-1
 868 520 l 1,28,-1
 653 1130 l 2,29,30
 642 1163 642 1163 629 1249 c 1,31,-1
 625 1249 l 1,24,25
825 1968 m 0,32,33
 906 1968 906 1968 928 1915 c 0,34,35
 1006 1729 1006 1729 1006 1708 c 0,36,37
 1006 1688 1006 1688 958 1688 c 0,38,39
 908 1688 908 1688 885 1724 c 0,40,41
 764.271751761 1912.96595376 764.271751761 1912.96595376 761.189355605 1918.8908094 c 0,42,43
 754 1932.70989425 754 1932.70989425 754 1942 c 0,44,45
 754 1957 754 1957 768.5 1962.5 c 128,-1,46
 783 1968 783 1968 825 1968 c 0,32,33
662 1833 m 2,47,48
 708 1833 708 1833 735 1788 c 2,49,-1
 842 1608 l 1,50,51
 854 1590 854 1590 854 1573 c 0,52,53
 854 1542 854 1542 805 1542 c 2,54,-1
 801 1542 l 2,55,56
 751 1542 751 1542 733 1569 c 2,57,-1
 635 1720 l 1,58,-1
 510 1569 l 1,59,60
 480 1542 480 1542 440 1542 c 2,61,-1
 436 1542 l 2,62,63
 389 1542 389 1542 389 1571 c 0,64,65
 389 1587 389 1587 401 1608 c 1,66,-1
 516 1788 l 2,67,68
 545 1833 545 1833 610 1833 c 2,69,-1
 662 1833 l 2,47,48
EndSplineSet
Position2: "'cpsp' Capital Spacing lookup 3 subtable" dx=10 dy=0 dh=20 dv=0
EndChar

StartChar: Acircumflexhookabove
Encoding: 7848 7848 13
Width: 1255
Flags: MW
HStem: -4 43G<82 113 113 123 1106 1126 1126 1143> 365 156<379 868 379 924 322 868> 1249 188<625 625 625 629> 1397 41G<598 657 657 678> 1907 98<869 909>
VStem: 965 117<1837 1870>
LayerCount: 2
Fore
SplineSet
657 1438 m 2,0,1
 728 1438 728 1438 739 1405 c 2,2,-1
 1225 57 l 2,3,4
 1231 42 1231 42 1231 31 c 0,5,6
 1231 -4 1231 -4 1143 -4 c 2,7,-1
 1126 -4 l 2,8,9
 1055 -4 1055 -4 1044 29 c 2,10,-1
 924 365 l 1,11,-1
 322 365 l 1,12,-1
 205 29 l 2,13,14
 194 -4 194 -4 123 -4 c 2,15,-1
 113 -4 l 2,16,17
 25 -4 25 -4 25 31 c 0,18,19
 25 41 25 41 31 59 c 2,20,-1
 516 1405 l 2,21,22
 527 1438 527 1438 598 1438 c 2,23,-1
 657 1438 l 2,0,1
625 1249 m 1,24,25
 609 1173 609 1173 594 1130 c 2,26,-1
 379 520 l 1,27,-1
 868 520 l 1,28,-1
 653 1130 l 2,29,30
 642 1163 642 1163 629 1249 c 1,31,-1
 625 1249 l 1,24,25
965 1851 m 0,32,33
 965 1878 965 1878 943 1892.5 c 128,-1,34
 921 1907 921 1907 889 1907 c 0,35,36
 861 1907 861 1907 840 1900.5 c 128,-1,37
 819 1894 819 1894 808.5 1887 c 128,-1,38
 798 1880 798 1880 795 1880 c 0,39,40
 783 1880 783 1880 764 1906.5 c 128,-1,41
 745 1933 745 1933 745 1948 c 0,42,43
 745 1968 745 1968 797.5 1986.5 c 128,-1,44
 850 2005 850 2005 905 2005 c 0,45,46
 945 2005 945 2005 982.5 1993.5 c 128,-1,47
 1020 1982 1020 1982 1050.5 1948.5 c 128,-1,48
 1081 1915 1081 1915 1081 1866 c 0,49,50
 1081 1794 1081 1794 1010 1735 c 1,51,52
 990 1717 990 1717 963 1703.5 c 128,-1,53
 936 1690 936 1690 926 1690 c 0,54,55
 895 1690 895 1690 872.5 1703.5 c 128,-1,56
 850 1717 850 1717 850 1731 c 0,57,58
 850 1742 850 1742 861.5 1751.5 c 128,-1,59
 873 1761 873 1761 901 1776 c 0,60,61
 965 1812 965 1812 965 1851 c 0,32,33
662 1833 m 2,62,63
 708 1833 708 1833 735 1788 c 2,64,-1
 842 1608 l 1,65,66
 854 1590 854 1590 854 1573 c 0,67,68
 854 1542 854 1542 805 1542 c 2,69,-1
 801 1542 l 2,70,71
 751 1542 751 1542 733 1569 c 2,72,-1
 635 1720 l 1,73,-1
 510 1569 l 1,74,75
 480 1542 480 1542 440 1542 c 2,76,-1
 436 1542 l 2,77,78
 389 1542 389 1542 389 1571 c 0,79,80
 389 1587 389 1587 401 1608 c 1,81,-1
 516 1788 l 2,82,83
 545 1833 545 1833 610 1833 c 2,84,-1
 662 1833 l 2,62,63
EndSplineSet
Position2: "'cpsp' Capital Spacing lookup 3 subtable" dx=10 dy=0 dh=20 dv=0
EndChar

StartChar: Acircumflextilde
Encoding: 7850 7850 14
Width: 1255
Flags: MW
HStem: -4 43G<82 113 113 123 1106 1126 1126 1143> 365 156<379 868 379 924 322 868> 1249 188<625 625 625 629> 1397 41G<598 657 657 678> 1849 131<727 761> 1911 131<484 518>
VStem: 25 1206<20 35 20 35>
LayerCount: 2
Fore
SplineSet
657 1438 m 2,0,1
 728 1438 728 1438 739 1405 c 2,2,-1
 1225 57 l 2,3,4
 1231 42 1231 42 1231 31 c 0,5,6
 1231 -4 1231 -4 1143 -4 c 2,7,-1
 1126 -4 l 2,8,9
 1055 -4 1055 -4 1044 29 c 2,10,-1
 924 365 l 1,11,-1
 322 365 l 1,12,-1
 205 29 l 2,13,14
 194 -4 194 -4 123 -4 c 2,15,-1
 113 -4 l 2,16,17
 25 -4 25 -4 25 31 c 0,18,19
 25 41 25 41 31 59 c 2,20,-1
 516 1405 l 2,21,22
 527 1438 527 1438 598 1438 c 2,23,-1
 657 1438 l 2,0,1
625 1249 m 1,24,25
 609 1173 609 1173 594 1130 c 2,26,-1
 379 520 l 1,27,-1
 868 520 l 1,28,-1
 653 1130 l 2,29,30
 642 1163 642 1163 629 1249 c 1,31,-1
 625 1249 l 1,24,25
854 2028 m 0,32,33
 866 2038 866 2038 883 2038 c 0,34,35
 903 2038 903 2038 918 2019 c 0,36,37
 936 1995 936 1995 936 1976 c 0,38,39
 936 1956 936 1956 913 1933 c 1,40,41
 810 1849 810 1849 723 1849 c 0,42,43
 654 1849 654 1849 586 1882 c 0,44,45
 584 1883 584 1883 570 1890.5 c 128,-1,46
 556 1898 556 1898 552.5 1899.5 c 128,-1,47
 549 1901 549 1901 538.5 1905 c 128,-1,48
 528 1909 528 1909 519.5 1910 c 128,-1,49
 511 1911 511 1911 500 1911 c 0,50,51
 453 1911 453 1911 397 1872 c 0,52,53
 376 1858 376 1858 362 1858 c 0,54,55
 341 1858 341 1858 322 1886 c 0,56,57
 309 1906 309 1906 309 1921 c 0,58,59
 309 1942 309 1942 330 1960 c 1,60,61
 436 2042 436 2042 522 2042 c 0,62,63
 542 2042 542 2042 558.5 2040 c 128,-1,64
 575 2038 575 2038 590.5 2032.5 c 128,-1,65
 606 2027 606 2027 613 2024 c 128,-1,66
 620 2021 620 2021 635.5 2012.5 c 128,-1,67
 651 2004 651 2004 653 2003 c 0,68,69
 697 1980 697 1980 745 1980 c 0,70,71
 791 1980 791 1980 854 2028 c 0,32,33
653 1784 m 2,72,73
 703 1784 703 1784 748 1739 c 1,74,-1
 864 1608 l 1,75,76
 877 1588 877 1588 877 1573 c 0,77,78
 877 1542 877 1542 827 1542 c 2,79,-1
 823 1542 l 2,80,81
 800 1542 800 1542 756 1569 c 1,82,-1
 627 1671 l 1,83,-1
 502 1569 l 1,84,85
 463 1542 463 1542 432 1542 c 2,86,-1
 428 1542 l 2,87,88
 381 1542 381 1542 381 1571 c 0,89,90
 381 1587 381 1587 393 1608 c 1,91,-1
 508 1739 l 1,92,93
 556 1784 556 1784 602 1784 c 2,94,-1
 653 1784 l 2,72,73
EndSplineSet
Position2: "'cpsp' Capital Spacing lookup 3 subtable" dx=10 dy=0 dh=20 dv=0
EndChar

StartChar: Adieresis
Encoding: 196 196 15
Width: 1255
Flags: MW
HStem: -4 43G<82 113 113 123 1106 1126 1126 1143> 365 156<379 868 379 924 322 868> 1249 188<625 625 625 629> 1397 41G<598 657 657 678> 1606 195<453 510 748 805>
VStem: 395 172<1651 1755 1637 1768> 690 172<1651 1755 1637 1768>
LayerCount: 2
Fore
SplineSet
657 1438 m 2,0,1
 728 1438 728 1438 739 1405 c 2,2,-1
 1225 57 l 2,3,4
 1231 42 1231 42 1231 31 c 0,5,6
 1231 -4 1231 -4 1143 -4 c 2,7,-1
 1126 -4 l 2,8,9
 1055 -4 1055 -4 1044 29 c 2,10,-1
 924 365 l 1,11,-1
 322 365 l 1,12,-1
 205 29 l 2,13,14
 194 -4 194 -4 123 -4 c 2,15,-1
 113 -4 l 2,16,17
 25 -4 25 -4 25 31 c 0,18,19
 25 41 25 41 31 59 c 2,20,-1
 516 1405 l 2,21,22
 527 1438 527 1438 598 1438 c 2,23,-1
 657 1438 l 2,0,1
625 1249 m 1,24,25
 609 1173 609 1173 594 1130 c 2,26,-1
 379 520 l 1,27,-1
 868 520 l 1,28,-1
 653 1130 l 2,29,30
 642 1163 642 1163 629 1249 c 1,31,-1
 625 1249 l 1,24,25
395 1755 m 2,32,33
 395 1800 395 1800 485 1800 c 0,34,35
 567 1800 567 1800 567 1755 c 2,36,-1
 567 1651 l 2,37,38
 567 1606 567 1606 477 1606 c 0,39,40
 395 1606 395 1606 395 1651 c 2,41,-1
 395 1755 l 2,32,33
690 1755 m 2,42,43
 690 1800 690 1800 780 1800 c 0,44,45
 862 1800 862 1800 862 1755 c 2,46,-1
 862 1651 l 2,47,48
 862 1606 862 1606 772 1606 c 0,49,50
 690 1606 690 1606 690 1651 c 2,51,-1
 690 1755 l 2,42,43
EndSplineSet
Position2: "'cpsp' Capital Spacing lookup 3 subtable" dx=10 dy=0 dh=20 dv=0
EndChar

StartChar: Adotbelow
Encoding: 7840 7840 16
Width: 1255
Flags: MW
HStem: -358 195<610 668> -4 43G<82 113 113 123 1106 1126 1126 1143> 365 156<379 868 379 924 322 868> 1249 188<625 625 625 629> 1397 41G<598 657 657 678>
VStem: 553 172<-313 -209 -327 -196>
LayerCount: 2
Fore
SplineSet
657 1438 m 2,0,1
 728 1438 728 1438 739 1405 c 2,2,-1
 1225 57 l 2,3,4
 1231 42 1231 42 1231 31 c 0,5,6
 1231 -4 1231 -4 1143 -4 c 2,7,-1
 1126 -4 l 2,8,9
 1055 -4 1055 -4 1044 29 c 2,10,-1
 924 365 l 1,11,-1
 322 365 l 1,12,-1
 205 29 l 2,13,14
 194 -4 194 -4 123 -4 c 2,15,-1
 113 -4 l 2,16,17
 25 -4 25 -4 25 31 c 0,18,19
 25 41 25 41 31 59 c 2,20,-1
 516 1405 l 2,21,22
 527 1438 527 1438 598 1438 c 2,23,-1
 657 1438 l 2,0,1
625 1249 m 1,24,25
 609 1173 609 1173 594 1130 c 2,26,-1
 379 520 l 1,27,-1
 868 520 l 1,28,-1
 653 1130 l 2,29,30
 642 1163 642 1163 629 1249 c 1,31,-1
 625 1249 l 1,24,25
553 -209 m 2,32,33
 553 -164 553 -164 643 -164 c 0,34,35
 725 -164 725 -164 725 -209 c 2,36,-1
 725 -313 l 2,37,38
 725 -358 725 -358 635 -358 c 0,39,40
 553 -358 553 -358 553 -313 c 2,41,-1
 553 -209 l 2,32,33
EndSplineSet
Position2: "'cpsp' Capital Spacing lookup 3 subtable" dx=10 dy=0 dh=20 dv=0
EndChar

StartChar: Agrave
Encoding: 192 192 17
Width: 1255
Flags: MW
HStem: -4 43G<82 113 113 123 1106 1126 1126 1143> 365 156<379 868 379 924 322 868> 1249 188<625 625 625 629> 1397 41G<598 657 657 678>
VStem: 25 1206<20 35 20 35>
LayerCount: 2
Fore
SplineSet
485 1862 m 0,0,1
 580 1862 580 1862 612 1808 c 0,2,3
 690 1672 690 1672 710.5 1633.5 c 128,-1,4
 731 1595 731 1595 731 1581 c 0,5,6
 731 1561 731 1561 684 1561 c 0,7,8
 613 1561 613 1561 580 1597 c 1,9,10
 411.13437115 1790.41005165 411.13437115 1790.41005165 403.038649765 1801.10273571 c 0,11,12
 387.26022117 1822.70014735 387.26022117 1822.70014735 387 1835 c 0,13,14
 387 1862 387 1862 485 1862 c 0,0,1
657 1438 m 2,15,16
 728 1438 728 1438 739 1405 c 2,17,-1
 1225 57 l 2,18,19
 1231 42 1231 42 1231 31 c 0,20,21
 1231 -4 1231 -4 1143 -4 c 2,22,-1
 1126 -4 l 2,23,24
 1055 -4 1055 -4 1044 29 c 2,25,-1
 924 365 l 1,26,-1
 322 365 l 1,27,-1
 205 29 l 2,28,29
 194 -4 194 -4 123 -4 c 2,30,-1
 113 -4 l 2,31,32
 25 -4 25 -4 25 31 c 0,33,34
 25 41 25 41 31 59 c 2,35,-1
 516 1405 l 2,36,37
 527 1438 527 1438 598 1438 c 2,38,-1
 657 1438 l 2,15,16
625 1249 m 1,39,40
 609 1173 609 1173 594 1130 c 2,41,-1
 379 520 l 1,42,-1
 868 520 l 1,43,-1
 653 1130 l 2,44,45
 642 1163 642 1163 629 1249 c 1,46,-1
 625 1249 l 1,39,40
EndSplineSet
Position2: "'cpsp' Capital Spacing lookup 3 subtable" dx=10 dy=0 dh=20 dv=0
EndChar

StartChar: Ahookabove
Encoding: 7842 7842 18
Width: 1255
Flags: MW
HStem: -4 43G<82 113 113 123 1106 1126 1126 1143> 365 156<379 868 379 924 322 868> 1249 188<625 625 625 629> 1397 41G<598 657 657 678> 1794 104<607 647>
VStem: 702 127<1688 1757>
LayerCount: 2
Fore
SplineSet
702 1739 m 0,0,1
 702 1766 702 1766 681 1780 c 128,-1,2
 660 1794 660 1794 627 1794 c 0,3,4
 599 1794 599 1794 578 1787 c 128,-1,5
 557 1780 557 1780 546 1773.5 c 128,-1,6
 535 1767 535 1767 532 1767 c 0,7,8
 520 1767 520 1767 501.5 1793.5 c 128,-1,9
 483 1820 483 1820 483 1835 c 0,10,11
 483 1855 483 1855 536.5 1876.5 c 128,-1,12
 590 1898 590 1898 643 1898 c 0,13,14
 672 1898 672 1898 702 1891 c 128,-1,15
 732 1884 732 1884 762 1868.5 c 128,-1,16
 792 1853 792 1853 810.5 1823 c 128,-1,17
 829 1793 829 1793 829 1753 c 0,18,19
 829 1706 829 1706 803.5 1659.5 c 128,-1,20
 778 1613 778 1613 745 1583 c 128,-1,21
 712 1553 712 1553 683 1534.5 c 128,-1,22
 654 1516 654 1516 643 1516 c 0,23,24
 626 1516 626 1516 600.5 1527 c 128,-1,25
 575 1538 575 1538 575 1550 c 0,26,27
 575 1569 575 1569 595 1590 c 128,-1,28
 615 1611 615 1611 638.5 1628 c 128,-1,29
 662 1645 662 1645 682 1675 c 128,-1,30
 702 1705 702 1705 702 1739 c 0,0,1
657 1438 m 2,31,32
 728 1438 728 1438 739 1405 c 2,33,-1
 1225 57 l 2,34,35
 1231 42 1231 42 1231 31 c 0,36,37
 1231 -4 1231 -4 1143 -4 c 2,38,-1
 1126 -4 l 2,39,40
 1055 -4 1055 -4 1044 29 c 2,41,-1
 924 365 l 1,42,-1
 322 365 l 1,43,-1
 205 29 l 2,44,45
 194 -4 194 -4 123 -4 c 2,46,-1
 113 -4 l 2,47,48
 25 -4 25 -4 25 31 c 0,49,50
 25 41 25 41 31 59 c 2,51,-1
 516 1405 l 2,52,53
 527 1438 527 1438 598 1438 c 2,54,-1
 657 1438 l 2,31,32
625 1249 m 1,55,56
 609 1173 609 1173 594 1130 c 2,57,-1
 379 520 l 1,58,-1
 868 520 l 1,59,-1
 653 1130 l 2,60,61
 642 1163 642 1163 629 1249 c 1,62,-1
 625 1249 l 1,55,56
EndSplineSet
Position2: "'cpsp' Capital Spacing lookup 3 subtable" dx=10 dy=0 dh=20 dv=0
EndChar

StartChar: Amacron
Encoding: 256 256 19
Width: 1255
Flags: MW
HStem: -4 43G<82 113 113 123 1106 1126 1126 1143> 365 156<379 868 379 924 322 868> 1249 188<625 625 625 629> 1397 41G<598 657 657 678> 1616 143<387 858 401 858>
VStem: 25 1206<20 35 20 35>
LayerCount: 2
Fore
SplineSet
858 1759 m 2,0,1
 899 1759 899 1759 899 1698 c 2,2,-1
 899 1677 l 2,3,4
 899 1616 899 1616 858 1616 c 2,5,-1
 401 1616 l 2,6,7
 360 1616 360 1616 360 1677 c 2,8,-1
 360 1698 l 2,9,10
 360 1759 360 1759 401 1759 c 2,11,-1
 858 1759 l 2,0,1
657 1438 m 2,12,13
 728 1438 728 1438 739 1405 c 2,14,-1
 1225 57 l 2,15,16
 1231 42 1231 42 1231 31 c 0,17,18
 1231 -4 1231 -4 1143 -4 c 2,19,-1
 1126 -4 l 2,20,21
 1055 -4 1055 -4 1044 29 c 2,22,-1
 924 365 l 1,23,-1
 322 365 l 1,24,-1
 205 29 l 2,25,26
 194 -4 194 -4 123 -4 c 2,27,-1
 113 -4 l 2,28,29
 25 -4 25 -4 25 31 c 0,30,31
 25 41 25 41 31 59 c 2,32,-1
 516 1405 l 2,33,34
 527 1438 527 1438 598 1438 c 2,35,-1
 657 1438 l 2,12,13
625 1249 m 1,36,37
 609 1173 609 1173 594 1130 c 2,38,-1
 379 520 l 1,39,-1
 868 520 l 1,40,-1
 653 1130 l 2,41,42
 642 1163 642 1163 629 1249 c 1,43,-1
 625 1249 l 1,36,37
EndSplineSet
Position2: "'cpsp' Capital Spacing lookup 3 subtable" dx=10 dy=0 dh=20 dv=0
EndChar

StartChar: Aogonek
Encoding: 260 260 20
Width: 1255
Flags: MW
HStem: -375 143<1275 1314 1275 1327> -4 43G<82 113 113 123> 0 43G 365 156<379 868 379 924 322 868> 1249 188<625 629 625 625> 1397 41G<598 657 657 678>
VStem: 1034 137<-176 -145>
LayerCount: 2
Fore
SplineSet
1225 57 m 2,0,1
 1231 42 1231 42 1231 31 c 0,2,3
 1231 8 1231 8 1196 2 c 1,4,-1
 1196 -2 l 2,5,6
 1196 -14 1196 -14 1183.5 -57 c 128,-1,7
 1171 -100 1171 -100 1171 -127 c 0,8,9
 1171 -231 1171 -231 1298 -231 c 0,10,11
 1313 -231 1313 -231 1350.5 -221 c 128,-1,12
 1388 -211 1388 -211 1405 -211 c 0,13,14
 1444 -211 1444 -211 1444 -262 c 0,15,16
 1444 -327 1444 -327 1402 -351 c 128,-1,17
 1360 -375 1360 -375 1276 -375 c 0,18,19
 1214 -375 1214 -375 1167 -358.5 c 128,-1,20
 1120 -342 1120 -342 1095.5 -319 c 128,-1,21
 1071 -296 1071 -296 1056.5 -264.5 c 128,-1,22
 1042 -233 1042 -233 1038 -210.5 c 128,-1,23
 1034 -188 1034 -188 1034 -166 c 0,24,25
 1034 -49 1034 -49 1085 0 c 1,26,27
 1052 7 1052 7 1044 29 c 2,28,-1
 924 365 l 1,29,-1
 322 365 l 1,30,-1
 205 29 l 2,31,32
 194 -4 194 -4 123 -4 c 2,33,-1
 113 -4 l 2,34,35
 25 -4 25 -4 25 31 c 0,36,37
 25 41 25 41 31 59 c 2,38,-1
 516 1405 l 2,39,40
 527 1438 527 1438 598 1438 c 2,41,-1
 657 1438 l 2,42,43
 728 1438 728 1438 739 1405 c 2,44,-1
 1225 57 l 2,0,1
868 520 m 1,45,-1
 653 1130 l 2,46,47
 642 1163 642 1163 629 1249 c 1,48,-1
 625 1249 l 1,49,50
 609 1173 609 1173 594 1130 c 2,51,-1
 379 520 l 1,52,-1
 868 520 l 1,45,-1
EndSplineSet
Position2: "'cpsp' Capital Spacing lookup 3 subtable" dx=10 dy=0 dh=20 dv=0
EndChar

StartChar: Aring
Encoding: 197 197 21
Width: 1255
Flags: MW
HStem: -4 43G<82 113 113 123 1106 1126 1126 1143> 365 156<379 868 379 924 322 868> 1249 188<625 625 625 629> 1397 41G<598 657 657 678> 1518 72<600 657 600 677> 1792 72<600 657>
VStem: 457 72<1661 1718 1661 1738> 731 72<1661 1718>
LayerCount: 2
Fore
SplineSet
629 1864 m 128,-1,1
 701 1864 701 1864 752 1813 c 128,-1,2
 803 1762 803 1762 803 1690 c 128,-1,3
 803 1618 803 1618 752 1568 c 128,-1,4
 701 1518 701 1518 629 1518 c 128,-1,5
 557 1518 557 1518 507 1568 c 128,-1,6
 457 1618 457 1618 457 1690 c 128,-1,7
 457 1762 457 1762 507 1813 c 128,-1,0
 557 1864 557 1864 629 1864 c 128,-1,1
629 1792 m 128,-1,9
 586 1792 586 1792 557 1762.5 c 128,-1,10
 528 1733 528 1733 528 1690 c 128,-1,11
 528 1647 528 1647 557 1618 c 128,-1,12
 586 1589 586 1589 629 1589 c 128,-1,13
 672 1589 672 1589 701.5 1618 c 128,-1,14
 731 1647 731 1647 731 1690 c 128,-1,15
 731 1733 731 1733 701.5 1762.5 c 128,-1,8
 672 1792 672 1792 629 1792 c 128,-1,9
657 1438 m 2,16,17
 728 1438 728 1438 739 1405 c 2,18,-1
 1225 57 l 2,19,20
 1231 42 1231 42 1231 31 c 0,21,22
 1231 -4 1231 -4 1143 -4 c 2,23,-1
 1126 -4 l 2,24,25
 1055 -4 1055 -4 1044 29 c 2,26,-1
 924 365 l 1,27,-1
 322 365 l 1,28,-1
 205 29 l 2,29,30
 194 -4 194 -4 123 -4 c 2,31,-1
 113 -4 l 2,32,33
 25 -4 25 -4 25 31 c 0,34,35
 25 41 25 41 31 59 c 2,36,-1
 516 1405 l 2,37,38
 527 1438 527 1438 598 1438 c 2,39,-1
 657 1438 l 2,16,17
625 1249 m 1,40,41
 609 1173 609 1173 594 1130 c 2,42,-1
 379 520 l 1,43,-1
 868 520 l 1,44,-1
 653 1130 l 2,45,46
 642 1163 642 1163 629 1249 c 1,47,-1
 625 1249 l 1,40,41
EndSplineSet
Position2: "'cpsp' Capital Spacing lookup 3 subtable" dx=10 dy=0 dh=20 dv=0
EndChar

StartChar: Aringacute
Encoding: 506 506 22
Width: 1255
Flags: MW
HStem: -4 43G<82 113 113 123 1106 1126 1126 1143> 365 156<379 868 379 924 322 868> 1249 100<625 629 625 625> 1552 72<600 657> 1683 219<578 782>
VStem: 457 72<1430 1479 1421 1498> 731 72<1428 1479>
LayerCount: 2
Fore
SplineSet
1225 57 m 2,0,1
 1231 42 1231 42 1231 31 c 0,2,3
 1231 -4 1231 -4 1143 -4 c 2,4,-1
 1126 -4 l 2,5,6
 1055 -4 1055 -4 1044 29 c 2,7,-1
 924 365 l 1,8,-1
 322 365 l 1,9,-1
 205 29 l 2,10,11
 194 -4 194 -4 123 -4 c 2,12,-1
 113 -4 l 2,13,14
 25 -4 25 -4 25 31 c 0,15,16
 25 41 25 41 31 59 c 2,17,-1
 494 1343 l 1,18,19
 457 1390 457 1390 457 1450 c 0,20,21
 457 1522 457 1522 507 1573 c 128,-1,22
 557 1624 557 1624 629 1624 c 128,-1,23
 701 1624 701 1624 752 1573 c 128,-1,24
 803 1522 803 1522 803 1450 c 0,25,26
 803 1386 803 1386 762 1339 c 1,27,-1
 1225 57 l 2,0,1
629 1552 m 128,-1,29
 586 1552 586 1552 557 1522.5 c 128,-1,30
 528 1493 528 1493 528 1450 c 128,-1,31
 528 1407 528 1407 557 1378.5 c 128,-1,32
 586 1350 586 1350 629 1350 c 128,-1,33
 672 1350 672 1350 701.5 1378.5 c 128,-1,34
 731 1407 731 1407 731 1450 c 128,-1,35
 731 1493 731 1493 701.5 1522.5 c 128,-1,28
 672 1552 672 1552 629 1552 c 128,-1,29
868 520 m 1,36,-1
 653 1130 l 2,37,38
 642 1163 642 1163 629 1249 c 1,39,-1
 625 1249 l 1,40,41
 609 1173 609 1173 594 1130 c 2,42,-1
 379 520 l 1,43,-1
 868 520 l 1,36,-1
594 1683 m 0,44,45
 547 1683 547 1683 547 1704 c 1,46,47
 588 1786 588 1786 623 1849 c 0,48,49
 640 1879 640 1879 669.5 1891 c 128,-1,50
 699 1903 699 1903 750 1903 c 0,51,52
 848 1903 848 1903 848 1876 c 0,53,54
 848 1874 848 1874 847.5 1871.5 c 128,-1,55
 847 1869 847 1869 844.5 1865.5 c 128,-1,56
 842 1862 842 1862 838.5 1858.5 c 128,-1,57
 835 1855 835 1855 828.5 1848.5 c 128,-1,58
 822 1842 822 1842 814.5 1834.5 c 128,-1,59
 807 1827 807 1827 795 1815.5 c 128,-1,60
 783 1804 783 1804 770 1791 c 128,-1,61
 757 1778 757 1778 737.5 1759 c 128,-1,62
 718 1740 718 1740 698 1720 c 1,63,64
 664 1683 664 1683 594 1683 c 0,44,45
EndSplineSet
Position2: "'cpsp' Capital Spacing lookup 3 subtable" dx=10 dy=0 dh=20 dv=0
EndChar

StartChar: Atilde
Encoding: 195 195 23
Width: 1255
Flags: MW
HStem: -4 43G<82 113 113 123 1106 1126 1126 1143> 365 156<379 868 379 924 322 868> 1249 188<625 625 625 629> 1397 41G<598 657 657 678> 1561 131<745 781> 1622 131<478 515>
VStem: 25 1206<20 35 20 35>
LayerCount: 2
Fore
SplineSet
885 1739 m 1,0,1
 898 1749 898 1749 915 1749 c 0,2,3
 936 1749 936 1749 954 1731 c 1,4,5
 973 1709 973 1709 973 1688 c 0,6,7
 973 1665 973 1665 950 1645 c 1,8,9
 836 1561 836 1561 739 1561 c 0,10,11
 660 1561 660 1561 590 1593 c 0,12,13
 585 1596 585 1596 574 1601 c 128,-1,14
 563 1606 563 1606 558.5 1608 c 128,-1,15
 554 1610 554 1610 545 1613.5 c 128,-1,16
 536 1617 536 1617 529.5 1618.5 c 128,-1,17
 523 1620 523 1620 514 1621 c 128,-1,18
 505 1622 505 1622 496 1622 c 0,19,20
 444 1622 444 1622 383 1583 c 1,21,22
 359 1569 359 1569 344 1569 c 0,23,24
 321 1569 321 1569 299 1597 c 0,25,26
 285 1614 285 1614 285 1632 c 0,27,28
 285 1653 285 1653 307 1671 c 1,29,30
 425 1753 425 1753 520 1753 c 0,31,32
 538 1753 538 1753 555 1751 c 128,-1,33
 572 1749 572 1749 583 1747 c 128,-1,34
 594 1745 594 1745 608.5 1739.5 c 128,-1,35
 623 1734 623 1734 628.5 1731.5 c 128,-1,36
 634 1729 634 1729 648 1722 c 128,-1,37
 662 1715 662 1715 664 1714 c 0,38,39
 710 1692 710 1692 766 1692 c 0,40,41
 815 1692 815 1692 885 1739 c 1,0,1
657 1438 m 2,42,43
 728 1438 728 1438 739 1405 c 2,44,-1
 1225 57 l 2,45,46
 1231 42 1231 42 1231 31 c 0,47,48
 1231 -4 1231 -4 1143 -4 c 2,49,-1
 1126 -4 l 2,50,51
 1055 -4 1055 -4 1044 29 c 2,52,-1
 924 365 l 1,53,-1
 322 365 l 1,54,-1
 205 29 l 2,55,56
 194 -4 194 -4 123 -4 c 2,57,-1
 113 -4 l 2,58,59
 25 -4 25 -4 25 31 c 0,60,61
 25 41 25 41 31 59 c 2,62,-1
 516 1405 l 2,63,64
 527 1438 527 1438 598 1438 c 2,65,-1
 657 1438 l 2,42,43
625 1249 m 1,66,67
 609 1173 609 1173 594 1130 c 2,68,-1
 379 520 l 1,69,-1
 868 520 l 1,70,-1
 653 1130 l 2,71,72
 642 1163 642 1163 629 1249 c 1,73,-1
 625 1249 l 1,66,67
EndSplineSet
Position2: "'cpsp' Capital Spacing lookup 3 subtable" dx=10 dy=0 dh=20 dv=0
EndChar

StartChar: AE
Encoding: 198 198 24
Width: 1873
Flags: MW
HStem: 0 156<1035 1645 1145 1645 1145 1645> 365 154<393 883 393 918 313 883> 655 156<1036 1581 1036 1036> 1278 156<901 1642 901 901>
VStem: -23 1708<19 61>
LayerCount: 2
Fore
SplineSet
1642 1434 m 2,0,1
 1683 1434 1683 1434 1683 1372 c 2,2,-1
 1683 1339 l 2,3,4
 1683 1278 1683 1278 1642 1278 c 2,5,-1
 901 1278 l 1,6,-1
 1004 811 l 1,7,-1
 1581 811 l 2,8,9
 1622 811 1622 811 1622 750 c 2,10,-1
 1622 717 l 2,11,12
 1622 655 1622 655 1581 655 c 2,13,-1
 1036 655 l 1,14,-1
 1145 156 l 1,15,-1
 1645 156 l 2,16,17
 1686 156 1686 156 1686 94 c 2,18,-1
 1686 61 l 2,19,20
 1686 0 1686 0 1645 0 c 2,21,-1
 1057 0 l 2,22,23
 995 0 995 0 983 59 c 2,24,-1
 918 365 l 1,25,-1
 313 365 l 1,26,-1
 150 29 l 2,27,28
 133 -4 133 -4 68 -4 c 2,29,-1
 57 -4 l 2,30,31
 -23 -4 -23 -4 -23 31 c 0,32,33
 -23 45 -23 45 -14 63 c 2,34,-1
 643 1378 l 1,35,36
 669 1434 669 1434 731 1434 c 2,37,-1
 1642 1434 l 2,0,1
739 1249 m 1,38,-1
 696 1130 l 1,39,-1
 393 518 l 1,40,-1
 883 518 l 1,41,-1
 752 1130 l 1,42,-1
 743 1249 l 1,43,-1
 739 1249 l 1,38,-1
EndSplineSet
Position2: "'cpsp' Capital Spacing lookup 3 subtable" dx=10 dy=0 dh=20 dv=0
EndChar

StartChar: AEacute
Encoding: 508 508 25
Width: 1873
Flags: MW
HStem: 0 156<1035 1645 1145 1645 1145 1645> 365 154<393 883 393 918 313 883> 655 156<1036 1581 1036 1036> 1278 156<901 1642 901 901>
VStem: -23 1708<19 61>
LayerCount: 2
Fore
SplineSet
1102 1862 m 0,0,1
 1200 1862 1200 1862 1200 1835 c 0,2,3
 1200 1821 1200 1821 1183 1799 c 128,-1,4
 1166 1777 1166 1777 1084.07868695 1683.8672606 c 0,5,6
 1038 1631 1038 1631 1008 1597 c 0,7,8
 975 1561 975 1561 903 1561 c 0,9,10
 856 1561 856 1561 856 1581 c 0,11,12
 856 1595 856 1595 876.5 1633.5 c 128,-1,13
 897 1672 897 1672 975 1808 c 0,14,15
 1007 1862 1007 1862 1102 1862 c 0,0,1
1642 1434 m 2,16,17
 1683 1434 1683 1434 1683 1372 c 2,18,-1
 1683 1339 l 2,19,20
 1683 1278 1683 1278 1642 1278 c 2,21,-1
 901 1278 l 1,22,-1
 1004 811 l 1,23,-1
 1581 811 l 2,24,25
 1622 811 1622 811 1622 750 c 2,26,-1
 1622 717 l 2,27,28
 1622 655 1622 655 1581 655 c 2,29,-1
 1036 655 l 1,30,-1
 1145 156 l 1,31,-1
 1645 156 l 2,32,33
 1686 156 1686 156 1686 94 c 2,34,-1
 1686 61 l 2,35,36
 1686 0 1686 0 1645 0 c 2,37,-1
 1057 0 l 2,38,39
 995 0 995 0 983 59 c 2,40,-1
 918 365 l 1,41,-1
 313 365 l 1,42,-1
 150 29 l 2,43,44
 133 -4 133 -4 68 -4 c 2,45,-1
 57 -4 l 2,46,47
 -23 -4 -23 -4 -23 31 c 0,48,49
 -23 45 -23 45 -14 63 c 2,50,-1
 643 1378 l 1,51,52
 669 1434 669 1434 731 1434 c 2,53,-1
 1642 1434 l 2,16,17
696 1130 m 1,54,-1
 393 518 l 1,55,-1
 883 518 l 1,56,-1
 752 1130 l 1,57,-1
 743 1249 l 1,58,-1
 739 1249 l 1,59,-1
 696 1130 l 1,54,-1
EndSplineSet
Position2: "'cpsp' Capital Spacing lookup 3 subtable" dx=10 dy=0 dh=20 dv=0
EndChar

StartChar: B
Encoding: 66 66 26
Width: 1214
Flags: MW
HStem: 0 156<239 678 379 612> 659 156<379 616 379 616 616 643> 1278 156<379 379 379 608>
VStem: 199 180<156 659 815 1278> 899 186<1002 1130> 961 186<339 495>
LayerCount: 2
Fore
SplineSet
627 1434 m 2,0,1
 850 1434 850 1434 967.5 1335.5 c 128,-1,2
 1085 1237 1085 1237 1085 1071 c 0,3,4
 1085 969 1085 969 1017.5 877 c 128,-1,5
 950 785 950 785 860 760 c 1,6,-1
 860 752 l 1,7,8
 872 749 872 749 891 742.5 c 128,-1,9
 910 736 910 736 959.5 709.5 c 128,-1,10
 1009 683 1009 683 1047 648.5 c 128,-1,11
 1085 614 1085 614 1116 551 c 128,-1,12
 1147 488 1147 488 1147 412 c 0,13,14
 1147 0 1147 0 612 0 c 2,15,-1
 260 0 l 2,16,17
 228 0 228 0 213.5 14.5 c 128,-1,18
 199 29 199 29 199 61 c 2,19,-1
 199 1372 l 2,20,21
 199 1404 199 1404 213.5 1419 c 128,-1,22
 228 1434 228 1434 260 1434 c 2,23,-1
 627 1434 l 2,0,1
379 1278 m 1,24,-1
 379 815 l 1,25,-1
 616 815 l 2,26,27
 739 815 739 815 819 884.5 c 128,-1,28
 899 954 899 954 899 1055 c 0,29,30
 899 1170 899 1170 829.5 1224 c 128,-1,31
 760 1278 760 1278 608 1278 c 2,32,-1
 379 1278 l 1,24,-1
379 659 m 1,33,-1
 379 156 l 1,34,-1
 678 156 l 2,35,36
 813 156 813 156 887 226.5 c 128,-1,37
 961 297 961 297 961 420 c 0,38,39
 961 534 961 534 880 596.5 c 128,-1,40
 799 659 799 659 643 659 c 2,41,-1
 379 659 l 1,33,-1
EndSplineSet
Position2: "'cpsp' Capital Spacing lookup 3 subtable" dx=10 dy=0 dh=20 dv=0
EndChar

StartChar: C
Encoding: 67 67 27
Width: 1267
Flags: MW
HStem: -12 156<615 882 615 896> 1290 156<621 882 561 883>
VStem: 117 186<518 916 518 962>
LayerCount: 2
Fore
SplineSet
780 1446 m 0,0,1
 927 1446 927 1446 1049 1404 c 128,-1,2
 1171 1362 1171 1362 1171 1319 c 0,3,4
 1171 1291 1171 1291 1146 1245.5 c 128,-1,5
 1121 1200 1121 1200 1102 1200 c 0,6,7
 1096 1200 1096 1200 1069.5 1214 c 128,-1,8
 1043 1228 1043 1228 1008.5 1245 c 128,-1,9
 974 1262 974 1262 912.5 1276 c 128,-1,10
 851 1290 851 1290 784 1290 c 0,11,12
 536 1290 536 1290 419.5 1152.5 c 128,-1,13
 303 1015 303 1015 303 715 c 0,14,15
 303 421 303 421 418.5 282 c 128,-1,16
 534 143 534 143 776 143 c 0,17,18
 848 143 848 143 915.5 159 c 128,-1,19
 983 175 983 175 1021.5 194.5 c 128,-1,20
 1060 214 1060 214 1090.5 230 c 128,-1,21
 1121 246 1121 246 1128 246 c 0,22,23
 1147 246 1147 246 1173.5 201 c 128,-1,24
 1200 156 1200 156 1200 135 c 128,-1,25
 1200 114 1200 114 1167 88.5 c 128,-1,26
 1134 63 1134 63 1079 40.5 c 128,-1,27
 1024 18 1024 18 943 3 c 128,-1,28
 862 -12 862 -12 776 -12 c 0,29,30
 439 -12 439 -12 278 165.5 c 128,-1,31
 117 343 117 343 117 717 c 0,32,33
 117 1446 117 1446 780 1446 c 0,0,1
EndSplineSet
Position2: "'cpsp' Capital Spacing lookup 3 subtable" dx=10 dy=0 dh=20 dv=0
EndChar

StartChar: Cacute
Encoding: 262 262 28
Width: 1267
Flags: MW
HStem: -12 156<615 882 615 896> 1290 156<621 882 561 883>
VStem: 117 186<518 916 518 962>
LayerCount: 2
Fore
SplineSet
891 1862 m 0,0,1
 989 1862 989 1862 989 1835 c 0,2,3
 989 1821 989 1821 972 1799 c 128,-1,4
 955 1777 955 1777 873.078686952 1683.8672606 c 0,5,6
 827 1631 827 1631 797 1597 c 0,7,8
 764 1561 764 1561 692 1561 c 0,9,10
 645 1561 645 1561 645 1581 c 0,11,12
 645 1595 645 1595 665.5 1633.5 c 128,-1,13
 686 1672 686 1672 764 1808 c 0,14,15
 796 1862 796 1862 891 1862 c 0,0,1
780 1446 m 0,16,17
 927 1446 927 1446 1049 1404 c 128,-1,18
 1171 1362 1171 1362 1171 1319 c 0,19,20
 1171 1291 1171 1291 1146 1245.5 c 128,-1,21
 1121 1200 1121 1200 1102 1200 c 0,22,23
 1096 1200 1096 1200 1069.5 1214 c 128,-1,24
 1043 1228 1043 1228 1008.5 1245 c 128,-1,25
 974 1262 974 1262 912.5 1276 c 128,-1,26
 851 1290 851 1290 784 1290 c 0,27,28
 536 1290 536 1290 419.5 1152.5 c 128,-1,29
 303 1015 303 1015 303 715 c 0,30,31
 303 421 303 421 418.5 282 c 128,-1,32
 534 143 534 143 776 143 c 0,33,34
 848 143 848 143 915.5 159 c 128,-1,35
 983 175 983 175 1021.5 194.5 c 128,-1,36
 1060 214 1060 214 1090.5 230 c 128,-1,37
 1121 246 1121 246 1128 246 c 0,38,39
 1147 246 1147 246 1173.5 201 c 128,-1,40
 1200 156 1200 156 1200 135 c 128,-1,41
 1200 114 1200 114 1167 88.5 c 128,-1,42
 1134 63 1134 63 1079 40.5 c 128,-1,43
 1024 18 1024 18 943 3 c 128,-1,44
 862 -12 862 -12 776 -12 c 0,45,46
 439 -12 439 -12 278 165.5 c 128,-1,47
 117 343 117 343 117 717 c 0,48,49
 117 1446 117 1446 780 1446 c 0,16,17
EndSplineSet
Substitution2: "'locl' Localized Forms in Latin lookup 12 subtable" Cacute.loclPLK
Substitution2: "'aalt' Access All Alternates lookup 0 subtable" Cacute.loclPLK
Position2: "'cpsp' Capital Spacing lookup 3 subtable" dx=10 dy=0 dh=20 dv=0
EndChar

StartChar: Ccaron
Encoding: 268 268 29
Width: 1267
Flags: MW
HStem: -12 156<615 882 615 896> 1290 156<621 882 561 883> 1554 291<526 700 526 752>
VStem: 117 186<518 916 518 962>
LayerCount: 2
Fore
SplineSet
926 1845 m 2,0,1
 975 1845 975 1845 975 1815 c 0,2,3
 975 1798 975 1798 963 1780 c 2,4,-1
 846 1599 l 2,5,6
 817 1554 817 1554 752 1554 c 2,7,-1
 700 1554 l 2,8,9
 635 1554 635 1554 606 1599 c 2,10,-1
 492 1780 l 1,11,12
 479 1803 479 1803 479 1817 c 0,13,14
 479 1845 479 1845 526 1845 c 2,15,-1
 530 1845 l 2,16,17
 571 1845 571 1845 600 1819 c 1,18,-1
 725 1667 l 1,19,-1
 854 1819 l 1,20,21
 883 1845 883 1845 922 1845 c 2,22,-1
 926 1845 l 2,0,1
780 1446 m 0,23,24
 927 1446 927 1446 1049 1404 c 128,-1,25
 1171 1362 1171 1362 1171 1319 c 0,26,27
 1171 1291 1171 1291 1146 1245.5 c 128,-1,28
 1121 1200 1121 1200 1102 1200 c 0,29,30
 1096 1200 1096 1200 1069.5 1214 c 128,-1,31
 1043 1228 1043 1228 1008.5 1245 c 128,-1,32
 974 1262 974 1262 912.5 1276 c 128,-1,33
 851 1290 851 1290 784 1290 c 0,34,35
 536 1290 536 1290 419.5 1152.5 c 128,-1,36
 303 1015 303 1015 303 715 c 0,37,38
 303 421 303 421 418.5 282 c 128,-1,39
 534 143 534 143 776 143 c 0,40,41
 848 143 848 143 915.5 159 c 128,-1,42
 983 175 983 175 1021.5 194.5 c 128,-1,43
 1060 214 1060 214 1090.5 230 c 128,-1,44
 1121 246 1121 246 1128 246 c 0,45,46
 1147 246 1147 246 1173.5 201 c 128,-1,47
 1200 156 1200 156 1200 135 c 128,-1,48
 1200 114 1200 114 1167 88.5 c 128,-1,49
 1134 63 1134 63 1079 40.5 c 128,-1,50
 1024 18 1024 18 943 3 c 128,-1,51
 862 -12 862 -12 776 -12 c 0,52,53
 439 -12 439 -12 278 165.5 c 128,-1,54
 117 343 117 343 117 717 c 0,55,56
 117 1446 117 1446 780 1446 c 0,23,24
EndSplineSet
Position2: "'cpsp' Capital Spacing lookup 3 subtable" dx=10 dy=0 dh=20 dv=0
EndChar

StartChar: Ccedilla
Encoding: 199 199 30
Width: 1267
Flags: MW
HStem: -430 100<660 705 641 758> -12 156<784 784> -10 154 1290 156<621 882 561 883>
VStem: 117 186<518 916 518 962> 797 145<-290 -212>
LayerCount: 2
Fore
SplineSet
768 -100 m 2,0,1
 791 -100 791 -100 815.5 -105 c 128,-1,2
 840 -110 840 -110 871 -123.5 c 128,-1,3
 902 -137 902 -137 922 -169.5 c 128,-1,4
 942 -202 942 -202 942 -248 c 0,5,6
 942 -430 942 -430 707 -430 c 0,7,8
 628 -430 628 -430 549.5 -405 c 128,-1,9
 471 -380 471 -380 471 -342 c 0,10,11
 471 -289 471 -289 510 -289 c 0,12,13
 521 -289 521 -289 578 -309.5 c 128,-1,14
 635 -330 635 -330 680 -330 c 0,15,16
 797 -330 797 -330 797 -258 c 0,17,18
 797 -227 797 -227 776 -208.5 c 128,-1,19
 755 -190 755 -190 729.5 -184.5 c 128,-1,20
 704 -179 704 -179 683 -168 c 128,-1,21
 662 -157 662 -157 662 -139 c 0,22,23
 662 -117 662 -117 696 -10 c 1,24,25
 401 10 401 10 259 188 c 128,-1,26
 117 366 117 366 117 717 c 0,27,28
 117 1446 117 1446 780 1446 c 0,29,30
 927 1446 927 1446 1049 1404 c 128,-1,31
 1171 1362 1171 1362 1171 1319 c 0,32,33
 1171 1291 1171 1291 1146 1245.5 c 128,-1,34
 1121 1200 1121 1200 1102 1200 c 0,35,36
 1096 1200 1096 1200 1069.5 1214 c 128,-1,37
 1043 1228 1043 1228 1008.5 1245 c 128,-1,38
 974 1262 974 1262 912.5 1276 c 128,-1,39
 851 1290 851 1290 784 1290 c 0,40,41
 536 1290 536 1290 419.5 1152.5 c 128,-1,42
 303 1015 303 1015 303 715 c 0,43,44
 303 421 303 421 418.5 282 c 128,-1,45
 534 143 534 143 776 143 c 0,46,47
 848 143 848 143 915.5 159 c 128,-1,48
 983 175 983 175 1021.5 194.5 c 128,-1,49
 1060 214 1060 214 1090.5 230 c 128,-1,50
 1121 246 1121 246 1128 246 c 0,51,52
 1147 246 1147 246 1173.5 201 c 128,-1,53
 1200 156 1200 156 1200 135 c 0,54,55
 1200 107 1200 107 1147 73.5 c 128,-1,56
 1094 40 1094 40 994.5 14.5 c 128,-1,57
 895 -11 895 -11 784 -12 c 1,58,-1
 760 -100 l 1,59,-1
 768 -100 l 2,0,1
EndSplineSet
Position2: "'cpsp' Capital Spacing lookup 3 subtable" dx=10 dy=0 dh=20 dv=0
EndChar

StartChar: Ccircumflex
Encoding: 264 264 31
Width: 1267
Flags: MW
HStem: -12 156<615 882 615 896> 1290 156<621 882 561 883> 1542 291<511 752 526 752 700 922 700 926>
VStem: 117 186<518 916 518 962>
LayerCount: 2
Fore
SplineSet
752 1833 m 2,0,1
 817 1833 817 1833 846 1788 c 2,2,-1
 963 1608 l 2,3,4
 975 1590 975 1590 975 1573 c 0,5,6
 975 1542 975 1542 926 1542 c 2,7,-1
 922 1542 l 2,8,9
 884 1542 884 1542 854 1569 c 1,10,-1
 725 1720 l 1,11,-1
 600 1569 l 1,12,13
 570 1542 570 1542 530 1542 c 2,14,-1
 526 1542 l 2,15,16
 479 1542 479 1542 479 1571 c 0,17,18
 479 1585 479 1585 492 1608 c 1,19,-1
 606 1788 l 2,20,21
 635 1833 635 1833 700 1833 c 2,22,-1
 752 1833 l 2,0,1
780 1446 m 0,23,24
 927 1446 927 1446 1049 1404 c 128,-1,25
 1171 1362 1171 1362 1171 1319 c 0,26,27
 1171 1291 1171 1291 1146 1245.5 c 128,-1,28
 1121 1200 1121 1200 1102 1200 c 0,29,30
 1096 1200 1096 1200 1069.5 1214 c 128,-1,31
 1043 1228 1043 1228 1008.5 1245 c 128,-1,32
 974 1262 974 1262 912.5 1276 c 128,-1,33
 851 1290 851 1290 784 1290 c 0,34,35
 536 1290 536 1290 419.5 1152.5 c 128,-1,36
 303 1015 303 1015 303 715 c 0,37,38
 303 421 303 421 418.5 282 c 128,-1,39
 534 143 534 143 776 143 c 0,40,41
 848 143 848 143 915.5 159 c 128,-1,42
 983 175 983 175 1021.5 194.5 c 128,-1,43
 1060 214 1060 214 1090.5 230 c 128,-1,44
 1121 246 1121 246 1128 246 c 0,45,46
 1147 246 1147 246 1173.5 201 c 128,-1,47
 1200 156 1200 156 1200 135 c 128,-1,48
 1200 114 1200 114 1167 88.5 c 128,-1,49
 1134 63 1134 63 1079 40.5 c 128,-1,50
 1024 18 1024 18 943 3 c 128,-1,51
 862 -12 862 -12 776 -12 c 0,52,53
 439 -12 439 -12 278 165.5 c 128,-1,54
 117 343 117 343 117 717 c 0,55,56
 117 1446 117 1446 780 1446 c 0,23,24
EndSplineSet
Position2: "'cpsp' Capital Spacing lookup 3 subtable" dx=10 dy=0 dh=20 dv=0
EndChar

StartChar: Cdotaccent
Encoding: 266 266 32
Width: 1267
Flags: MW
HStem: -12 156<615 882 615 896> 1290 156<621 882 561 883> 1606 195<698 756>
VStem: 117 186<518 916 518 962> 641 172<1651 1755 1637 1768>
LayerCount: 2
Fore
SplineSet
641 1755 m 2,0,1
 641 1800 641 1800 731 1800 c 0,2,3
 813 1800 813 1800 813 1755 c 2,4,-1
 813 1651 l 2,5,6
 813 1606 813 1606 723 1606 c 0,7,8
 641 1606 641 1606 641 1651 c 2,9,-1
 641 1755 l 2,0,1
780 1446 m 0,10,11
 927 1446 927 1446 1049 1404 c 128,-1,12
 1171 1362 1171 1362 1171 1319 c 0,13,14
 1171 1291 1171 1291 1146 1245.5 c 128,-1,15
 1121 1200 1121 1200 1102 1200 c 0,16,17
 1096 1200 1096 1200 1069.5 1214 c 128,-1,18
 1043 1228 1043 1228 1008.5 1245 c 128,-1,19
 974 1262 974 1262 912.5 1276 c 128,-1,20
 851 1290 851 1290 784 1290 c 0,21,22
 536 1290 536 1290 419.5 1152.5 c 128,-1,23
 303 1015 303 1015 303 715 c 0,24,25
 303 421 303 421 418.5 282 c 128,-1,26
 534 143 534 143 776 143 c 0,27,28
 848 143 848 143 915.5 159 c 128,-1,29
 983 175 983 175 1021.5 194.5 c 128,-1,30
 1060 214 1060 214 1090.5 230 c 128,-1,31
 1121 246 1121 246 1128 246 c 0,32,33
 1147 246 1147 246 1173.5 201 c 128,-1,34
 1200 156 1200 156 1200 135 c 128,-1,35
 1200 114 1200 114 1167 88.5 c 128,-1,36
 1134 63 1134 63 1079 40.5 c 128,-1,37
 1024 18 1024 18 943 3 c 128,-1,38
 862 -12 862 -12 776 -12 c 0,39,40
 439 -12 439 -12 278 165.5 c 128,-1,41
 117 343 117 343 117 717 c 0,42,43
 117 1446 117 1446 780 1446 c 0,10,11
EndSplineSet
Position2: "'cpsp' Capital Spacing lookup 3 subtable" dx=10 dy=0 dh=20 dv=0
EndChar

StartChar: D
Encoding: 68 68 33
Width: 1423
Flags: MW
HStem: 0 156<239 659 379 659 659 674> 1278 156<379 379 379 659>
VStem: 199 180<156 1278 156 1372 156 1394> 1120 186<512 921>
LayerCount: 2
Fore
SplineSet
674 1434 m 2,0,1
 783 1434 783 1434 875.5 1410.5 c 128,-1,2
 968 1387 968 1387 1048.5 1333.5 c 128,-1,3
 1129 1280 1129 1280 1185.5 1198.5 c 128,-1,4
 1242 1117 1242 1117 1274.5 994.5 c 128,-1,5
 1307 872 1307 872 1307 717 c 0,6,7
 1307 524 1307 524 1258.5 382 c 128,-1,8
 1210 240 1210 240 1121.5 158 c 128,-1,9
 1033 76 1033 76 922 38 c 128,-1,10
 811 0 811 0 674 0 c 2,11,-1
 260 0 l 2,12,13
 228 0 228 0 213.5 14.5 c 128,-1,14
 199 29 199 29 199 61 c 2,15,-1
 199 1372 l 2,16,17
 199 1404 199 1404 213.5 1419 c 128,-1,18
 228 1434 228 1434 260 1434 c 2,19,-1
 674 1434 l 2,0,1
379 1278 m 1,20,-1
 379 156 l 1,21,-1
 659 156 l 2,22,23
 758 156 758 156 839.5 187 c 128,-1,24
 921 218 921 218 985 282 c 128,-1,25
 1049 346 1049 346 1084.5 457 c 128,-1,26
 1120 568 1120 568 1120 717 c 0,27,28
 1120 865 1120 865 1084.5 976 c 128,-1,29
 1049 1087 1049 1087 985 1151.5 c 128,-1,30
 921 1216 921 1216 839.5 1247 c 128,-1,31
 758 1278 758 1278 659 1278 c 2,32,-1
 379 1278 l 1,20,-1
EndSplineSet
Position2: "'cpsp' Capital Spacing lookup 3 subtable" dx=10 dy=0 dh=20 dv=0
EndChar

StartChar: DZ
Encoding: 497 497 34
Width: 2684
Flags: MW
HStem: 0 156<239 659 379 659 659 674 1747 2548> 1278 156<379 659 379 379 1610 2347>
VStem: 199 180<156 156 156 1278> 1120 186<512 921>
LayerCount: 2
Fore
SplineSet
674 1434 m 2,0,1
 783 1434 783 1434 875.5 1410.5 c 128,-1,2
 968 1387 968 1387 1048.5 1333.5 c 128,-1,3
 1129 1280 1129 1280 1185.5 1198.5 c 128,-1,4
 1242 1117 1242 1117 1274.5 994.5 c 128,-1,5
 1307 872 1307 872 1307 717 c 0,6,7
 1307 524 1307 524 1258.5 382 c 128,-1,8
 1210 240 1210 240 1121.5 158 c 128,-1,9
 1033 76 1033 76 922 38 c 128,-1,10
 811 0 811 0 674 0 c 2,11,-1
 260 0 l 2,12,13
 228 0 228 0 213.5 14.5 c 128,-1,14
 199 29 199 29 199 61 c 2,15,-1
 199 1372 l 2,16,17
 199 1404 199 1404 213.5 1419 c 128,-1,18
 228 1434 228 1434 260 1434 c 2,19,-1
 674 1434 l 2,0,1
2548 1434 m 2,20,21
 2559 1434 2559 1434 2576 1395 c 128,-1,22
 2593 1356 2593 1356 2593 1325 c 0,23,24
 2593 1309 2593 1309 2587 1300 c 2,25,-1
 1747 156 l 1,26,-1
 2548 156 l 2,27,28
 2589 156 2589 156 2589 86 c 2,29,-1
 2589 70 l 2,30,31
 2589 0 2589 0 2548 0 c 2,32,-1
 1550 0 l 2,33,34
 1535 0 1535 0 1518 39 c 128,-1,35
 1501 78 1501 78 1501 109 c 0,36,37
 1501 124 1501 124 1507 133 c 2,38,-1
 2347 1278 l 1,39,-1
 1610 1278 l 2,40,41
 1569 1278 1569 1278 1569 1348 c 2,42,-1
 1569 1364 l 2,43,44
 1569 1434 1569 1434 1610 1434 c 2,45,-1
 2548 1434 l 2,20,21
379 156 m 1,46,-1
 659 156 l 2,47,48
 758 156 758 156 839.5 187 c 128,-1,49
 921 218 921 218 985 282 c 128,-1,50
 1049 346 1049 346 1084.5 457 c 128,-1,51
 1120 568 1120 568 1120 717 c 0,52,53
 1120 865 1120 865 1084.5 976 c 128,-1,54
 1049 1087 1049 1087 985 1151.5 c 128,-1,55
 921 1216 921 1216 839.5 1247 c 128,-1,56
 758 1278 758 1278 659 1278 c 2,57,-1
 379 1278 l 1,58,-1
 379 156 l 1,46,-1
EndSplineSet
Position2: "'cpsp' Capital Spacing lookup 3 subtable" dx=10 dy=0 dh=20 dv=0
EndChar

StartChar: DZcaron
Encoding: 452 452 35
Width: 2684
Flags: MW
HStem: 0 156<239 659 379 659 659 674 1747 2548> 1278 156<379 659 379 379 1610 2347> 1554 291<1853 2028 1853 2079>
VStem: 199 180<156 156 156 1278> 1120 186<512 921>
LayerCount: 2
Fore
SplineSet
674 1434 m 2,0,1
 783 1434 783 1434 875.5 1410.5 c 128,-1,2
 968 1387 968 1387 1048.5 1333.5 c 128,-1,3
 1129 1280 1129 1280 1185.5 1198.5 c 128,-1,4
 1242 1117 1242 1117 1274.5 994.5 c 128,-1,5
 1307 872 1307 872 1307 717 c 0,6,7
 1307 524 1307 524 1258.5 382 c 128,-1,8
 1210 240 1210 240 1121.5 158 c 128,-1,9
 1033 76 1033 76 922 38 c 128,-1,10
 811 0 811 0 674 0 c 2,11,-1
 260 0 l 2,12,13
 228 0 228 0 213.5 14.5 c 128,-1,14
 199 29 199 29 199 61 c 2,15,-1
 199 1372 l 2,16,17
 199 1404 199 1404 213.5 1419 c 128,-1,18
 228 1434 228 1434 260 1434 c 2,19,-1
 674 1434 l 2,0,1
379 156 m 1,20,-1
 659 156 l 2,21,22
 758 156 758 156 839.5 187 c 128,-1,23
 921 218 921 218 985 282 c 128,-1,24
 1049 346 1049 346 1084.5 457 c 128,-1,25
 1120 568 1120 568 1120 717 c 0,26,27
 1120 865 1120 865 1084.5 976 c 128,-1,28
 1049 1087 1049 1087 985 1151.5 c 128,-1,29
 921 1216 921 1216 839.5 1247 c 128,-1,30
 758 1278 758 1278 659 1278 c 2,31,-1
 379 1278 l 1,32,-1
 379 156 l 1,20,-1
2253 1845 m 2,33,34
 2302 1845 2302 1845 2302 1815 c 0,35,36
 2302 1798 2302 1798 2290 1780 c 2,37,-1
 2173 1599 l 2,38,39
 2144 1554 2144 1554 2079 1554 c 2,40,-1
 2028 1554 l 2,41,42
 1962 1554 1962 1554 1933 1599 c 2,43,-1
 1819 1780 l 1,44,45
 1806 1803 1806 1803 1806 1817 c 0,46,47
 1806 1845 1806 1845 1853 1845 c 2,48,-1
 1858 1845 l 2,49,50
 1898 1845 1898 1845 1927 1819 c 1,51,-1
 2052 1667 l 1,52,-1
 2181 1819 l 1,53,54
 2210 1845 2210 1845 2249 1845 c 2,55,-1
 2253 1845 l 2,33,34
2548 1434 m 2,56,57
 2559 1434 2559 1434 2576 1395 c 128,-1,58
 2593 1356 2593 1356 2593 1325 c 0,59,60
 2593 1309 2593 1309 2587 1300 c 2,61,-1
 1747 156 l 1,62,-1
 2548 156 l 2,63,64
 2589 156 2589 156 2589 86 c 2,65,-1
 2589 70 l 2,66,67
 2589 0 2589 0 2548 0 c 2,68,-1
 1550 0 l 2,69,70
 1535 0 1535 0 1518 39 c 128,-1,71
 1501 78 1501 78 1501 109 c 0,72,73
 1501 124 1501 124 1507 133 c 2,74,-1
 2347 1278 l 1,75,-1
 1610 1278 l 2,76,77
 1569 1278 1569 1278 1569 1348 c 2,78,-1
 1569 1364 l 2,79,80
 1569 1434 1569 1434 1610 1434 c 2,81,-1
 2548 1434 l 2,56,57
EndSplineSet
Position2: "'cpsp' Capital Spacing lookup 3 subtable" dx=10 dy=0 dh=20 dv=0
EndChar

StartChar: Eth
Encoding: 208 208 36
Width: 1425
Flags: MW
HStem: 0 156<214 662 354 662 662 676> 655 156<27 174 41 174 354 580> 1278 156<354 354 354 662>
VStem: 174 180<156 655 156 655 156 655 811 1278> 1126 186<512 921>
LayerCount: 2
Fore
SplineSet
676 1434 m 2,0,1
 785 1434 785 1434 878 1410.5 c 128,-1,2
 971 1387 971 1387 1052 1333.5 c 128,-1,3
 1133 1280 1133 1280 1190 1198.5 c 128,-1,4
 1247 1117 1247 1117 1280 994.5 c 128,-1,5
 1313 872 1313 872 1313 717 c 0,6,7
 1313 561 1313 561 1280 438.5 c 128,-1,8
 1247 316 1247 316 1190 234.5 c 128,-1,9
 1133 153 1133 153 1051.5 99.5 c 128,-1,10
 970 46 970 46 877.5 23 c 128,-1,11
 785 0 785 0 676 0 c 2,12,-1
 236 0 l 2,13,14
 204 0 204 0 189 14.5 c 128,-1,15
 174 29 174 29 174 61 c 2,16,-1
 174 655 l 1,17,-1
 41 655 l 2,18,19
 0 655 0 655 0 717 c 2,20,-1
 0 750 l 2,21,22
 0 811 0 811 41 811 c 2,23,-1
 174 811 l 1,24,-1
 174 1372 l 2,25,26
 174 1434 174 1434 236 1434 c 2,27,-1
 676 1434 l 2,0,1
354 1278 m 1,28,-1
 354 811 l 1,29,-1
 580 811 l 2,30,31
 621 811 621 811 621 750 c 2,32,-1
 621 717 l 2,33,34
 621 655 621 655 580 655 c 2,35,-1
 354 655 l 1,36,-1
 354 156 l 1,37,-1
 662 156 l 2,38,39
 762 156 762 156 843.5 187 c 128,-1,40
 925 218 925 218 989.5 282 c 128,-1,41
 1054 346 1054 346 1090 457 c 128,-1,42
 1126 568 1126 568 1126 717 c 0,43,44
 1126 865 1126 865 1090 976 c 128,-1,45
 1054 1087 1054 1087 989.5 1151.5 c 128,-1,46
 925 1216 925 1216 843 1247 c 128,-1,47
 761 1278 761 1278 662 1278 c 2,48,-1
 354 1278 l 1,28,-1
EndSplineSet
Position2: "'cpsp' Capital Spacing lookup 3 subtable" dx=10 dy=0 dh=20 dv=0
EndChar

StartChar: Dcaron
Encoding: 270 270 37
Width: 1423
Flags: MW
HStem: 0 156<239 659 379 659 659 674> 1278 156<379 659 379 379> 1554 291<438 612 438 664>
VStem: 199 180<156 156 156 1278> 1120 186<512 921>
LayerCount: 2
Fore
SplineSet
838 1845 m 2,0,1
 887 1845 887 1845 887 1815 c 0,2,3
 887 1799 887 1799 874 1780 c 2,4,-1
 758 1599 l 2,5,6
 729 1554 729 1554 664 1554 c 2,7,-1
 612 1554 l 2,8,9
 547 1554 547 1554 518 1599 c 2,10,-1
 403 1780 l 1,11,12
 391 1801 391 1801 391 1817 c 0,13,14
 391 1845 391 1845 438 1845 c 2,15,-1
 442 1845 l 2,16,17
 483 1845 483 1845 512 1819 c 1,18,-1
 637 1667 l 1,19,-1
 766 1819 l 1,20,21
 795 1845 795 1845 834 1845 c 2,22,-1
 838 1845 l 2,0,1
674 1434 m 2,23,24
 783 1434 783 1434 875.5 1410.5 c 128,-1,25
 968 1387 968 1387 1048.5 1333.5 c 128,-1,26
 1129 1280 1129 1280 1185.5 1198.5 c 128,-1,27
 1242 1117 1242 1117 1274.5 994.5 c 128,-1,28
 1307 872 1307 872 1307 717 c 0,29,30
 1307 524 1307 524 1258.5 382 c 128,-1,31
 1210 240 1210 240 1121.5 158 c 128,-1,32
 1033 76 1033 76 922 38 c 128,-1,33
 811 0 811 0 674 0 c 2,34,-1
 260 0 l 2,35,36
 228 0 228 0 213.5 14.5 c 128,-1,37
 199 29 199 29 199 61 c 2,38,-1
 199 1372 l 2,39,40
 199 1404 199 1404 213.5 1419 c 128,-1,41
 228 1434 228 1434 260 1434 c 2,42,-1
 674 1434 l 2,23,24
379 156 m 1,43,-1
 659 156 l 2,44,45
 758 156 758 156 839.5 187 c 128,-1,46
 921 218 921 218 985 282 c 128,-1,47
 1049 346 1049 346 1084.5 457 c 128,-1,48
 1120 568 1120 568 1120 717 c 0,49,50
 1120 865 1120 865 1084.5 976 c 128,-1,51
 1049 1087 1049 1087 985 1151.5 c 128,-1,52
 921 1216 921 1216 839.5 1247 c 128,-1,53
 758 1278 758 1278 659 1278 c 2,54,-1
 379 1278 l 1,55,-1
 379 156 l 1,43,-1
EndSplineSet
Position2: "'cpsp' Capital Spacing lookup 3 subtable" dx=10 dy=0 dh=20 dv=0
EndChar

StartChar: Dcroat
Encoding: 272 272 38
Width: 1425
Flags: MW
HStem: 0 156<214 662 354 662 662 676> 655 156<27 174 41 174 354 580> 1278 156<354 662 354 354>
VStem: 174 180<156 655 156 655 156 655 811 1278> 1126 186<512 921>
LayerCount: 2
Fore
SplineSet
676 1434 m 2,0,1
 785 1434 785 1434 878 1410.5 c 128,-1,2
 971 1387 971 1387 1052 1333.5 c 128,-1,3
 1133 1280 1133 1280 1190 1198.5 c 128,-1,4
 1247 1117 1247 1117 1280 994.5 c 128,-1,5
 1313 872 1313 872 1313 717 c 0,6,7
 1313 561 1313 561 1280 438.5 c 128,-1,8
 1247 316 1247 316 1190 234.5 c 128,-1,9
 1133 153 1133 153 1051.5 99.5 c 128,-1,10
 970 46 970 46 877.5 23 c 128,-1,11
 785 0 785 0 676 0 c 2,12,-1
 236 0 l 2,13,14
 204 0 204 0 189 14.5 c 128,-1,15
 174 29 174 29 174 61 c 2,16,-1
 174 655 l 1,17,-1
 41 655 l 2,18,19
 0 655 0 655 0 717 c 2,20,-1
 0 750 l 2,21,22
 0 811 0 811 41 811 c 2,23,-1
 174 811 l 1,24,-1
 174 1372 l 2,25,26
 174 1434 174 1434 236 1434 c 2,27,-1
 676 1434 l 2,0,1
354 811 m 1,28,-1
 580 811 l 2,29,30
 621 811 621 811 621 750 c 2,31,-1
 621 717 l 2,32,33
 621 655 621 655 580 655 c 2,34,-1
 354 655 l 1,35,-1
 354 156 l 1,36,-1
 662 156 l 2,37,38
 762 156 762 156 843.5 187 c 128,-1,39
 925 218 925 218 989.5 282 c 128,-1,40
 1054 346 1054 346 1090 457 c 128,-1,41
 1126 568 1126 568 1126 717 c 0,42,43
 1126 865 1126 865 1090 976 c 128,-1,44
 1054 1087 1054 1087 989.5 1151.5 c 128,-1,45
 925 1216 925 1216 843 1247 c 128,-1,46
 761 1278 761 1278 662 1278 c 2,47,-1
 354 1278 l 1,48,-1
 354 811 l 1,28,-1
EndSplineSet
Position2: "'cpsp' Capital Spacing lookup 3 subtable" dx=10 dy=0 dh=20 dv=0
EndChar

StartChar: Ddotbelow
Encoding: 7692 7692 39
Width: 1423
Flags: MW
HStem: -358 195<645 702> 0 156<239 659 379 659 659 674> 1278 156<379 659 379 379>
VStem: 199 180<156 156 156 1278> 588 172<-313 -209 -327 -196> 1120 186<512 921>
LayerCount: 2
Fore
SplineSet
674 1434 m 2,0,1
 783 1434 783 1434 875.5 1410.5 c 128,-1,2
 968 1387 968 1387 1048.5 1333.5 c 128,-1,3
 1129 1280 1129 1280 1185.5 1198.5 c 128,-1,4
 1242 1117 1242 1117 1274.5 994.5 c 128,-1,5
 1307 872 1307 872 1307 717 c 0,6,7
 1307 524 1307 524 1258.5 382 c 128,-1,8
 1210 240 1210 240 1121.5 158 c 128,-1,9
 1033 76 1033 76 922 38 c 128,-1,10
 811 0 811 0 674 0 c 2,11,-1
 260 0 l 2,12,13
 228 0 228 0 213.5 14.5 c 128,-1,14
 199 29 199 29 199 61 c 2,15,-1
 199 1372 l 2,16,17
 199 1404 199 1404 213.5 1419 c 128,-1,18
 228 1434 228 1434 260 1434 c 2,19,-1
 674 1434 l 2,0,1
379 156 m 1,20,-1
 659 156 l 2,21,22
 758 156 758 156 839.5 187 c 128,-1,23
 921 218 921 218 985 282 c 128,-1,24
 1049 346 1049 346 1084.5 457 c 128,-1,25
 1120 568 1120 568 1120 717 c 0,26,27
 1120 865 1120 865 1084.5 976 c 128,-1,28
 1049 1087 1049 1087 985 1151.5 c 128,-1,29
 921 1216 921 1216 839.5 1247 c 128,-1,30
 758 1278 758 1278 659 1278 c 2,31,-1
 379 1278 l 1,32,-1
 379 156 l 1,20,-1
588 -209 m 2,33,34
 588 -164 588 -164 678 -164 c 0,35,36
 760 -164 760 -164 760 -209 c 2,37,-1
 760 -313 l 2,38,39
 760 -358 760 -358 670 -358 c 0,40,41
 588 -358 588 -358 588 -313 c 2,42,-1
 588 -209 l 2,33,34
EndSplineSet
Position2: "'cpsp' Capital Spacing lookup 3 subtable" dx=10 dy=0 dh=20 dv=0
EndChar

StartChar: Dz
Encoding: 498 498 40
Width: 2424
Flags: MW
HStem: 0 147<1739 2302 1739 2302> 0 156<239 659 379 659 659 674> 924 147<1567 2300 1581 2105> 1278 156<379 659 379 379>
VStem: 199 180<156 156 156 1278> 1120 186<512 921>
LayerCount: 2
Fore
SplineSet
674 1434 m 2,0,1
 783 1434 783 1434 875.5 1410.5 c 128,-1,2
 968 1387 968 1387 1048.5 1333.5 c 128,-1,3
 1129 1280 1129 1280 1185.5 1198.5 c 128,-1,4
 1242 1117 1242 1117 1274.5 994.5 c 128,-1,5
 1307 872 1307 872 1307 717 c 0,6,7
 1307 524 1307 524 1258.5 382 c 128,-1,8
 1210 240 1210 240 1121.5 158 c 128,-1,9
 1033 76 1033 76 922 38 c 128,-1,10
 811 0 811 0 674 0 c 2,11,-1
 260 0 l 2,12,13
 228 0 228 0 213.5 14.5 c 128,-1,14
 199 29 199 29 199 61 c 2,15,-1
 199 1372 l 2,16,17
 199 1404 199 1404 213.5 1419 c 128,-1,18
 228 1434 228 1434 260 1434 c 2,19,-1
 674 1434 l 2,0,1
379 156 m 1,20,-1
 659 156 l 2,21,22
 758 156 758 156 839.5 187 c 128,-1,23
 921 218 921 218 985 282 c 128,-1,24
 1049 346 1049 346 1084.5 457 c 128,-1,25
 1120 568 1120 568 1120 717 c 0,26,27
 1120 865 1120 865 1084.5 976 c 128,-1,28
 1049 1087 1049 1087 985 1151.5 c 128,-1,29
 921 1216 921 1216 839.5 1247 c 128,-1,30
 758 1278 758 1278 659 1278 c 2,31,-1
 379 1278 l 1,32,-1
 379 156 l 1,20,-1
2300 1071 m 2,33,34
 2314 1071 2314 1071 2327.5 1033 c 128,-1,35
 2341 995 2341 995 2341 965 c 0,36,37
 2341 952 2341 952 2337 944 c 1,38,-1
 1739 147 l 1,39,-1
 2302 147 l 2,40,41
 2343 147 2343 147 2343 86 c 2,42,-1
 2343 61 l 2,43,44
 2343 0 2343 0 2302 0 c 2,45,-1
 1544 0 l 2,46,47
 1532 0 1532 0 1515.5 37 c 128,-1,48
 1499 74 1499 74 1499 104 c 0,49,50
 1499 118 1499 118 1505 127 c 2,51,-1
 2105 924 l 1,52,-1
 1581 924 l 2,53,54
 1540 924 1540 924 1540 985 c 2,55,-1
 1540 1010 l 2,56,57
 1540 1071 1540 1071 1581 1071 c 2,58,-1
 2300 1071 l 2,33,34
EndSplineSet
Position2: "'cpsp' Capital Spacing lookup 3 subtable" dx=10 dy=0 dh=20 dv=0
EndChar

StartChar: Dzcaron
Encoding: 453 453 41
Width: 2424
Flags: MW
HStem: 0 147<1739 2302 1739 2302> 0 156<239 659 379 659 659 674> 924 147<1567 2300 1581 2105> 1278 156<379 659 379 379>
VStem: 199 180<156 156 156 1278> 1120 186<512 921>
LayerCount: 2
Fore
SplineSet
674 1434 m 2,0,1
 783 1434 783 1434 875.5 1410.5 c 128,-1,2
 968 1387 968 1387 1048.5 1333.5 c 128,-1,3
 1129 1280 1129 1280 1185.5 1198.5 c 128,-1,4
 1242 1117 1242 1117 1274.5 994.5 c 128,-1,5
 1307 872 1307 872 1307 717 c 0,6,7
 1307 524 1307 524 1258.5 382 c 128,-1,8
 1210 240 1210 240 1121.5 158 c 128,-1,9
 1033 76 1033 76 922 38 c 128,-1,10
 811 0 811 0 674 0 c 2,11,-1
 260 0 l 2,12,13
 228 0 228 0 213.5 14.5 c 128,-1,14
 199 29 199 29 199 61 c 2,15,-1
 199 1372 l 2,16,17
 199 1404 199 1404 213.5 1419 c 128,-1,18
 228 1434 228 1434 260 1434 c 2,19,-1
 674 1434 l 2,0,1
379 156 m 1,20,-1
 659 156 l 2,21,22
 758 156 758 156 839.5 187 c 128,-1,23
 921 218 921 218 985 282 c 128,-1,24
 1049 346 1049 346 1084.5 457 c 128,-1,25
 1120 568 1120 568 1120 717 c 0,26,27
 1120 865 1120 865 1084.5 976 c 128,-1,28
 1049 1087 1049 1087 985 1151.5 c 128,-1,29
 921 1216 921 1216 839.5 1247 c 128,-1,30
 758 1278 758 1278 659 1278 c 2,31,-1
 379 1278 l 1,32,-1
 379 156 l 1,20,-1
2300 1071 m 2,33,34
 2314 1071 2314 1071 2327.5 1033 c 128,-1,35
 2341 995 2341 995 2341 965 c 0,36,37
 2341 952 2341 952 2337 944 c 1,38,-1
 1739 147 l 1,39,-1
 2302 147 l 2,40,41
 2343 147 2343 147 2343 86 c 2,42,-1
 2343 61 l 2,43,44
 2343 0 2343 0 2302 0 c 2,45,-1
 1544 0 l 2,46,47
 1532 0 1532 0 1515.5 37 c 128,-1,48
 1499 74 1499 74 1499 104 c 0,49,50
 1499 118 1499 118 1505 127 c 2,51,-1
 2105 924 l 1,52,-1
 1581 924 l 2,53,54
 1540 924 1540 924 1540 985 c 2,55,-1
 1540 1010 l 2,56,57
 1540 1071 1540 1071 1581 1071 c 2,58,-1
 2300 1071 l 2,33,34
2124 1483 m 2,59,60
 2173 1483 2173 1483 2173 1452 c 0,61,62
 2173 1435 2173 1435 2161 1417 c 2,63,-1
 2044 1237 l 2,64,65
 2015 1192 2015 1192 1950 1192 c 2,66,-1
 1898 1192 l 2,67,68
 1833 1192 1833 1192 1804 1237 c 2,69,-1
 1690 1417 l 1,70,71
 1677 1440 1677 1440 1677 1454 c 0,72,73
 1677 1483 1677 1483 1724 1483 c 2,74,-1
 1729 1483 l 2,75,76
 1768 1483 1768 1483 1798 1456 c 1,77,-1
 1923 1305 l 1,78,-1
 2052 1456 l 1,79,80
 2082 1483 2082 1483 2120 1483 c 2,81,-1
 2124 1483 l 2,59,60
EndSplineSet
Position2: "'cpsp' Capital Spacing lookup 3 subtable" dx=10 dy=0 dh=20 dv=0
EndChar

StartChar: E
Encoding: 69 69 42
Width: 1118
Flags: MW
HStem: 0 156<239 977 379 977 379 977> 655 156<379 913 379 913> 1278 156<379 975 379 379>
VStem: 199 180<156 655 811 1278>
LayerCount: 2
Fore
SplineSet
975 1434 m 2,0,1
 1016 1434 1016 1434 1016 1372 c 2,2,-1
 1016 1339 l 2,3,4
 1016 1278 1016 1278 975 1278 c 2,5,-1
 379 1278 l 1,6,-1
 379 811 l 1,7,-1
 913 811 l 2,8,9
 954 811 954 811 954 750 c 2,10,-1
 954 717 l 2,11,12
 954 655 954 655 913 655 c 2,13,-1
 379 655 l 1,14,-1
 379 156 l 1,15,-1
 977 156 l 2,16,17
 1018 156 1018 156 1018 94 c 2,18,-1
 1018 61 l 2,19,20
 1018 0 1018 0 977 0 c 2,21,-1
 260 0 l 2,22,23
 228 0 228 0 213.5 14.5 c 128,-1,24
 199 29 199 29 199 61 c 2,25,-1
 199 1372 l 2,26,27
 199 1404 199 1404 213.5 1419 c 128,-1,28
 228 1434 228 1434 260 1434 c 2,29,-1
 975 1434 l 2,0,1
EndSplineSet
Position2: "'cpsp' Capital Spacing lookup 3 subtable" dx=10 dy=0 dh=20 dv=0
EndChar

StartChar: Eacute
Encoding: 201 201 43
Width: 1118
Flags: MW
HStem: 0 156<239 977 379 977 379 977> 655 156<379 913 379 913> 1278 156<379 975 379 379>
VStem: 199 180<156 655 811 1278>
LayerCount: 2
Fore
SplineSet
770 1862 m 0,0,1
 868 1862 868 1862 868 1835 c 0,2,3
 868 1821 868 1821 851 1799 c 128,-1,4
 834 1777 834 1777 752.078686952 1683.8672606 c 0,5,6
 706 1631 706 1631 676 1597 c 0,7,8
 643 1561 643 1561 571 1561 c 0,9,10
 524 1561 524 1561 524 1581 c 0,11,12
 524 1595 524 1595 544.5 1633.5 c 128,-1,13
 565 1672 565 1672 643 1808 c 0,14,15
 675 1862 675 1862 770 1862 c 0,0,1
975 1434 m 2,16,17
 1016 1434 1016 1434 1016 1372 c 2,18,-1
 1016 1339 l 2,19,20
 1016 1278 1016 1278 975 1278 c 2,21,-1
 379 1278 l 1,22,-1
 379 811 l 1,23,-1
 913 811 l 2,24,25
 954 811 954 811 954 750 c 2,26,-1
 954 717 l 2,27,28
 954 655 954 655 913 655 c 2,29,-1
 379 655 l 1,30,-1
 379 156 l 1,31,-1
 977 156 l 2,32,33
 1018 156 1018 156 1018 94 c 2,34,-1
 1018 61 l 2,35,36
 1018 0 1018 0 977 0 c 2,37,-1
 260 0 l 2,38,39
 228 0 228 0 213.5 14.5 c 128,-1,40
 199 29 199 29 199 61 c 2,41,-1
 199 1372 l 2,42,43
 199 1404 199 1404 213.5 1419 c 128,-1,44
 228 1434 228 1434 260 1434 c 2,45,-1
 975 1434 l 2,16,17
EndSplineSet
Position2: "'cpsp' Capital Spacing lookup 3 subtable" dx=10 dy=0 dh=20 dv=0
EndChar

StartChar: Ebreve
Encoding: 276 276 44
Width: 1118
Flags: MW
HStem: 0 156<239 977 379 977 379 977> 655 156<379 913 379 913> 1278 156<379 975 379 379> 1561 135<558 658 558 681>
VStem: 199 180<156 655 811 1278>
LayerCount: 2
Fore
SplineSet
872 1827 m 0,0,1
 903 1827 903 1827 903 1796 c 0,2,3
 903 1685 903 1685 815 1623 c 128,-1,4
 727 1561 727 1561 608 1561 c 0,5,6
 531 1561 531 1561 465.5 1586 c 128,-1,7
 400 1611 400 1611 355.5 1666 c 128,-1,8
 311 1721 311 1721 311 1796 c 0,9,10
 311 1827 311 1827 342 1827 c 0,11,12
 355 1827 355 1827 362 1823 c 128,-1,13
 369 1819 369 1819 371.5 1814.5 c 128,-1,14
 374 1810 374 1810 378.5 1797.5 c 128,-1,15
 383 1785 383 1785 387 1776 c 0,16,17
 431 1696 431 1696 608 1696 c 0,18,19
 783 1696 783 1696 827 1776 c 0,20,21
 831 1785 831 1785 835.5 1797.5 c 128,-1,22
 840 1810 840 1810 842.5 1814.5 c 128,-1,23
 845 1819 845 1819 852 1823 c 128,-1,24
 859 1827 859 1827 872 1827 c 0,0,1
975 1434 m 2,25,26
 1016 1434 1016 1434 1016 1372 c 2,27,-1
 1016 1339 l 2,28,29
 1016 1278 1016 1278 975 1278 c 2,30,-1
 379 1278 l 1,31,-1
 379 811 l 1,32,-1
 913 811 l 2,33,34
 954 811 954 811 954 750 c 2,35,-1
 954 717 l 2,36,37
 954 655 954 655 913 655 c 2,38,-1
 379 655 l 1,39,-1
 379 156 l 1,40,-1
 977 156 l 2,41,42
 1018 156 1018 156 1018 94 c 2,43,-1
 1018 61 l 2,44,45
 1018 0 1018 0 977 0 c 2,46,-1
 260 0 l 2,47,48
 228 0 228 0 213.5 14.5 c 128,-1,49
 199 29 199 29 199 61 c 2,50,-1
 199 1372 l 2,51,52
 199 1404 199 1404 213.5 1419 c 128,-1,53
 228 1434 228 1434 260 1434 c 2,54,-1
 975 1434 l 2,25,26
EndSplineSet
Position2: "'cpsp' Capital Spacing lookup 3 subtable" dx=10 dy=0 dh=20 dv=0
EndChar

StartChar: Ecaron
Encoding: 282 282 45
Width: 1118
Flags: MW
HStem: 0 156<239 977 379 977 379 977> 655 156<379 913 379 913> 1278 156<379 975 379 379> 1554 291<406 580 406 631>
VStem: 199 180<156 655 811 1278>
LayerCount: 2
Fore
SplineSet
805 1845 m 2,0,1
 854 1845 854 1845 854 1815 c 0,2,3
 854 1798 854 1798 842 1780 c 2,4,-1
 725 1599 l 2,5,6
 696 1554 696 1554 631 1554 c 2,7,-1
 580 1554 l 2,8,9
 514 1554 514 1554 485 1599 c 2,10,-1
 371 1780 l 1,11,12
 358 1803 358 1803 358 1817 c 0,13,14
 358 1845 358 1845 406 1845 c 2,15,-1
 410 1845 l 2,16,17
 450 1845 450 1845 479 1819 c 1,18,-1
 604 1667 l 1,19,-1
 733 1819 l 1,20,21
 762 1845 762 1845 801 1845 c 2,22,-1
 805 1845 l 2,0,1
975 1434 m 2,23,24
 1016 1434 1016 1434 1016 1372 c 2,25,-1
 1016 1339 l 2,26,27
 1016 1278 1016 1278 975 1278 c 2,28,-1
 379 1278 l 1,29,-1
 379 811 l 1,30,-1
 913 811 l 2,31,32
 954 811 954 811 954 750 c 2,33,-1
 954 717 l 2,34,35
 954 655 954 655 913 655 c 2,36,-1
 379 655 l 1,37,-1
 379 156 l 1,38,-1
 977 156 l 2,39,40
 1018 156 1018 156 1018 94 c 2,41,-1
 1018 61 l 2,42,43
 1018 0 1018 0 977 0 c 2,44,-1
 260 0 l 2,45,46
 228 0 228 0 213.5 14.5 c 128,-1,47
 199 29 199 29 199 61 c 2,48,-1
 199 1372 l 2,49,50
 199 1404 199 1404 213.5 1419 c 128,-1,51
 228 1434 228 1434 260 1434 c 2,52,-1
 975 1434 l 2,23,24
EndSplineSet
Position2: "'cpsp' Capital Spacing lookup 3 subtable" dx=10 dy=0 dh=20 dv=0
EndChar

StartChar: Ecircumflex
Encoding: 202 202 46
Width: 1118
Flags: MW
HStem: 0 156<239 977 379 977 379 977> 655 156<379 913 379 913> 1278 156<379 975 379 379> 1542 291<390 631 406 631 580 801 580 805>
VStem: 199 180<156 655 811 1278>
LayerCount: 2
Fore
SplineSet
631 1833 m 2,0,1
 696 1833 696 1833 725 1788 c 2,2,-1
 842 1608 l 2,3,4
 854 1590 854 1590 854 1573 c 0,5,6
 854 1542 854 1542 805 1542 c 2,7,-1
 801 1542 l 2,8,9
 763 1542 763 1542 733 1569 c 1,10,-1
 604 1720 l 1,11,-1
 479 1569 l 1,12,13
 449 1542 449 1542 410 1542 c 2,14,-1
 406 1542 l 2,15,16
 358 1542 358 1542 358 1571 c 0,17,18
 358 1585 358 1585 371 1608 c 1,19,-1
 485 1788 l 2,20,21
 514 1833 514 1833 580 1833 c 2,22,-1
 631 1833 l 2,0,1
975 1434 m 2,23,24
 1016 1434 1016 1434 1016 1372 c 2,25,-1
 1016 1339 l 2,26,27
 1016 1278 1016 1278 975 1278 c 2,28,-1
 379 1278 l 1,29,-1
 379 811 l 1,30,-1
 913 811 l 2,31,32
 954 811 954 811 954 750 c 2,33,-1
 954 717 l 2,34,35
 954 655 954 655 913 655 c 2,36,-1
 379 655 l 1,37,-1
 379 156 l 1,38,-1
 977 156 l 2,39,40
 1018 156 1018 156 1018 94 c 2,41,-1
 1018 61 l 2,42,43
 1018 0 1018 0 977 0 c 2,44,-1
 260 0 l 2,45,46
 228 0 228 0 213.5 14.5 c 128,-1,47
 199 29 199 29 199 61 c 2,48,-1
 199 1372 l 2,49,50
 199 1404 199 1404 213.5 1419 c 128,-1,51
 228 1434 228 1434 260 1434 c 2,52,-1
 975 1434 l 2,23,24
EndSplineSet
Position2: "'cpsp' Capital Spacing lookup 3 subtable" dx=10 dy=0 dh=20 dv=0
EndChar

StartChar: Ecircumflexacute
Encoding: 7870 7870 47
Width: 1118
Flags: MW
HStem: 0 156<239 977 379 977 379 977> 655 156<379 913 379 913> 1278 156<379 975 379 379>
VStem: 199 180<156 655 811 1278>
LayerCount: 2
Fore
SplineSet
1036 1968 m 0,0,1
 1071 1968 1071 1968 1085.5 1962.5 c 128,-1,2
 1100 1957 1100 1957 1100 1942 c 0,3,4
 1100 1930 1100 1930 1087 1910.5 c 128,-1,5
 1074 1891 1074 1891 1011.42221089 1808.26972857 c 0,6,7
 973 1757 973 1757 948 1724 c 0,8,9
 922 1688 922 1688 874 1688 c 0,10,11
 827 1688 827 1688 827 1708 c 0,12,13
 827 1725 827 1725 910.422983313 1885.05745828 c 0,14,15
 921 1904 921 1904 926 1915 c 1,16,17
 957 1968 957 1968 1036 1968 c 0,0,1
639 1833 m 2,18,19
 686 1833 686 1833 713 1788 c 2,20,-1
 819 1608 l 1,21,22
 831 1590 831 1590 831 1573 c 0,23,24
 831 1542 831 1542 782 1542 c 2,25,-1
 778 1542 l 2,26,27
 729 1542 729 1542 711 1569 c 2,28,-1
 612 1720 l 1,29,-1
 487 1569 l 1,30,31
 457 1542 457 1542 418 1542 c 2,32,-1
 414 1542 l 2,33,34
 367 1542 367 1542 367 1571 c 0,35,36
 367 1587 367 1587 379 1608 c 1,37,-1
 494 1788 l 2,38,39
 523 1833 523 1833 588 1833 c 2,40,-1
 639 1833 l 2,18,19
975 1434 m 2,41,42
 1016 1434 1016 1434 1016 1372 c 2,43,-1
 1016 1339 l 2,44,45
 1016 1278 1016 1278 975 1278 c 2,46,-1
 379 1278 l 1,47,-1
 379 811 l 1,48,-1
 913 811 l 2,49,50
 954 811 954 811 954 750 c 2,51,-1
 954 717 l 2,52,53
 954 655 954 655 913 655 c 2,54,-1
 379 655 l 1,55,-1
 379 156 l 1,56,-1
 977 156 l 2,57,58
 1018 156 1018 156 1018 94 c 2,59,-1
 1018 61 l 2,60,61
 1018 0 1018 0 977 0 c 2,62,-1
 260 0 l 2,63,64
 228 0 228 0 213.5 14.5 c 128,-1,65
 199 29 199 29 199 61 c 2,66,-1
 199 1372 l 2,67,68
 199 1404 199 1404 213.5 1419 c 128,-1,69
 228 1434 228 1434 260 1434 c 2,70,-1
 975 1434 l 2,41,42
EndSplineSet
Position2: "'cpsp' Capital Spacing lookup 3 subtable" dx=10 dy=0 dh=20 dv=0
EndChar

StartChar: Ecircumflexdotbelow
Encoding: 7878 7878 48
Width: 1118
Flags: MW
HStem: -358 195<590 647> 0 156<239 977 379 977 379 977> 655 156<379 913 379 913> 1278 156<379 975 379 379> 1542 291<390 631 406 631 580 801 580 805>
VStem: 199 180<156 655 811 1278> 532 172<-313 -209 -327 -196>
LayerCount: 2
Fore
SplineSet
631 1833 m 2,0,1
 696 1833 696 1833 725 1788 c 2,2,-1
 842 1608 l 2,3,4
 854 1590 854 1590 854 1573 c 0,5,6
 854 1542 854 1542 805 1542 c 2,7,-1
 801 1542 l 2,8,9
 763 1542 763 1542 733 1569 c 1,10,-1
 604 1720 l 1,11,-1
 479 1569 l 1,12,13
 449 1542 449 1542 410 1542 c 2,14,-1
 406 1542 l 2,15,16
 358 1542 358 1542 358 1571 c 0,17,18
 358 1585 358 1585 371 1608 c 1,19,-1
 485 1788 l 2,20,21
 514 1833 514 1833 580 1833 c 2,22,-1
 631 1833 l 2,0,1
975 1434 m 2,23,24
 1016 1434 1016 1434 1016 1372 c 2,25,-1
 1016 1339 l 2,26,27
 1016 1278 1016 1278 975 1278 c 2,28,-1
 379 1278 l 1,29,-1
 379 811 l 1,30,-1
 913 811 l 2,31,32
 954 811 954 811 954 750 c 2,33,-1
 954 717 l 2,34,35
 954 655 954 655 913 655 c 2,36,-1
 379 655 l 1,37,-1
 379 156 l 1,38,-1
 977 156 l 2,39,40
 1018 156 1018 156 1018 94 c 2,41,-1
 1018 61 l 2,42,43
 1018 0 1018 0 977 0 c 2,44,-1
 260 0 l 2,45,46
 228 0 228 0 213.5 14.5 c 128,-1,47
 199 29 199 29 199 61 c 2,48,-1
 199 1372 l 2,49,50
 199 1404 199 1404 213.5 1419 c 128,-1,51
 228 1434 228 1434 260 1434 c 2,52,-1
 975 1434 l 2,23,24
532 -209 m 2,53,54
 532 -164 532 -164 623 -164 c 0,55,56
 705 -164 705 -164 705 -209 c 2,57,-1
 705 -313 l 2,58,59
 705 -358 705 -358 614 -358 c 0,60,61
 532 -358 532 -358 532 -313 c 2,62,-1
 532 -209 l 2,53,54
EndSplineSet
Position2: "'cpsp' Capital Spacing lookup 3 subtable" dx=10 dy=0 dh=20 dv=0
EndChar

StartChar: Ecircumflexgrave
Encoding: 7872 7872 49
Width: 1118
Flags: MW
HStem: 0 156<239 977 379 977 379 977> 655 156<379 913 379 913> 1278 156<379 975 379 379>
VStem: 199 180<156 655 811 1278>
LayerCount: 2
Fore
SplineSet
803 1968 m 0,0,1
 883 1968 883 1968 905 1915 c 0,2,3
 983 1729 983 1729 983 1708 c 0,4,5
 983 1688 983 1688 936 1688 c 0,6,7
 885 1688 885 1688 862 1724 c 0,8,9
 741.271751761 1912.96595376 741.271751761 1912.96595376 738.189355605 1918.8908094 c 0,10,11
 731 1932.70989425 731 1932.70989425 731 1942 c 0,12,13
 731 1957 731 1957 746 1962.5 c 128,-1,14
 761 1968 761 1968 803 1968 c 0,0,1
639 1833 m 2,15,16
 686 1833 686 1833 713 1788 c 2,17,-1
 819 1608 l 1,18,19
 831 1590 831 1590 831 1573 c 0,20,21
 831 1542 831 1542 782 1542 c 2,22,-1
 778 1542 l 2,23,24
 729 1542 729 1542 711 1569 c 2,25,-1
 612 1720 l 1,26,-1
 487 1569 l 1,27,28
 457 1542 457 1542 418 1542 c 2,29,-1
 414 1542 l 2,30,31
 367 1542 367 1542 367 1571 c 0,32,33
 367 1587 367 1587 379 1608 c 1,34,-1
 494 1788 l 2,35,36
 523 1833 523 1833 588 1833 c 2,37,-1
 639 1833 l 2,15,16
975 1434 m 2,38,39
 1016 1434 1016 1434 1016 1372 c 2,40,-1
 1016 1339 l 2,41,42
 1016 1278 1016 1278 975 1278 c 2,43,-1
 379 1278 l 1,44,-1
 379 811 l 1,45,-1
 913 811 l 2,46,47
 954 811 954 811 954 750 c 2,48,-1
 954 717 l 2,49,50
 954 655 954 655 913 655 c 2,51,-1
 379 655 l 1,52,-1
 379 156 l 1,53,-1
 977 156 l 2,54,55
 1018 156 1018 156 1018 94 c 2,56,-1
 1018 61 l 2,57,58
 1018 0 1018 0 977 0 c 2,59,-1
 260 0 l 2,60,61
 228 0 228 0 213.5 14.5 c 128,-1,62
 199 29 199 29 199 61 c 2,63,-1
 199 1372 l 2,64,65
 199 1404 199 1404 213.5 1419 c 128,-1,66
 228 1434 228 1434 260 1434 c 2,67,-1
 975 1434 l 2,38,39
EndSplineSet
Position2: "'cpsp' Capital Spacing lookup 3 subtable" dx=10 dy=0 dh=20 dv=0
EndChar

StartChar: Ecircumflexhookabove
Encoding: 7874 7874 50
Width: 1118
Flags: MW
HStem: 0 156<239 977 379 977 379 977> 655 156<379 913 379 913> 1278 156<379 975 379 379> 1907 98<847 887>
VStem: 199 180<156 655 811 1278> 942 117<1837 1870>
LayerCount: 2
Fore
SplineSet
942 1851 m 0,0,1
 942 1878 942 1878 920 1892.5 c 128,-1,2
 898 1907 898 1907 866 1907 c 0,3,4
 838 1907 838 1907 817 1900.5 c 128,-1,5
 796 1894 796 1894 785.5 1887 c 128,-1,6
 775 1880 775 1880 772 1880 c 0,7,8
 760 1880 760 1880 741.5 1906.5 c 128,-1,9
 723 1933 723 1933 723 1948 c 0,10,11
 723 1968 723 1968 775.5 1986.5 c 128,-1,12
 828 2005 828 2005 883 2005 c 0,13,14
 923 2005 923 2005 960.5 1993.5 c 128,-1,15
 998 1982 998 1982 1028.5 1948.5 c 128,-1,16
 1059 1915 1059 1915 1059 1866 c 0,17,18
 1059 1795 1059 1795 987 1735 c 1,19,20
 967 1717 967 1717 940 1703.5 c 128,-1,21
 913 1690 913 1690 903 1690 c 0,22,23
 872 1690 872 1690 849.5 1703.5 c 128,-1,24
 827 1717 827 1717 827 1731 c 0,25,26
 827 1742 827 1742 838.5 1751 c 128,-1,27
 850 1760 850 1760 879 1776 c 0,28,29
 942 1811 942 1811 942 1851 c 0,0,1
639 1833 m 2,30,31
 686 1833 686 1833 713 1788 c 2,32,-1
 819 1608 l 1,33,34
 831 1590 831 1590 831 1573 c 0,35,36
 831 1542 831 1542 782 1542 c 2,37,-1
 778 1542 l 2,38,39
 729 1542 729 1542 711 1569 c 2,40,-1
 612 1720 l 1,41,-1
 487 1569 l 1,42,43
 457 1542 457 1542 418 1542 c 2,44,-1
 414 1542 l 2,45,46
 367 1542 367 1542 367 1571 c 0,47,48
 367 1587 367 1587 379 1608 c 1,49,-1
 494 1788 l 2,50,51
 523 1833 523 1833 588 1833 c 2,52,-1
 639 1833 l 2,30,31
975 1434 m 2,53,54
 1016 1434 1016 1434 1016 1372 c 2,55,-1
 1016 1339 l 2,56,57
 1016 1278 1016 1278 975 1278 c 2,58,-1
 379 1278 l 1,59,-1
 379 811 l 1,60,-1
 913 811 l 2,61,62
 954 811 954 811 954 750 c 2,63,-1
 954 717 l 2,64,65
 954 655 954 655 913 655 c 2,66,-1
 379 655 l 1,67,-1
 379 156 l 1,68,-1
 977 156 l 2,69,70
 1018 156 1018 156 1018 94 c 2,71,-1
 1018 61 l 2,72,73
 1018 0 1018 0 977 0 c 2,74,-1
 260 0 l 2,75,76
 228 0 228 0 213.5 14.5 c 128,-1,77
 199 29 199 29 199 61 c 2,78,-1
 199 1372 l 2,79,80
 199 1404 199 1404 213.5 1419 c 128,-1,81
 228 1434 228 1434 260 1434 c 2,82,-1
 975 1434 l 2,53,54
EndSplineSet
Position2: "'cpsp' Capital Spacing lookup 3 subtable" dx=10 dy=0 dh=20 dv=0
EndChar

StartChar: Ecircumflextilde
Encoding: 7876 7876 51
Width: 1118
Flags: MW
HStem: 0 156<239 977 379 977 379 977> 655 156<379 913 379 913> 1278 156<379 975 379 379> 1849 131<705 738> 1911 131<462 496>
VStem: 199 180<156 655 811 1278>
LayerCount: 2
Fore
SplineSet
831 2028 m 0,0,1
 844 2038 844 2038 860 2038 c 0,2,3
 880 2038 880 2038 895 2019 c 0,4,5
 913 1995 913 1995 913 1976 c 0,6,7
 913 1955 913 1955 891 1933 c 1,8,9
 788 1849 788 1849 700 1849 c 0,10,11
 631 1849 631 1849 563 1882 c 0,12,13
 561 1883 561 1883 547 1890.5 c 128,-1,14
 533 1898 533 1898 529.5 1899.5 c 128,-1,15
 526 1901 526 1901 515.5 1905 c 128,-1,16
 505 1909 505 1909 496.5 1910 c 128,-1,17
 488 1911 488 1911 477 1911 c 0,18,19
 431 1911 431 1911 375 1872 c 0,20,21
 354 1858 354 1858 340 1858 c 0,22,23
 318 1858 318 1858 299 1886 c 0,24,25
 287 1904 287 1904 287 1921 c 0,26,27
 287 1943 287 1943 307 1960 c 1,28,29
 413 2042 413 2042 500 2042 c 0,30,31
 520 2042 520 2042 536.5 2040 c 128,-1,32
 553 2038 553 2038 568.5 2032.5 c 128,-1,33
 584 2027 584 2027 591 2024 c 128,-1,34
 598 2021 598 2021 613.5 2012.5 c 128,-1,35
 629 2004 629 2004 631 2003 c 0,36,37
 675 1980 675 1980 723 1980 c 0,38,39
 768 1980 768 1980 831 2028 c 0,0,1
631 1784 m 2,40,41
 680 1784 680 1784 725 1739 c 1,42,-1
 842 1608 l 1,43,44
 854 1590 854 1590 854 1573 c 0,45,46
 854 1542 854 1542 805 1542 c 2,47,-1
 801 1542 l 2,48,49
 777 1542 777 1542 733 1569 c 1,50,-1
 604 1671 l 1,51,-1
 479 1569 l 1,52,53
 440 1542 440 1542 410 1542 c 2,54,-1
 406 1542 l 2,55,56
 358 1542 358 1542 358 1571 c 0,57,58
 358 1585 358 1585 371 1608 c 1,59,-1
 485 1739 l 1,60,61
 533 1784 533 1784 580 1784 c 2,62,-1
 631 1784 l 2,40,41
975 1434 m 2,63,64
 1016 1434 1016 1434 1016 1372 c 2,65,-1
 1016 1339 l 2,66,67
 1016 1278 1016 1278 975 1278 c 2,68,-1
 379 1278 l 1,69,-1
 379 811 l 1,70,-1
 913 811 l 2,71,72
 954 811 954 811 954 750 c 2,73,-1
 954 717 l 2,74,75
 954 655 954 655 913 655 c 2,76,-1
 379 655 l 1,77,-1
 379 156 l 1,78,-1
 977 156 l 2,79,80
 1018 156 1018 156 1018 94 c 2,81,-1
 1018 61 l 2,82,83
 1018 0 1018 0 977 0 c 2,84,-1
 260 0 l 2,85,86
 228 0 228 0 213.5 14.5 c 128,-1,87
 199 29 199 29 199 61 c 2,88,-1
 199 1372 l 2,89,90
 199 1404 199 1404 213.5 1419 c 128,-1,91
 228 1434 228 1434 260 1434 c 2,92,-1
 975 1434 l 2,63,64
EndSplineSet
Position2: "'cpsp' Capital Spacing lookup 3 subtable" dx=10 dy=0 dh=20 dv=0
EndChar

StartChar: Edieresis
Encoding: 203 203 52
Width: 1118
Flags: MW
HStem: 0 156<239 977 379 977 379 977> 655 156<379 913 379 913> 1278 156<379 975 379 379> 1606 195<430 487 725 782>
VStem: 199 180<156 655 811 1278> 373 172<1651 1755 1637 1768> 668 172<1651 1755 1637 1768>
LayerCount: 2
Fore
SplineSet
373 1755 m 2,0,1
 373 1800 373 1800 463 1800 c 0,2,3
 545 1800 545 1800 545 1755 c 2,4,-1
 545 1651 l 2,5,6
 545 1606 545 1606 455 1606 c 0,7,8
 373 1606 373 1606 373 1651 c 2,9,-1
 373 1755 l 2,0,1
668 1755 m 2,10,11
 668 1800 668 1800 758 1800 c 0,12,13
 840 1800 840 1800 840 1755 c 2,14,-1
 840 1651 l 2,15,16
 840 1606 840 1606 750 1606 c 0,17,18
 668 1606 668 1606 668 1651 c 2,19,-1
 668 1755 l 2,10,11
975 1434 m 2,20,21
 1016 1434 1016 1434 1016 1372 c 2,22,-1
 1016 1339 l 2,23,24
 1016 1278 1016 1278 975 1278 c 2,25,-1
 379 1278 l 1,26,-1
 379 811 l 1,27,-1
 913 811 l 2,28,29
 954 811 954 811 954 750 c 2,30,-1
 954 717 l 2,31,32
 954 655 954 655 913 655 c 2,33,-1
 379 655 l 1,34,-1
 379 156 l 1,35,-1
 977 156 l 2,36,37
 1018 156 1018 156 1018 94 c 2,38,-1
 1018 61 l 2,39,40
 1018 0 1018 0 977 0 c 2,41,-1
 260 0 l 2,42,43
 228 0 228 0 213.5 14.5 c 128,-1,44
 199 29 199 29 199 61 c 2,45,-1
 199 1372 l 2,46,47
 199 1404 199 1404 213.5 1419 c 128,-1,48
 228 1434 228 1434 260 1434 c 2,49,-1
 975 1434 l 2,20,21
EndSplineSet
Position2: "'cpsp' Capital Spacing lookup 3 subtable" dx=10 dy=0 dh=20 dv=0
EndChar

StartChar: Edotaccent
Encoding: 278 278 53
Width: 1118
Flags: MW
HStem: 0 156<239 977 379 977 379 977> 655 156<379 913 379 913> 1278 156<379 975 379 379> 1606 195<578 635>
VStem: 199 180<156 655 811 1278> 520 172<1651 1755 1637 1768>
LayerCount: 2
Fore
SplineSet
520 1755 m 2,0,1
 520 1800 520 1800 610 1800 c 0,2,3
 692 1800 692 1800 692 1755 c 2,4,-1
 692 1651 l 2,5,6
 692 1606 692 1606 602 1606 c 0,7,8
 520 1606 520 1606 520 1651 c 2,9,-1
 520 1755 l 2,0,1
975 1434 m 2,10,11
 1016 1434 1016 1434 1016 1372 c 2,12,-1
 1016 1339 l 2,13,14
 1016 1278 1016 1278 975 1278 c 2,15,-1
 379 1278 l 1,16,-1
 379 811 l 1,17,-1
 913 811 l 2,18,19
 954 811 954 811 954 750 c 2,20,-1
 954 717 l 2,21,22
 954 655 954 655 913 655 c 2,23,-1
 379 655 l 1,24,-1
 379 156 l 1,25,-1
 977 156 l 2,26,27
 1018 156 1018 156 1018 94 c 2,28,-1
 1018 61 l 2,29,30
 1018 0 1018 0 977 0 c 2,31,-1
 260 0 l 2,32,33
 228 0 228 0 213.5 14.5 c 128,-1,34
 199 29 199 29 199 61 c 2,35,-1
 199 1372 l 2,36,37
 199 1404 199 1404 213.5 1419 c 128,-1,38
 228 1434 228 1434 260 1434 c 2,39,-1
 975 1434 l 2,10,11
EndSplineSet
Position2: "'cpsp' Capital Spacing lookup 3 subtable" dx=10 dy=0 dh=20 dv=0
EndChar

StartChar: Edotbelow
Encoding: 7864 7864 54
Width: 1118
Flags: MW
HStem: -358 195<590 647> 0 156<239 977 379 977 379 977> 655 156<379 913 379 913> 1278 156<379 975 379 379>
VStem: 199 180<156 655 811 1278> 532 172<-313 -209 -327 -196>
LayerCount: 2
Fore
SplineSet
975 1434 m 2,0,1
 1016 1434 1016 1434 1016 1372 c 2,2,-1
 1016 1339 l 2,3,4
 1016 1278 1016 1278 975 1278 c 2,5,-1
 379 1278 l 1,6,-1
 379 811 l 1,7,-1
 913 811 l 2,8,9
 954 811 954 811 954 750 c 2,10,-1
 954 717 l 2,11,12
 954 655 954 655 913 655 c 2,13,-1
 379 655 l 1,14,-1
 379 156 l 1,15,-1
 977 156 l 2,16,17
 1018 156 1018 156 1018 94 c 2,18,-1
 1018 61 l 2,19,20
 1018 0 1018 0 977 0 c 2,21,-1
 260 0 l 2,22,23
 228 0 228 0 213.5 14.5 c 128,-1,24
 199 29 199 29 199 61 c 2,25,-1
 199 1372 l 2,26,27
 199 1404 199 1404 213.5 1419 c 128,-1,28
 228 1434 228 1434 260 1434 c 2,29,-1
 975 1434 l 2,0,1
532 -209 m 2,30,31
 532 -164 532 -164 623 -164 c 0,32,33
 705 -164 705 -164 705 -209 c 2,34,-1
 705 -313 l 2,35,36
 705 -358 705 -358 614 -358 c 0,37,38
 532 -358 532 -358 532 -313 c 2,39,-1
 532 -209 l 2,30,31
EndSplineSet
Position2: "'cpsp' Capital Spacing lookup 3 subtable" dx=10 dy=0 dh=20 dv=0
EndChar

StartChar: Egrave
Encoding: 200 200 55
Width: 1118
Flags: MW
HStem: 0 156<239 977 379 977 379 977> 655 156<379 913 379 913> 1278 156<379 975 379 379>
VStem: 199 180<156 655 811 1278>
LayerCount: 2
Fore
SplineSet
463 1862 m 0,0,1
 558 1862 558 1862 590 1808 c 0,2,3
 668 1672 668 1672 688.5 1633.5 c 128,-1,4
 709 1595 709 1595 709 1581 c 0,5,6
 709 1561 709 1561 662 1561 c 0,7,8
 590 1561 590 1561 557 1597 c 0,9,10
 527 1631 527 1631 480.921313048 1683.8672606 c 0,11,12
 401 1775 401 1775 383 1798 c 128,-1,13
 365 1821 365 1821 365 1835 c 0,14,15
 365 1862 365 1862 463 1862 c 0,0,1
975 1434 m 2,16,17
 1016 1434 1016 1434 1016 1372 c 2,18,-1
 1016 1339 l 2,19,20
 1016 1278 1016 1278 975 1278 c 2,21,-1
 379 1278 l 1,22,-1
 379 811 l 1,23,-1
 913 811 l 2,24,25
 954 811 954 811 954 750 c 2,26,-1
 954 717 l 2,27,28
 954 655 954 655 913 655 c 2,29,-1
 379 655 l 1,30,-1
 379 156 l 1,31,-1
 977 156 l 2,32,33
 1018 156 1018 156 1018 94 c 2,34,-1
 1018 61 l 2,35,36
 1018 0 1018 0 977 0 c 2,37,-1
 260 0 l 2,38,39
 228 0 228 0 213.5 14.5 c 128,-1,40
 199 29 199 29 199 61 c 2,41,-1
 199 1372 l 2,42,43
 199 1404 199 1404 213.5 1419 c 128,-1,44
 228 1434 228 1434 260 1434 c 2,45,-1
 975 1434 l 2,16,17
EndSplineSet
Position2: "'cpsp' Capital Spacing lookup 3 subtable" dx=10 dy=0 dh=20 dv=0
EndChar

StartChar: Ehookabove
Encoding: 7866 7866 56
Width: 1118
Flags: MW
HStem: 0 156<239 977 379 977 379 977> 655 156<379 913 379 913> 1278 156<379 975 379 379> 1794 104<585 625>
VStem: 199 180<156 655 811 1278> 680 127<1688 1757>
LayerCount: 2
Fore
SplineSet
680 1739 m 0,0,1
 680 1765 680 1765 658.5 1779.5 c 128,-1,2
 637 1794 637 1794 604 1794 c 0,3,4
 576 1794 576 1794 555 1787 c 128,-1,5
 534 1780 534 1780 523.5 1773.5 c 128,-1,6
 513 1767 513 1767 510 1767 c 0,7,8
 498 1767 498 1767 479.5 1793.5 c 128,-1,9
 461 1820 461 1820 461 1835 c 0,10,11
 461 1855 461 1855 514.5 1876.5 c 128,-1,12
 568 1898 568 1898 621 1898 c 0,13,14
 650 1898 650 1898 680 1891 c 128,-1,15
 710 1884 710 1884 740 1868.5 c 128,-1,16
 770 1853 770 1853 788.5 1823 c 128,-1,17
 807 1793 807 1793 807 1753 c 0,18,19
 807 1706 807 1706 781.5 1659.5 c 128,-1,20
 756 1613 756 1613 723 1583 c 128,-1,21
 690 1553 690 1553 661 1534.5 c 128,-1,22
 632 1516 632 1516 621 1516 c 0,23,24
 604 1516 604 1516 578.5 1527 c 128,-1,25
 553 1538 553 1538 553 1550 c 0,26,27
 553 1569 553 1569 573 1590 c 128,-1,28
 593 1611 593 1611 616.5 1628 c 128,-1,29
 640 1645 640 1645 660 1675 c 128,-1,30
 680 1705 680 1705 680 1739 c 0,0,1
975 1434 m 2,31,32
 1016 1434 1016 1434 1016 1372 c 2,33,-1
 1016 1339 l 2,34,35
 1016 1278 1016 1278 975 1278 c 2,36,-1
 379 1278 l 1,37,-1
 379 811 l 1,38,-1
 913 811 l 2,39,40
 954 811 954 811 954 750 c 2,41,-1
 954 717 l 2,42,43
 954 655 954 655 913 655 c 2,44,-1
 379 655 l 1,45,-1
 379 156 l 1,46,-1
 977 156 l 2,47,48
 1018 156 1018 156 1018 94 c 2,49,-1
 1018 61 l 2,50,51
 1018 0 1018 0 977 0 c 2,52,-1
 260 0 l 2,53,54
 228 0 228 0 213.5 14.5 c 128,-1,55
 199 29 199 29 199 61 c 2,56,-1
 199 1372 l 2,57,58
 199 1404 199 1404 213.5 1419 c 128,-1,59
 228 1434 228 1434 260 1434 c 2,60,-1
 975 1434 l 2,31,32
EndSplineSet
Position2: "'cpsp' Capital Spacing lookup 3 subtable" dx=10 dy=0 dh=20 dv=0
EndChar

StartChar: Emacron
Encoding: 274 274 57
Width: 1118
Flags: MW
HStem: 0 156<239 977 379 977 379 977> 655 156<379 913 379 913> 1278 156<379 975 379 379> 1616 143<365 836 379 836>
VStem: 199 180<156 655 811 1278>
LayerCount: 2
Fore
SplineSet
836 1759 m 2,0,1
 877 1759 877 1759 877 1698 c 2,2,-1
 877 1677 l 2,3,4
 877 1616 877 1616 836 1616 c 2,5,-1
 379 1616 l 2,6,7
 338 1616 338 1616 338 1677 c 2,8,-1
 338 1698 l 2,9,10
 338 1759 338 1759 379 1759 c 2,11,-1
 836 1759 l 2,0,1
975 1434 m 2,12,13
 1016 1434 1016 1434 1016 1372 c 2,14,-1
 1016 1339 l 2,15,16
 1016 1278 1016 1278 975 1278 c 2,17,-1
 379 1278 l 1,18,-1
 379 811 l 1,19,-1
 913 811 l 2,20,21
 954 811 954 811 954 750 c 2,22,-1
 954 717 l 2,23,24
 954 655 954 655 913 655 c 2,25,-1
 379 655 l 1,26,-1
 379 156 l 1,27,-1
 977 156 l 2,28,29
 1018 156 1018 156 1018 94 c 2,30,-1
 1018 61 l 2,31,32
 1018 0 1018 0 977 0 c 2,33,-1
 260 0 l 2,34,35
 228 0 228 0 213.5 14.5 c 128,-1,36
 199 29 199 29 199 61 c 2,37,-1
 199 1372 l 2,38,39
 199 1404 199 1404 213.5 1419 c 128,-1,40
 228 1434 228 1434 260 1434 c 2,41,-1
 975 1434 l 2,12,13
EndSplineSet
Position2: "'cpsp' Capital Spacing lookup 3 subtable" dx=10 dy=0 dh=20 dv=0
EndChar

StartChar: Eogonek
Encoding: 280 280 58
Width: 1118
Flags: MW
HStem: -375 143<1056 1095 1056 1108> 0 156<239 977 379 866 977 991> 655 156<379 913 379 913> 1278 156<379 975 379 379>
VStem: 199 180<156 655 811 1278> 815 137<-176 -145>
LayerCount: 2
Fore
SplineSet
977 0 m 1,0,-1
 977 -2 l 2,1,2
 977 -14 977 -14 964.5 -57 c 128,-1,3
 952 -100 952 -100 952 -127 c 0,4,5
 952 -231 952 -231 1079 -231 c 0,6,7
 1094 -231 1094 -231 1131.5 -221 c 128,-1,8
 1169 -211 1169 -211 1186 -211 c 0,9,10
 1225 -211 1225 -211 1225 -262 c 0,11,12
 1225 -327 1225 -327 1183 -351 c 128,-1,13
 1141 -375 1141 -375 1057 -375 c 0,14,15
 995 -375 995 -375 948 -358.5 c 128,-1,16
 901 -342 901 -342 876.5 -319 c 128,-1,17
 852 -296 852 -296 837.5 -264.5 c 128,-1,18
 823 -233 823 -233 819 -210.5 c 128,-1,19
 815 -188 815 -188 815 -166 c 0,20,21
 815 -49 815 -49 866 0 c 1,22,-1
 260 0 l 2,23,24
 228 0 228 0 213.5 14.5 c 128,-1,25
 199 29 199 29 199 61 c 2,26,-1
 199 1372 l 2,27,28
 199 1404 199 1404 213.5 1419 c 128,-1,29
 228 1434 228 1434 260 1434 c 2,30,-1
 975 1434 l 2,31,32
 1016 1434 1016 1434 1016 1372 c 2,33,-1
 1016 1339 l 2,34,35
 1016 1278 1016 1278 975 1278 c 2,36,-1
 379 1278 l 1,37,-1
 379 811 l 1,38,-1
 913 811 l 2,39,40
 954 811 954 811 954 750 c 2,41,-1
 954 717 l 2,42,43
 954 655 954 655 913 655 c 2,44,-1
 379 655 l 1,45,-1
 379 156 l 1,46,-1
 977 156 l 2,47,48
 1018 156 1018 156 1018 94 c 2,49,-1
 1018 61 l 2,50,51
 1018 0 1018 0 977 0 c 1,0,-1
EndSplineSet
Position2: "'cpsp' Capital Spacing lookup 3 subtable" dx=10 dy=0 dh=20 dv=0
EndChar

StartChar: Etilde
Encoding: 7868 7868 59
Width: 1118
Flags: MW
HStem: 0 156<239 977 379 977 379 977> 655 156<379 913 379 913> 1278 156<379 975 379 379> 1561 131<723 759> 1622 131<456 493>
VStem: 199 180<156 655 811 1278>
LayerCount: 2
Fore
SplineSet
862 1739 m 1,0,1
 874 1749 874 1749 893 1749 c 0,2,3
 914 1749 914 1749 932 1731 c 1,4,5
 950 1710 950 1710 950 1688 c 0,6,7
 950 1664 950 1664 928 1645 c 1,8,9
 814 1561 814 1561 717 1561 c 0,10,11
 637 1561 637 1561 567 1593 c 0,12,13
 562 1596 562 1596 551 1601 c 128,-1,14
 540 1606 540 1606 535.5 1608 c 128,-1,15
 531 1610 531 1610 522 1613.5 c 128,-1,16
 513 1617 513 1617 506.5 1618.5 c 128,-1,17
 500 1620 500 1620 491 1621 c 128,-1,18
 482 1622 482 1622 473 1622 c 0,19,20
 421 1622 421 1622 360 1583 c 1,21,22
 336 1569 336 1569 322 1569 c 0,23,24
 298 1569 298 1569 276 1597 c 0,25,26
 262 1614 262 1614 262 1632 c 0,27,28
 262 1652 262 1652 285 1671 c 1,29,30
 403 1753 403 1753 498 1753 c 0,31,32
 516 1753 516 1753 533 1751 c 128,-1,33
 550 1749 550 1749 561 1746.5 c 128,-1,34
 572 1744 572 1744 586 1739 c 128,-1,35
 600 1734 600 1734 605.5 1731.5 c 128,-1,36
 611 1729 611 1729 624.5 1722 c 128,-1,37
 638 1715 638 1715 641 1714 c 0,38,39
 687 1692 687 1692 743 1692 c 0,40,41
 792 1692 792 1692 862 1739 c 1,0,1
975 1434 m 2,42,43
 1016 1434 1016 1434 1016 1372 c 2,44,-1
 1016 1339 l 2,45,46
 1016 1278 1016 1278 975 1278 c 2,47,-1
 379 1278 l 1,48,-1
 379 811 l 1,49,-1
 913 811 l 2,50,51
 954 811 954 811 954 750 c 2,52,-1
 954 717 l 2,53,54
 954 655 954 655 913 655 c 2,55,-1
 379 655 l 1,56,-1
 379 156 l 1,57,-1
 977 156 l 2,58,59
 1018 156 1018 156 1018 94 c 2,60,-1
 1018 61 l 2,61,62
 1018 0 1018 0 977 0 c 2,63,-1
 260 0 l 2,64,65
 228 0 228 0 213.5 14.5 c 128,-1,66
 199 29 199 29 199 61 c 2,67,-1
 199 1372 l 2,68,69
 199 1404 199 1404 213.5 1419 c 128,-1,70
 228 1434 228 1434 260 1434 c 2,71,-1
 975 1434 l 2,42,43
EndSplineSet
Position2: "'cpsp' Capital Spacing lookup 3 subtable" dx=10 dy=0 dh=20 dv=0
EndChar

StartChar: F
Encoding: 70 70 60
Width: 1030
Flags: MW
HStem: -4 43G<252 281 281 297> 655 156<379 868 379 868> 1278 156<379 905 379 379>
VStem: 199 180<41 655 811 1278>
LayerCount: 2
Fore
SplineSet
905 1434 m 2,0,1
 946 1434 946 1434 946 1372 c 2,2,-1
 946 1339 l 2,3,4
 946 1278 946 1278 905 1278 c 2,5,-1
 379 1278 l 1,6,-1
 379 811 l 1,7,-1
 868 811 l 2,8,9
 909 811 909 811 909 750 c 2,10,-1
 909 717 l 2,11,12
 909 655 909 655 868 655 c 2,13,-1
 379 655 l 1,14,-1
 379 41 l 2,15,16
 379 -4 379 -4 297 -4 c 2,17,-1
 281 -4 l 2,18,19
 199 -4 199 -4 199 41 c 2,20,-1
 199 1372 l 2,21,22
 199 1404 199 1404 213.5 1419 c 128,-1,23
 228 1434 228 1434 260 1434 c 2,24,-1
 905 1434 l 2,0,1
EndSplineSet
Position2: "'cpsp' Capital Spacing lookup 3 subtable" dx=10 dy=0 dh=20 dv=0
EndChar

StartChar: G
Encoding: 71 71 61
Width: 1376
Flags: MW
HStem: -12 156<580 815 580 866> 584 156<772 1145 786 1026> 1290 156<603 882 566 883>
VStem: 117 186<566 901 566 959> 1026 180<170 584 584 584>
LayerCount: 2
Fore
SplineSet
1206 135 m 2,0,1
 1206 94 1206 94 1168.5 64 c 128,-1,2
 1131 34 1131 34 1064.5 18 c 128,-1,3
 998 2 998 2 920.5 -5 c 128,-1,4
 843 -12 843 -12 750 -12 c 0,5,6
 440 -12 440 -12 278.5 166 c 128,-1,7
 117 344 117 344 117 705 c 0,8,9
 117 1446 117 1446 780 1446 c 0,10,11
 927 1446 927 1446 1049 1404 c 128,-1,12
 1171 1362 1171 1362 1171 1319 c 0,13,14
 1171 1291 1171 1291 1146 1245.5 c 128,-1,15
 1121 1200 1121 1200 1102 1200 c 0,16,17
 1096 1200 1096 1200 1069.5 1214 c 128,-1,18
 1043 1228 1043 1228 1008.5 1245 c 128,-1,19
 974 1262 974 1262 912.5 1276 c 128,-1,20
 851 1290 851 1290 784 1290 c 0,21,22
 650 1290 650 1290 556.5 1252 c 128,-1,23
 463 1214 463 1214 407.5 1139 c 128,-1,24
 352 1064 352 1064 327.5 962.5 c 128,-1,25
 303 861 303 861 303 723 c 0,26,27
 303 624 303 624 315.5 542 c 128,-1,28
 328 460 328 460 360 384 c 128,-1,29
 392 308 392 308 442.5 256.5 c 128,-1,30
 493 205 493 205 574.5 174 c 128,-1,31
 656 143 656 143 762 143 c 0,32,33
 920 143 920 143 1026 170 c 1,34,-1
 1026 584 l 1,35,-1
 786 584 l 2,36,37
 745 584 745 584 745 645 c 2,38,-1
 745 678 l 2,39,40
 745 739 745 739 786 739 c 2,41,-1
 1145 739 l 2,42,43
 1177 739 1177 739 1191.5 724.5 c 128,-1,44
 1206 710 1206 710 1206 678 c 2,45,-1
 1206 135 l 2,0,1
EndSplineSet
Position2: "'cpsp' Capital Spacing lookup 3 subtable" dx=10 dy=0 dh=20 dv=0
EndChar

StartChar: Gbreve
Encoding: 286 286 62
Width: 1376
Flags: MW
HStem: -12 156<580 815 580 866> 584 156<772 1145 786 1026> 1290 156<603 882 566 883> 1561 135<640 740 640 763>
VStem: 117 186<566 901 566 959> 1026 180<170 584 584 584>
LayerCount: 2
Fore
SplineSet
954 1827 m 0,0,1
 985 1827 985 1827 985 1796 c 0,2,3
 985 1685 985 1685 897 1623 c 128,-1,4
 809 1561 809 1561 690 1561 c 0,5,6
 613 1561 613 1561 547.5 1586 c 128,-1,7
 482 1611 482 1611 437.5 1666 c 128,-1,8
 393 1721 393 1721 393 1796 c 0,9,10
 393 1827 393 1827 424 1827 c 0,11,12
 437 1827 437 1827 444 1823 c 128,-1,13
 451 1819 451 1819 453.5 1814.5 c 128,-1,14
 456 1810 456 1810 460.5 1797.5 c 128,-1,15
 465 1785 465 1785 469 1776 c 0,16,17
 513 1696 513 1696 690 1696 c 0,18,19
 865 1696 865 1696 909 1776 c 0,20,21
 913 1785 913 1785 917.5 1797.5 c 128,-1,22
 922 1810 922 1810 924.5 1814.5 c 128,-1,23
 927 1819 927 1819 934 1823 c 128,-1,24
 941 1827 941 1827 954 1827 c 0,0,1
1206 135 m 2,25,26
 1206 94 1206 94 1168.5 64 c 128,-1,27
 1131 34 1131 34 1064.5 18 c 128,-1,28
 998 2 998 2 920.5 -5 c 128,-1,29
 843 -12 843 -12 750 -12 c 0,30,31
 440 -12 440 -12 278.5 166 c 128,-1,32
 117 344 117 344 117 705 c 0,33,34
 117 1446 117 1446 780 1446 c 0,35,36
 927 1446 927 1446 1049 1404 c 128,-1,37
 1171 1362 1171 1362 1171 1319 c 0,38,39
 1171 1291 1171 1291 1146 1245.5 c 128,-1,40
 1121 1200 1121 1200 1102 1200 c 0,41,42
 1096 1200 1096 1200 1069.5 1214 c 128,-1,43
 1043 1228 1043 1228 1008.5 1245 c 128,-1,44
 974 1262 974 1262 912.5 1276 c 128,-1,45
 851 1290 851 1290 784 1290 c 0,46,47
 650 1290 650 1290 556.5 1252 c 128,-1,48
 463 1214 463 1214 407.5 1139 c 128,-1,49
 352 1064 352 1064 327.5 962.5 c 128,-1,50
 303 861 303 861 303 723 c 0,51,52
 303 624 303 624 315.5 542 c 128,-1,53
 328 460 328 460 360 384 c 128,-1,54
 392 308 392 308 442.5 256.5 c 128,-1,55
 493 205 493 205 574.5 174 c 128,-1,56
 656 143 656 143 762 143 c 0,57,58
 920 143 920 143 1026 170 c 1,59,-1
 1026 584 l 1,60,-1
 786 584 l 2,61,62
 745 584 745 584 745 645 c 2,63,-1
 745 678 l 2,64,65
 745 739 745 739 786 739 c 2,66,-1
 1145 739 l 2,67,68
 1177 739 1177 739 1191.5 724.5 c 128,-1,69
 1206 710 1206 710 1206 678 c 2,70,-1
 1206 135 l 2,25,26
EndSplineSet
Position2: "'cpsp' Capital Spacing lookup 3 subtable" dx=10 dy=0 dh=20 dv=0
EndChar

StartChar: Gcircumflex
Encoding: 284 284 63
Width: 1376
Flags: MW
HStem: -12 156<580 815 580 866> 584 156<772 1145 786 1026> 1290 156<603 882 566 883> 1542 291<472 713 487 713 662 883 662 887>
VStem: 117 186<566 901 566 959> 1026 180<170 584 584 584>
LayerCount: 2
Fore
SplineSet
713 1833 m 2,0,1
 778 1833 778 1833 807 1788 c 2,2,-1
 924 1608 l 2,3,4
 936 1590 936 1590 936 1573 c 0,5,6
 936 1542 936 1542 887 1542 c 2,7,-1
 883 1542 l 2,8,9
 845 1542 845 1542 815 1569 c 1,10,-1
 686 1720 l 1,11,-1
 561 1569 l 1,12,13
 531 1542 531 1542 492 1542 c 2,14,-1
 487 1542 l 2,15,16
 440 1542 440 1542 440 1571 c 0,17,18
 440 1585 440 1585 453 1608 c 1,19,-1
 567 1788 l 2,20,21
 596 1833 596 1833 662 1833 c 2,22,-1
 713 1833 l 2,0,1
1206 135 m 2,23,24
 1206 94 1206 94 1168.5 64 c 128,-1,25
 1131 34 1131 34 1064.5 18 c 128,-1,26
 998 2 998 2 920.5 -5 c 128,-1,27
 843 -12 843 -12 750 -12 c 0,28,29
 440 -12 440 -12 278.5 166 c 128,-1,30
 117 344 117 344 117 705 c 0,31,32
 117 1446 117 1446 780 1446 c 0,33,34
 927 1446 927 1446 1049 1404 c 128,-1,35
 1171 1362 1171 1362 1171 1319 c 0,36,37
 1171 1291 1171 1291 1146 1245.5 c 128,-1,38
 1121 1200 1121 1200 1102 1200 c 0,39,40
 1096 1200 1096 1200 1069.5 1214 c 128,-1,41
 1043 1228 1043 1228 1008.5 1245 c 128,-1,42
 974 1262 974 1262 912.5 1276 c 128,-1,43
 851 1290 851 1290 784 1290 c 0,44,45
 650 1290 650 1290 556.5 1252 c 128,-1,46
 463 1214 463 1214 407.5 1139 c 128,-1,47
 352 1064 352 1064 327.5 962.5 c 128,-1,48
 303 861 303 861 303 723 c 0,49,50
 303 624 303 624 315.5 542 c 128,-1,51
 328 460 328 460 360 384 c 128,-1,52
 392 308 392 308 442.5 256.5 c 128,-1,53
 493 205 493 205 574.5 174 c 128,-1,54
 656 143 656 143 762 143 c 0,55,56
 920 143 920 143 1026 170 c 1,57,-1
 1026 584 l 1,58,-1
 786 584 l 2,59,60
 745 584 745 584 745 645 c 2,61,-1
 745 678 l 2,62,63
 745 739 745 739 786 739 c 2,64,-1
 1145 739 l 2,65,66
 1177 739 1177 739 1191.5 724.5 c 128,-1,67
 1206 710 1206 710 1206 678 c 2,68,-1
 1206 135 l 2,23,24
EndSplineSet
Position2: "'cpsp' Capital Spacing lookup 3 subtable" dx=10 dy=0 dh=20 dv=0
EndChar

StartChar: Gcommaaccent
Encoding: 290 290 64
Width: 1376
Flags: MW
HStem: -481 43G<660 706> -12 156<580 815 580 866> 584 156<772 1145 786 1026> 1290 156<603 882 566 883>
VStem: 117 186<566 901 566 959> 700 182<-248 -151> 1026 180<170 584 584 584>
LayerCount: 2
Fore
SplineSet
1206 135 m 2,0,1
 1206 94 1206 94 1168.5 64 c 128,-1,2
 1131 34 1131 34 1064.5 18 c 128,-1,3
 998 2 998 2 920.5 -5 c 128,-1,4
 843 -12 843 -12 750 -12 c 0,5,6
 440 -12 440 -12 278.5 166 c 128,-1,7
 117 344 117 344 117 705 c 0,8,9
 117 1446 117 1446 780 1446 c 0,10,11
 927 1446 927 1446 1049 1404 c 128,-1,12
 1171 1362 1171 1362 1171 1319 c 0,13,14
 1171 1291 1171 1291 1146 1245.5 c 128,-1,15
 1121 1200 1121 1200 1102 1200 c 0,16,17
 1096 1200 1096 1200 1069.5 1214 c 128,-1,18
 1043 1228 1043 1228 1008.5 1245 c 128,-1,19
 974 1262 974 1262 912.5 1276 c 128,-1,20
 851 1290 851 1290 784 1290 c 0,21,22
 650 1290 650 1290 556.5 1252 c 128,-1,23
 463 1214 463 1214 407.5 1139 c 128,-1,24
 352 1064 352 1064 327.5 962.5 c 128,-1,25
 303 861 303 861 303 723 c 0,26,27
 303 624 303 624 315.5 542 c 128,-1,28
 328 460 328 460 360 384 c 128,-1,29
 392 308 392 308 442.5 256.5 c 128,-1,30
 493 205 493 205 574.5 174 c 128,-1,31
 656 143 656 143 762 143 c 0,32,33
 920 143 920 143 1026 170 c 1,34,-1
 1026 584 l 1,35,-1
 786 584 l 2,36,37
 745 584 745 584 745 645 c 2,38,-1
 745 678 l 2,39,40
 745 739 745 739 786 739 c 2,41,-1
 1145 739 l 2,42,43
 1177 739 1177 739 1191.5 724.5 c 128,-1,44
 1206 710 1206 710 1206 678 c 2,45,-1
 1206 135 l 2,0,1
801 -104 m 2,46,47
 839 -104 839 -104 861 -120 c 128,-1,48
 883 -136 883 -136 883 -162 c 0,49,50
 883 -232 883 -232 860 -294.5 c 128,-1,51
 837 -357 837 -357 803 -396 c 128,-1,52
 769 -435 769 -435 734 -458 c 128,-1,53
 699 -481 699 -481 672 -481 c 0,54,55
 612 -481 612 -481 612 -451 c 0,56,57
 612 -434 612 -434 634 -395.5 c 128,-1,58
 656 -357 656 -357 678 -297.5 c 128,-1,59
 700 -238 700 -238 700 -170 c 0,60,61
 700 -140 700 -140 721 -122 c 128,-1,62
 742 -104 742 -104 782 -104 c 2,63,-1
 801 -104 l 2,46,47
EndSplineSet
Position2: "'cpsp' Capital Spacing lookup 3 subtable" dx=10 dy=0 dh=20 dv=0
EndChar

StartChar: Gdotaccent
Encoding: 288 288 65
Width: 1376
Flags: MW
HStem: -12 156<580 815 580 866> 584 156<772 1145 786 1026> 1290 156<603 882 566 883> 1606 195<659 717>
VStem: 117 186<566 901 566 959> 602 172<1651 1755 1637 1768> 1026 180<170 584 584 584>
LayerCount: 2
Fore
SplineSet
602 1755 m 2,0,1
 602 1800 602 1800 692 1800 c 0,2,3
 774 1800 774 1800 774 1755 c 2,4,-1
 774 1651 l 2,5,6
 774 1606 774 1606 684 1606 c 0,7,8
 602 1606 602 1606 602 1651 c 2,9,-1
 602 1755 l 2,0,1
1206 135 m 2,10,11
 1206 94 1206 94 1168.5 64 c 128,-1,12
 1131 34 1131 34 1064.5 18 c 128,-1,13
 998 2 998 2 920.5 -5 c 128,-1,14
 843 -12 843 -12 750 -12 c 0,15,16
 440 -12 440 -12 278.5 166 c 128,-1,17
 117 344 117 344 117 705 c 0,18,19
 117 1446 117 1446 780 1446 c 0,20,21
 927 1446 927 1446 1049 1404 c 128,-1,22
 1171 1362 1171 1362 1171 1319 c 0,23,24
 1171 1291 1171 1291 1146 1245.5 c 128,-1,25
 1121 1200 1121 1200 1102 1200 c 0,26,27
 1096 1200 1096 1200 1069.5 1214 c 128,-1,28
 1043 1228 1043 1228 1008.5 1245 c 128,-1,29
 974 1262 974 1262 912.5 1276 c 128,-1,30
 851 1290 851 1290 784 1290 c 0,31,32
 650 1290 650 1290 556.5 1252 c 128,-1,33
 463 1214 463 1214 407.5 1139 c 128,-1,34
 352 1064 352 1064 327.5 962.5 c 128,-1,35
 303 861 303 861 303 723 c 0,36,37
 303 624 303 624 315.5 542 c 128,-1,38
 328 460 328 460 360 384 c 128,-1,39
 392 308 392 308 442.5 256.5 c 128,-1,40
 493 205 493 205 574.5 174 c 128,-1,41
 656 143 656 143 762 143 c 0,42,43
 920 143 920 143 1026 170 c 1,44,-1
 1026 584 l 1,45,-1
 786 584 l 2,46,47
 745 584 745 584 745 645 c 2,48,-1
 745 678 l 2,49,50
 745 739 745 739 786 739 c 2,51,-1
 1145 739 l 2,52,53
 1177 739 1177 739 1191.5 724.5 c 128,-1,54
 1206 710 1206 710 1206 678 c 2,55,-1
 1206 135 l 2,10,11
EndSplineSet
Position2: "'cpsp' Capital Spacing lookup 3 subtable" dx=10 dy=0 dh=20 dv=0
EndChar

StartChar: H
Encoding: 72 72 66
Width: 1501
Flags: MW
HStem: -4 43G<252 281 281 297 1174 1202 1202 1219> 657 156<379 1120 379 1120> 1397 41G<281 297 297 326 1202 1219 1219 1247>
VStem: 199 180<41 657 813 1393> 1120 180<41 657 657 657 813 1393>
LayerCount: 2
Fore
SplineSet
1219 1438 m 2,0,1
 1300 1438 1300 1438 1300 1393 c 2,2,-1
 1300 41 l 2,3,4
 1300 -4 1300 -4 1219 -4 c 2,5,-1
 1202 -4 l 2,6,7
 1120 -4 1120 -4 1120 41 c 2,8,-1
 1120 657 l 1,9,-1
 379 657 l 1,10,-1
 379 41 l 2,11,12
 379 -4 379 -4 297 -4 c 2,13,-1
 281 -4 l 2,14,15
 199 -4 199 -4 199 41 c 2,16,-1
 199 1393 l 2,17,18
 199 1438 199 1438 281 1438 c 2,19,-1
 297 1438 l 2,20,21
 379 1438 379 1438 379 1393 c 2,22,-1
 379 813 l 1,23,-1
 1120 813 l 1,24,-1
 1120 1393 l 2,25,26
 1120 1438 1120 1438 1202 1438 c 2,27,-1
 1219 1438 l 2,0,1
EndSplineSet
Position2: "'cpsp' Capital Spacing lookup 3 subtable" dx=10 dy=0 dh=20 dv=0
EndChar

StartChar: Hbar
Encoding: 294 294 67
Width: 1501
Flags: MW
HStem: -4 43G<252 281 281 297 1174 1202 1202 1219> 657 156<379 1120 379 1120> 1006 143<135 199 150 199 379 1120 1300 1343> 1397 41G<281 297 297 326 1202 1219 1219 1247>
VStem: 199 180<41 657 813 1006 1149 1393> 1120 180<41 657 657 657 813 1006 1149 1393>
LayerCount: 2
Fore
SplineSet
1343 1149 m 2,0,1
 1384 1149 1384 1149 1384 1087 c 2,2,-1
 1384 1067 l 2,3,4
 1384 1006 1384 1006 1343 1006 c 2,5,-1
 1300 1006 l 1,6,-1
 1300 41 l 2,7,8
 1300 -4 1300 -4 1219 -4 c 2,9,-1
 1202 -4 l 2,10,11
 1120 -4 1120 -4 1120 41 c 2,12,-1
 1120 657 l 1,13,-1
 379 657 l 1,14,-1
 379 41 l 2,15,16
 379 -4 379 -4 297 -4 c 2,17,-1
 281 -4 l 2,18,19
 199 -4 199 -4 199 41 c 2,20,-1
 199 1006 l 1,21,-1
 150 1006 l 2,22,23
 109 1006 109 1006 109 1067 c 2,24,-1
 109 1087 l 2,25,26
 109 1149 109 1149 150 1149 c 2,27,-1
 199 1149 l 1,28,-1
 199 1393 l 2,29,30
 199 1438 199 1438 281 1438 c 2,31,-1
 297 1438 l 2,32,33
 379 1438 379 1438 379 1393 c 2,34,-1
 379 1149 l 1,35,-1
 1120 1149 l 1,36,-1
 1120 1393 l 2,37,38
 1120 1438 1120 1438 1202 1438 c 2,39,-1
 1219 1438 l 2,40,41
 1300 1438 1300 1438 1300 1393 c 2,42,-1
 1300 1149 l 1,43,-1
 1343 1149 l 2,0,1
1120 1006 m 1,44,-1
 379 1006 l 1,45,-1
 379 813 l 1,46,-1
 1120 813 l 1,47,-1
 1120 1006 l 1,44,-1
EndSplineSet
Position2: "'cpsp' Capital Spacing lookup 3 subtable" dx=10 dy=0 dh=20 dv=0
EndChar

StartChar: Hcircumflex
Encoding: 292 292 68
Width: 1501
Flags: MW
HStem: -4 43G<252 281 281 297 1174 1202 1202 1219> 657 156<379 1120 379 1120> 1397 41G<281 297 297 326 1202 1219 1219 1247> 1542 291<536 776 551 776 725 946 725 950>
VStem: 199 180<41 657 813 1393> 1120 180<41 657 657 657 813 1393>
LayerCount: 2
Fore
SplineSet
776 1833 m 2,0,1
 841 1833 841 1833 870 1788 c 2,2,-1
 987 1608 l 2,3,4
 999 1590 999 1590 999 1573 c 0,5,6
 999 1542 999 1542 950 1542 c 2,7,-1
 946 1542 l 2,8,9
 909 1542 909 1542 879 1569 c 1,10,-1
 750 1720 l 1,11,-1
 625 1569 l 1,12,13
 595 1542 595 1542 555 1542 c 2,14,-1
 551 1542 l 2,15,16
 504 1542 504 1542 504 1571 c 0,17,18
 504 1587 504 1587 516 1608 c 1,19,-1
 631 1788 l 2,20,21
 660 1833 660 1833 725 1833 c 2,22,-1
 776 1833 l 2,0,1
1219 1438 m 2,23,24
 1300 1438 1300 1438 1300 1393 c 2,25,-1
 1300 41 l 2,26,27
 1300 -4 1300 -4 1219 -4 c 2,28,-1
 1202 -4 l 2,29,30
 1120 -4 1120 -4 1120 41 c 2,31,-1
 1120 657 l 1,32,-1
 379 657 l 1,33,-1
 379 41 l 2,34,35
 379 -4 379 -4 297 -4 c 2,36,-1
 281 -4 l 2,37,38
 199 -4 199 -4 199 41 c 2,39,-1
 199 1393 l 2,40,41
 199 1438 199 1438 281 1438 c 2,42,-1
 297 1438 l 2,43,44
 379 1438 379 1438 379 1393 c 2,45,-1
 379 813 l 1,46,-1
 1120 813 l 1,47,-1
 1120 1393 l 2,48,49
 1120 1438 1120 1438 1202 1438 c 2,50,-1
 1219 1438 l 2,23,24
EndSplineSet
Position2: "'cpsp' Capital Spacing lookup 3 subtable" dx=10 dy=0 dh=20 dv=0
EndChar

StartChar: Hdotbelow
Encoding: 7716 7716 69
Width: 1501
Flags: MW
HStem: -358 195<745 803> -4 43G<252 281 281 297 1174 1202 1202 1219> 657 156<379 1120 379 1120> 1397 41G<281 297 297 326 1202 1219 1219 1247>
VStem: 199 180<41 657 813 1393> 688 172<-313 -209 -327 -196> 1120 180<41 657 657 657 813 1393>
LayerCount: 2
Fore
SplineSet
1219 1438 m 2,0,1
 1300 1438 1300 1438 1300 1393 c 2,2,-1
 1300 41 l 2,3,4
 1300 -4 1300 -4 1219 -4 c 2,5,-1
 1202 -4 l 2,6,7
 1120 -4 1120 -4 1120 41 c 2,8,-1
 1120 657 l 1,9,-1
 379 657 l 1,10,-1
 379 41 l 2,11,12
 379 -4 379 -4 297 -4 c 2,13,-1
 281 -4 l 2,14,15
 199 -4 199 -4 199 41 c 2,16,-1
 199 1393 l 2,17,18
 199 1438 199 1438 281 1438 c 2,19,-1
 297 1438 l 2,20,21
 379 1438 379 1438 379 1393 c 2,22,-1
 379 813 l 1,23,-1
 1120 813 l 1,24,-1
 1120 1393 l 2,25,26
 1120 1438 1120 1438 1202 1438 c 2,27,-1
 1219 1438 l 2,0,1
688 -209 m 2,28,29
 688 -164 688 -164 778 -164 c 0,30,31
 860 -164 860 -164 860 -209 c 2,32,-1
 860 -313 l 2,33,34
 860 -358 860 -358 770 -358 c 0,35,36
 688 -358 688 -358 688 -313 c 2,37,-1
 688 -209 l 2,28,29
EndSplineSet
Position2: "'cpsp' Capital Spacing lookup 3 subtable" dx=10 dy=0 dh=20 dv=0
EndChar

StartChar: I
Encoding: 73 73 70
Width: 577
Flags: MW
HStem: -4 43G<252 281 281 297> 1397 41G<281 297 297 326>
VStem: 199 180<41 1393>
LayerCount: 2
Fore
SplineSet
297 1438 m 2,0,1
 379 1438 379 1438 379 1393 c 2,2,-1
 379 41 l 2,3,4
 379 -4 379 -4 297 -4 c 2,5,-1
 281 -4 l 2,6,7
 199 -4 199 -4 199 41 c 2,8,-1
 199 1393 l 2,9,10
 199 1438 199 1438 281 1438 c 2,11,-1
 297 1438 l 2,0,1
EndSplineSet
Position2: "'cpsp' Capital Spacing lookup 3 subtable" dx=10 dy=0 dh=20 dv=0
EndChar

StartChar: IJ
Encoding: 306 306 71
Width: 1400
Flags: MW
HStem: -12 160<758 865 731 954> -4 43G<252 281 281 297> 1397 41G<281 297 297 326 1133 1149 1149 1178>
VStem: 199 180<41 1393> 1051 180<399 420 420 1393>
LayerCount: 2
Fore
SplineSet
297 1438 m 2,0,1
 379 1438 379 1438 379 1393 c 2,2,-1
 379 41 l 2,3,4
 379 -4 379 -4 297 -4 c 2,5,-1
 281 -4 l 2,6,7
 199 -4 199 -4 199 41 c 2,8,-1
 199 1393 l 2,9,10
 199 1438 199 1438 281 1438 c 2,11,-1
 297 1438 l 2,0,1
1149 1438 m 2,12,13
 1231 1438 1231 1438 1231 1393 c 2,14,-1
 1231 420 l 2,15,16
 1231 -12 1231 -12 797 -12 c 0,17,18
 763 -12 763 -12 731 -9.5 c 128,-1,19
 699 -7 699 -7 665 -0.5 c 128,-1,20
 631 6 631 6 610.5 20 c 128,-1,21
 590 34 590 34 590 53 c 0,22,23
 590 74 590 74 602 120 c 128,-1,24
 614 166 614 166 635 166 c 0,25,26
 637 166 637 166 681 156.5 c 128,-1,27
 725 147 725 147 764 147 c 0,28,29
 916 147 916 147 983.5 207 c 128,-1,30
 1051 267 1051 267 1051 399 c 2,31,-1
 1051 1393 l 2,32,33
 1051 1438 1051 1438 1133 1438 c 2,34,-1
 1149 1438 l 2,12,13
EndSplineSet
Position2: "'cpsp' Capital Spacing lookup 3 subtable" dx=10 dy=0 dh=20 dv=0
EndChar

StartChar: Iacute
Encoding: 205 205 72
Width: 577
Flags: MW
HStem: -4 43G<252 281 281 297> 1397 41G<281 297 297 326>
VStem: 199 180<41 1393>
LayerCount: 2
Fore
SplineSet
453 1862 m 0,0,1
 551 1862 551 1862 551 1835 c 0,2,3
 551 1817 551 1817 445.275737715 1696.50565953 c 0,4,5
 393 1637 393 1637 358 1597 c 1,6,7
 325 1561 325 1561 254 1561 c 0,8,9
 207 1561 207 1561 207 1581 c 0,10,11
 207 1595 207 1595 227.5 1633.5 c 128,-1,12
 248 1672 248 1672 326 1808 c 0,13,14
 358 1862 358 1862 453 1862 c 0,0,1
297 1438 m 2,15,16
 379 1438 379 1438 379 1393 c 2,17,-1
 379 41 l 2,18,19
 379 -4 379 -4 297 -4 c 2,20,-1
 281 -4 l 2,21,22
 199 -4 199 -4 199 41 c 2,23,-1
 199 1393 l 2,24,25
 199 1438 199 1438 281 1438 c 2,26,-1
 297 1438 l 2,15,16
EndSplineSet
Position2: "'cpsp' Capital Spacing lookup 3 subtable" dx=10 dy=0 dh=20 dv=0
EndChar

StartChar: Ibreve
Encoding: 300 300 73
Width: 577
Flags: MW
HStem: -4 43G<252 281 281 297> 1397 41G<281 297 297 326> 1561 135<241 341 241 364>
VStem: 199 180<41 1393>
LayerCount: 2
Fore
SplineSet
555 1827 m 0,0,1
 586 1827 586 1827 586 1796 c 0,2,3
 586 1685 586 1685 498 1623 c 128,-1,4
 410 1561 410 1561 291 1561 c 0,5,6
 171 1561 171 1561 81.5 1623 c 128,-1,7
 -8 1685 -8 1685 -8 1796 c 0,8,9
 -8 1827 -8 1827 25 1827 c 0,10,11
 38 1827 38 1827 45 1823 c 128,-1,12
 52 1819 52 1819 54.5 1814.5 c 128,-1,13
 57 1810 57 1810 61.5 1797.5 c 128,-1,14
 66 1785 66 1785 70 1776 c 0,15,16
 114 1696 114 1696 291 1696 c 0,17,18
 466 1696 466 1696 510 1776 c 0,19,20
 514 1785 514 1785 518.5 1797.5 c 128,-1,21
 523 1810 523 1810 525.5 1814.5 c 128,-1,22
 528 1819 528 1819 535 1823 c 128,-1,23
 542 1827 542 1827 555 1827 c 0,0,1
297 1438 m 2,24,25
 379 1438 379 1438 379 1393 c 2,26,-1
 379 41 l 2,27,28
 379 -4 379 -4 297 -4 c 2,29,-1
 281 -4 l 2,30,31
 199 -4 199 -4 199 41 c 2,32,-1
 199 1393 l 2,33,34
 199 1438 199 1438 281 1438 c 2,35,-1
 297 1438 l 2,24,25
EndSplineSet
Position2: "'cpsp' Capital Spacing lookup 3 subtable" dx=10 dy=0 dh=20 dv=0
EndChar

StartChar: Icircumflex
Encoding: 206 206 74
Width: 577
Flags: MW
HStem: -4 43G<252 281 281 297> 1397 41G<281 297 297 326> 1542 291<73 313 88 313 262 483 262 487>
VStem: 199 180<41 1393>
LayerCount: 2
Fore
SplineSet
313 1833 m 2,0,1
 379 1833 379 1833 408 1788 c 2,2,-1
 524 1608 l 2,3,4
 537 1588 537 1588 537 1573 c 0,5,6
 537 1542 537 1542 487 1542 c 2,7,-1
 483 1542 l 2,8,9
 446 1542 446 1542 416 1569 c 1,10,-1
 287 1720 l 1,11,-1
 162 1569 l 1,12,13
 132 1542 132 1542 92 1542 c 2,14,-1
 88 1542 l 2,15,16
 41 1542 41 1542 41 1571 c 0,17,18
 41 1587 41 1587 53 1608 c 1,19,-1
 168 1788 l 2,20,21
 197 1833 197 1833 262 1833 c 2,22,-1
 313 1833 l 2,0,1
297 1438 m 2,23,24
 379 1438 379 1438 379 1393 c 2,25,-1
 379 41 l 2,26,27
 379 -4 379 -4 297 -4 c 2,28,-1
 281 -4 l 2,29,30
 199 -4 199 -4 199 41 c 2,31,-1
 199 1393 l 2,32,33
 199 1438 199 1438 281 1438 c 2,34,-1
 297 1438 l 2,23,24
EndSplineSet
Position2: "'cpsp' Capital Spacing lookup 3 subtable" dx=10 dy=0 dh=20 dv=0
EndChar

StartChar: Idieresis
Encoding: 207 207 75
Width: 577
Flags: MW
HStem: -4 43G<252 281 281 297> 1397 41G<281 297 297 326> 1606 195<113 170 408 465>
VStem: 55 172<1651 1755 1637 1768> 199 180<41 1393> 350 172<1651 1755 1637 1768>
LayerCount: 2
Fore
SplineSet
55 1755 m 2,0,1
 55 1800 55 1800 145 1800 c 0,2,3
 227 1800 227 1800 227 1755 c 2,4,-1
 227 1651 l 2,5,6
 227 1606 227 1606 137 1606 c 0,7,8
 55 1606 55 1606 55 1651 c 2,9,-1
 55 1755 l 2,0,1
350 1755 m 2,10,11
 350 1800 350 1800 440 1800 c 0,12,13
 522 1800 522 1800 522 1755 c 2,14,-1
 522 1651 l 2,15,16
 522 1606 522 1606 432 1606 c 0,17,18
 350 1606 350 1606 350 1651 c 2,19,-1
 350 1755 l 2,10,11
297 1438 m 2,20,21
 379 1438 379 1438 379 1393 c 2,22,-1
 379 41 l 2,23,24
 379 -4 379 -4 297 -4 c 2,25,-1
 281 -4 l 2,26,27
 199 -4 199 -4 199 41 c 2,28,-1
 199 1393 l 2,29,30
 199 1438 199 1438 281 1438 c 2,31,-1
 297 1438 l 2,20,21
EndSplineSet
Position2: "'cpsp' Capital Spacing lookup 3 subtable" dx=10 dy=0 dh=20 dv=0
EndChar

StartChar: Idotaccent
Encoding: 304 304 76
Width: 577
Flags: MW
HStem: -4 43G<252 281 281 297> 1397 41G<281 297 297 326> 1606 195<260 317>
VStem: 199 180<41 1393>
LayerCount: 2
Fore
SplineSet
203 1755 m 2,0,1
 203 1800 203 1800 293 1800 c 0,2,3
 375 1800 375 1800 375 1755 c 2,4,-1
 375 1651 l 2,5,6
 375 1606 375 1606 285 1606 c 0,7,8
 203 1606 203 1606 203 1651 c 2,9,-1
 203 1755 l 2,0,1
297 1438 m 2,10,11
 379 1438 379 1438 379 1393 c 2,12,-1
 379 41 l 2,13,14
 379 -4 379 -4 297 -4 c 2,15,-1
 281 -4 l 2,16,17
 199 -4 199 -4 199 41 c 2,18,-1
 199 1393 l 2,19,20
 199 1438 199 1438 281 1438 c 2,21,-1
 297 1438 l 2,10,11
EndSplineSet
Position2: "'cpsp' Capital Spacing lookup 3 subtable" dx=10 dy=0 dh=20 dv=0
EndChar

StartChar: Idotbelow
Encoding: 7882 7882 77
Width: 577
Flags: MW
HStem: -358 195<262 319> -4 43G<252 281 281 297> 1397 41G<281 297 297 326>
VStem: 199 180<41 1393> 205 172<-313 -209 -327 -196>
LayerCount: 2
Fore
SplineSet
297 1438 m 2,0,1
 379 1438 379 1438 379 1393 c 2,2,-1
 379 41 l 2,3,4
 379 -4 379 -4 297 -4 c 2,5,-1
 281 -4 l 2,6,7
 199 -4 199 -4 199 41 c 2,8,-1
 199 1393 l 2,9,10
 199 1438 199 1438 281 1438 c 2,11,-1
 297 1438 l 2,0,1
205 -209 m 2,12,13
 205 -164 205 -164 295 -164 c 0,14,15
 377 -164 377 -164 377 -209 c 2,16,-1
 377 -313 l 2,17,18
 377 -358 377 -358 287 -358 c 0,19,20
 205 -358 205 -358 205 -313 c 2,21,-1
 205 -209 l 2,12,13
EndSplineSet
Position2: "'cpsp' Capital Spacing lookup 3 subtable" dx=10 dy=0 dh=20 dv=0
EndChar

StartChar: Igrave
Encoding: 204 204 78
Width: 577
Flags: MW
HStem: -4 43G<252 281 281 297> 1397 41G<281 297 297 326>
VStem: 199 180<41 1393>
LayerCount: 2
Fore
SplineSet
145 1862 m 0,0,1
 240 1862 240 1862 272 1808 c 0,2,3
 350 1672 350 1672 370.5 1633.5 c 128,-1,4
 391 1595 391 1595 391 1581 c 0,5,6
 391 1561 391 1561 344 1561 c 0,7,8
 273 1561 273 1561 240 1597 c 1,9,10
 71.13437115 1790.41005165 71.13437115 1790.41005165 63.0386497654 1801.10273571 c 0,11,12
 47 1822.28629756 47 1822.28629756 47 1835 c 0,13,14
 47 1862 47 1862 145 1862 c 0,0,1
297 1438 m 2,15,16
 379 1438 379 1438 379 1393 c 2,17,-1
 379 41 l 2,18,19
 379 -4 379 -4 297 -4 c 2,20,-1
 281 -4 l 2,21,22
 199 -4 199 -4 199 41 c 2,23,-1
 199 1393 l 2,24,25
 199 1438 199 1438 281 1438 c 2,26,-1
 297 1438 l 2,15,16
EndSplineSet
Position2: "'cpsp' Capital Spacing lookup 3 subtable" dx=10 dy=0 dh=20 dv=0
EndChar

StartChar: Ihookabove
Encoding: 7880 7880 79
Width: 577
Flags: MW
HStem: -4 43G<252 281 281 297> 1397 41G<281 297 297 326> 1794 104<267 307>
VStem: 199 180<41 1393> 362 127<1688 1757>
LayerCount: 2
Fore
SplineSet
362 1739 m 0,0,1
 362 1766 362 1766 341 1780 c 128,-1,2
 320 1794 320 1794 287 1794 c 0,3,4
 259 1794 259 1794 238 1787 c 128,-1,5
 217 1780 217 1780 206.5 1773.5 c 128,-1,6
 196 1767 196 1767 193 1767 c 0,7,8
 181 1767 181 1767 162 1793.5 c 128,-1,9
 143 1820 143 1820 143 1835 c 0,10,11
 143 1855 143 1855 196.5 1876.5 c 128,-1,12
 250 1898 250 1898 303 1898 c 0,13,14
 332 1898 332 1898 362 1891 c 128,-1,15
 392 1884 392 1884 422 1868.5 c 128,-1,16
 452 1853 452 1853 470.5 1823 c 128,-1,17
 489 1793 489 1793 489 1753 c 0,18,19
 489 1706 489 1706 463.5 1659.5 c 128,-1,20
 438 1613 438 1613 405 1583 c 128,-1,21
 372 1553 372 1553 343 1534.5 c 128,-1,22
 314 1516 314 1516 303 1516 c 0,23,24
 287 1516 287 1516 261.5 1527 c 128,-1,25
 236 1538 236 1538 236 1550 c 0,26,27
 236 1566 236 1566 249 1582 c 128,-1,28
 262 1598 262 1598 280.5 1613 c 128,-1,29
 299 1628 299 1628 317.5 1645 c 128,-1,30
 336 1662 336 1662 349 1686.5 c 128,-1,31
 362 1711 362 1711 362 1739 c 0,0,1
297 1438 m 2,32,33
 379 1438 379 1438 379 1393 c 2,34,-1
 379 41 l 2,35,36
 379 -4 379 -4 297 -4 c 2,37,-1
 281 -4 l 2,38,39
 199 -4 199 -4 199 41 c 2,40,-1
 199 1393 l 2,41,42
 199 1438 199 1438 281 1438 c 2,43,-1
 297 1438 l 2,32,33
EndSplineSet
Position2: "'cpsp' Capital Spacing lookup 3 subtable" dx=10 dy=0 dh=20 dv=0
EndChar

StartChar: Imacron
Encoding: 298 298 80
Width: 577
Flags: MW
HStem: -4 43G<252 281 281 297> 1397 41G<281 297 297 326> 1616 143<47 518 61 518>
VStem: 199 180<41 1393>
LayerCount: 2
Fore
SplineSet
518 1759 m 2,0,1
 559 1759 559 1759 559 1698 c 2,2,-1
 559 1677 l 2,3,4
 559 1616 559 1616 518 1616 c 2,5,-1
 61 1616 l 2,6,7
 20 1616 20 1616 20 1677 c 2,8,-1
 20 1698 l 2,9,10
 20 1759 20 1759 61 1759 c 2,11,-1
 518 1759 l 2,0,1
297 1438 m 2,12,13
 379 1438 379 1438 379 1393 c 2,14,-1
 379 41 l 2,15,16
 379 -4 379 -4 297 -4 c 2,17,-1
 281 -4 l 2,18,19
 199 -4 199 -4 199 41 c 2,20,-1
 199 1393 l 2,21,22
 199 1438 199 1438 281 1438 c 2,23,-1
 297 1438 l 2,12,13
EndSplineSet
Position2: "'cpsp' Capital Spacing lookup 3 subtable" dx=10 dy=0 dh=20 dv=0
EndChar

StartChar: Iogonek
Encoding: 302 302 81
Width: 577
Flags: MW
HStem: -375 143<419 458 419 471> -2 43G 1397 41G<281 297 297 326>
VStem: 199 180<41 1393>
LayerCount: 2
Fore
SplineSet
379 41 m 2,0,1
 379 9 379 9 340 0 c 1,2,-1
 340 -2 l 2,3,4
 340 -14 340 -14 327.5 -57 c 128,-1,5
 315 -100 315 -100 315 -127 c 0,6,7
 315 -231 315 -231 442 -231 c 0,8,9
 457 -231 457 -231 494.5 -221 c 128,-1,10
 532 -211 532 -211 549 -211 c 0,11,12
 588 -211 588 -211 588 -262 c 0,13,14
 588 -327 588 -327 546 -351 c 128,-1,15
 504 -375 504 -375 420 -375 c 0,16,17
 358 -375 358 -375 311 -358.5 c 128,-1,18
 264 -342 264 -342 239.5 -319 c 128,-1,19
 215 -296 215 -296 200.5 -264.5 c 128,-1,20
 186 -233 186 -233 182 -210.5 c 128,-1,21
 178 -188 178 -188 178 -166 c 0,22,23
 178 -46 178 -46 231 2 c 1,24,25
 199 13 199 13 199 41 c 2,26,-1
 199 1393 l 2,27,28
 199 1438 199 1438 281 1438 c 2,29,-1
 297 1438 l 2,30,31
 379 1438 379 1438 379 1393 c 2,32,-1
 379 41 l 2,0,1
EndSplineSet
Position2: "'cpsp' Capital Spacing lookup 3 subtable" dx=10 dy=0 dh=20 dv=0
EndChar

StartChar: Itilde
Encoding: 296 296 82
Width: 577
Flags: MW
HStem: -4 43G<252 281 281 297> 1397 41G<281 297 297 326> 1561 131<393 426> 1622 131<153 186>
VStem: 199 180<41 1393>
LayerCount: 2
Fore
SplineSet
518 1739 m 0,0,1
 531 1749 531 1749 547 1749 c 0,2,3
 568 1749 568 1749 582 1731 c 0,4,5
 600 1707 600 1707 600 1688 c 0,6,7
 600 1667 600 1667 578 1645 c 1,8,9
 475 1561 475 1561 389 1561 c 0,10,11
 316 1561 316 1561 254 1593 c 0,12,13
 252 1594 252 1594 238 1601.5 c 128,-1,14
 224 1609 224 1609 220.5 1610.5 c 128,-1,15
 217 1612 217 1612 206.5 1616 c 128,-1,16
 196 1620 196 1620 187.5 1621 c 128,-1,17
 179 1622 179 1622 168 1622 c 0,18,19
 124 1622 124 1622 68 1583 c 0,20,21
 47 1569 47 1569 33 1569 c 0,22,23
 11 1569 11 1569 -8 1597 c 0,24,25
 -20 1615 -20 1615 -20 1632 c 0,26,27
 -20 1654 -20 1654 0 1671 c 1,28,29
 106 1753 106 1753 190 1753 c 0,30,31
 207 1753 207 1753 222.5 1751 c 128,-1,32
 238 1749 238 1749 248 1747 c 128,-1,33
 258 1745 258 1745 270.5 1739.5 c 128,-1,34
 283 1734 283 1734 287.5 1731.5 c 128,-1,35
 292 1729 292 1729 304.5 1722 c 128,-1,36
 317 1715 317 1715 319 1714 c 0,37,38
 361 1692 361 1692 412 1692 c 0,39,40
 456 1692 456 1692 518 1739 c 0,0,1
297 1438 m 2,41,42
 379 1438 379 1438 379 1393 c 2,43,-1
 379 41 l 2,44,45
 379 -4 379 -4 297 -4 c 2,46,-1
 281 -4 l 2,47,48
 199 -4 199 -4 199 41 c 2,49,-1
 199 1393 l 2,50,51
 199 1438 199 1438 281 1438 c 2,52,-1
 297 1438 l 2,41,42
EndSplineSet
Position2: "'cpsp' Capital Spacing lookup 3 subtable" dx=10 dy=0 dh=20 dv=0
EndChar

StartChar: J
Encoding: 74 74 83
Width: 823
Flags: MW
HStem: -12 160<180 288 154 377> 1397 41G<555 571 571 600>
VStem: 473 180<399 420 420 1393>
LayerCount: 2
Fore
SplineSet
571 1438 m 2,0,1
 653 1438 653 1438 653 1393 c 2,2,-1
 653 420 l 2,3,4
 653 -12 653 -12 219 -12 c 0,5,6
 185 -12 185 -12 153 -9.5 c 128,-1,7
 121 -7 121 -7 87 -0.5 c 128,-1,8
 53 6 53 6 32.5 20 c 128,-1,9
 12 34 12 34 12 53 c 0,10,11
 12 74 12 74 24 120 c 128,-1,12
 36 166 36 166 57 166 c 0,13,14
 59 166 59 166 103 156.5 c 128,-1,15
 147 147 147 147 186 147 c 0,16,17
 338 147 338 147 405.5 207 c 128,-1,18
 473 267 473 267 473 399 c 2,19,-1
 473 1393 l 2,20,21
 473 1438 473 1438 555 1438 c 2,22,-1
 571 1438 l 2,0,1
EndSplineSet
Position2: "'cpsp' Capital Spacing lookup 3 subtable" dx=10 dy=0 dh=20 dv=0
EndChar

StartChar: Jcircumflex
Encoding: 308 308 84
Width: 823
Flags: MW
HStem: -12 160<180 288 154 377> 1397 41G<555 571 571 600> 1542 291<339 580 354 580 528 750 528 754>
VStem: 473 180<399 420 420 1393>
LayerCount: 2
Fore
SplineSet
580 1833 m 2,0,1
 645 1833 645 1833 674 1788 c 2,2,-1
 791 1608 l 2,3,4
 803 1590 803 1590 803 1573 c 0,5,6
 803 1542 803 1542 754 1542 c 2,7,-1
 750 1542 l 2,8,9
 712 1542 712 1542 682 1569 c 1,10,-1
 553 1720 l 1,11,-1
 428 1569 l 1,12,13
 398 1542 398 1542 358 1542 c 2,14,-1
 354 1542 l 2,15,16
 307 1542 307 1542 307 1571 c 0,17,18
 307 1587 307 1587 319 1608 c 1,19,-1
 434 1788 l 2,20,21
 463 1833 463 1833 528 1833 c 2,22,-1
 580 1833 l 2,0,1
571 1438 m 2,23,24
 653 1438 653 1438 653 1393 c 2,25,-1
 653 420 l 2,26,27
 653 -12 653 -12 219 -12 c 0,28,29
 185 -12 185 -12 153 -9.5 c 128,-1,30
 121 -7 121 -7 87 -0.5 c 128,-1,31
 53 6 53 6 32.5 20 c 128,-1,32
 12 34 12 34 12 53 c 0,33,34
 12 74 12 74 24 120 c 128,-1,35
 36 166 36 166 57 166 c 0,36,37
 59 166 59 166 103 156.5 c 128,-1,38
 147 147 147 147 186 147 c 0,39,40
 338 147 338 147 405.5 207 c 128,-1,41
 473 267 473 267 473 399 c 2,42,-1
 473 1393 l 2,43,44
 473 1438 473 1438 555 1438 c 2,45,-1
 571 1438 l 2,23,24
EndSplineSet
Position2: "'cpsp' Capital Spacing lookup 3 subtable" dx=10 dy=0 dh=20 dv=0
EndChar

StartChar: K
Encoding: 75 75 85
Width: 1179
Flags: MW
HStem: -4 43G<252 281 281 297 1063 1085 1085 1110> 682 84<379 387 379 387> 1397 41G<281 297 297 326 1001 1022 1022 1047>
VStem: 199 180<41 682 766 1393>
LayerCount: 2
Fore
SplineSet
1022 1438 m 2,0,1
 1057 1438 1057 1438 1075.5 1430 c 128,-1,2
 1094 1422 1094 1422 1094 1411 c 0,3,4
 1094 1394 1094 1394 1073 1370 c 1,5,-1
 561 731 l 1,6,-1
 1182 57 l 2,7,8
 1200 36 1200 36 1200 25 c 0,9,10
 1200 8 1200 8 1179.5 2 c 128,-1,11
 1159 -4 1159 -4 1110 -4 c 2,12,-1
 1085 -4 l 2,13,14
 1055 -4 1055 -4 1040 -3 c 128,-1,15
 1025 -2 1025 -2 1005 4 c 128,-1,16
 985 10 985 10 973 23 c 2,17,-1
 387 682 l 1,18,-1
 379 682 l 1,19,-1
 379 41 l 2,20,21
 379 -4 379 -4 297 -4 c 2,22,-1
 281 -4 l 2,23,24
 199 -4 199 -4 199 41 c 2,25,-1
 199 1393 l 2,26,27
 199 1438 199 1438 281 1438 c 2,28,-1
 297 1438 l 2,29,30
 379 1438 379 1438 379 1393 c 2,31,-1
 379 766 l 1,32,-1
 387 766 l 1,33,-1
 891 1409 l 2,34,35
 914 1438 914 1438 1001 1438 c 2,36,-1
 1022 1438 l 2,0,1
EndSplineSet
Position2: "'cpsp' Capital Spacing lookup 3 subtable" dx=10 dy=0 dh=20 dv=0
EndChar

StartChar: Kcommaaccent
Encoding: 310 310 86
Width: 1179
Flags: MW
HStem: -481 43G<458 503> -4 43G<252 281 281 297 1063 1085 1085 1110> 682 84<379 387 379 387> 1397 41G<281 297 297 326 1001 1022 1022 1047>
VStem: 199 180<41 682 766 1393> 498 182<-248 -151>
LayerCount: 2
Fore
SplineSet
1022 1438 m 2,0,1
 1057 1438 1057 1438 1075.5 1430 c 128,-1,2
 1094 1422 1094 1422 1094 1411 c 0,3,4
 1094 1394 1094 1394 1073 1370 c 1,5,-1
 561 731 l 1,6,-1
 1182 57 l 2,7,8
 1200 36 1200 36 1200 25 c 0,9,10
 1200 8 1200 8 1179.5 2 c 128,-1,11
 1159 -4 1159 -4 1110 -4 c 2,12,-1
 1085 -4 l 2,13,14
 1055 -4 1055 -4 1040 -3 c 128,-1,15
 1025 -2 1025 -2 1005 4 c 128,-1,16
 985 10 985 10 973 23 c 2,17,-1
 387 682 l 1,18,-1
 379 682 l 1,19,-1
 379 41 l 2,20,21
 379 -4 379 -4 297 -4 c 2,22,-1
 281 -4 l 2,23,24
 199 -4 199 -4 199 41 c 2,25,-1
 199 1393 l 2,26,27
 199 1438 199 1438 281 1438 c 2,28,-1
 297 1438 l 2,29,30
 379 1438 379 1438 379 1393 c 2,31,-1
 379 766 l 1,32,-1
 387 766 l 1,33,-1
 891 1409 l 2,34,35
 914 1438 914 1438 1001 1438 c 2,36,-1
 1022 1438 l 2,0,1
598 -104 m 2,37,38
 636 -104 636 -104 658 -120 c 128,-1,39
 680 -136 680 -136 680 -162 c 0,40,41
 680 -232 680 -232 657 -294.5 c 128,-1,42
 634 -357 634 -357 600 -396 c 128,-1,43
 566 -435 566 -435 531 -458 c 128,-1,44
 496 -481 496 -481 469 -481 c 0,45,46
 410 -481 410 -481 410 -451 c 0,47,48
 410 -434 410 -434 432 -395.5 c 128,-1,49
 454 -357 454 -357 476 -297.5 c 128,-1,50
 498 -238 498 -238 498 -170 c 0,51,52
 498 -140 498 -140 519 -122 c 128,-1,53
 540 -104 540 -104 580 -104 c 2,54,-1
 598 -104 l 2,37,38
EndSplineSet
Position2: "'cpsp' Capital Spacing lookup 3 subtable" dx=10 dy=0 dh=20 dv=0
EndChar

StartChar: L
Encoding: 76 76 87
Width: 991
Flags: MW
HStem: 0 156<239 942 379 942 379 942> 1397 41G<281 297 297 326>
VStem: 199 180<156 1393 156 1393 156 1407>
LayerCount: 2
Fore
SplineSet
297 1438 m 2,0,1
 379 1438 379 1438 379 1393 c 2,2,-1
 379 156 l 1,3,-1
 942 156 l 2,4,5
 983 156 983 156 983 94 c 2,6,-1
 983 61 l 2,7,8
 983 0 983 0 942 0 c 2,9,-1
 260 0 l 2,10,11
 228 0 228 0 213.5 14.5 c 128,-1,12
 199 29 199 29 199 61 c 2,13,-1
 199 1393 l 2,14,15
 199 1438 199 1438 281 1438 c 2,16,-1
 297 1438 l 2,0,1
EndSplineSet
Position2: "'cpsp' Capital Spacing lookup 3 subtable" dx=10 dy=0 dh=20 dv=0
EndChar

StartChar: LJ
Encoding: 455 455 88
Width: 1470
Flags: MW
HStem: -319 160<823 931 797 1020> 0 156<239 799 379 799 379 799> 1397 41G<281 297 297 326 1198 1214 1214 1243>
VStem: 199 180<156 1393 156 1393 156 1407> 1116 180<92 113 113 1393>
LayerCount: 2
Fore
SplineSet
297 1438 m 2,0,1
 379 1438 379 1438 379 1393 c 2,2,-1
 379 156 l 1,3,-1
 799 156 l 2,4,5
 840 156 840 156 840 94 c 2,6,-1
 840 61 l 2,7,8
 840 0 840 0 799 0 c 2,9,-1
 260 0 l 2,10,11
 228 0 228 0 213.5 14.5 c 128,-1,12
 199 29 199 29 199 61 c 2,13,-1
 199 1393 l 2,14,15
 199 1438 199 1438 281 1438 c 2,16,-1
 297 1438 l 2,0,1
1214 1438 m 2,17,18
 1296 1438 1296 1438 1296 1393 c 2,19,-1
 1296 113 l 2,20,21
 1296 -319 1296 -319 862 -319 c 0,22,23
 828 -319 828 -319 796 -316.5 c 128,-1,24
 764 -314 764 -314 730 -307.5 c 128,-1,25
 696 -301 696 -301 675.5 -287 c 128,-1,26
 655 -273 655 -273 655 -254 c 0,27,28
 655 -233 655 -233 667 -187 c 128,-1,29
 679 -141 679 -141 700 -141 c 0,30,31
 702 -141 702 -141 746 -150.5 c 128,-1,32
 790 -160 790 -160 829 -160 c 0,33,34
 981 -160 981 -160 1048.5 -100 c 128,-1,35
 1116 -40 1116 -40 1116 92 c 2,36,-1
 1116 1393 l 2,37,38
 1116 1438 1116 1438 1198 1438 c 2,39,-1
 1214 1438 l 2,17,18
EndSplineSet
Position2: "'cpsp' Capital Spacing lookup 3 subtable" dx=10 dy=0 dh=20 dv=0
EndChar

StartChar: Lacute
Encoding: 313 313 89
Width: 991
Flags: MW
HStem: 0 156<239 942 379 942 379 942> 1397 41G<281 297 297 326>
VStem: 199 180<156 1393 156 1393 156 1407>
LayerCount: 2
Fore
SplineSet
461 1866 m 0,0,1
 559 1866 559 1866 559 1839 c 0,2,3
 559 1826 559 1826 542.5 1804.5 c 128,-1,4
 526 1783 526 1783 452.922441772 1699.9816225 c 0,5,6
 401 1641 401 1641 367 1602 c 1,7,8
 333 1565 333 1565 262 1565 c 0,9,10
 215 1565 215 1565 215 1585 c 0,11,12
 215 1599 215 1599 235.5 1637.5 c 128,-1,13
 256 1676 256 1676 334 1812 c 0,14,15
 366 1866 366 1866 461 1866 c 0,0,1
297 1438 m 2,16,17
 379 1438 379 1438 379 1393 c 2,18,-1
 379 156 l 1,19,-1
 942 156 l 2,20,21
 983 156 983 156 983 94 c 2,22,-1
 983 61 l 2,23,24
 983 0 983 0 942 0 c 2,25,-1
 260 0 l 2,26,27
 228 0 228 0 213.5 14.5 c 128,-1,28
 199 29 199 29 199 61 c 2,29,-1
 199 1393 l 2,30,31
 199 1438 199 1438 281 1438 c 2,32,-1
 297 1438 l 2,16,17
EndSplineSet
Position2: "'cpsp' Capital Spacing lookup 3 subtable" dx=10 dy=0 dh=20 dv=0
EndChar

StartChar: Lcaron
Encoding: 317 317 90
Width: 991
Flags: MW
HStem: 0 156<239 942 379 942 379 942> 1077 43G<650 686> 1393 41G 1397 41G<281 297 297 326>
VStem: 199 180<156 1393 156 1393 156 1407> 629 182<1295 1388>
LayerCount: 2
Fore
SplineSet
297 1438 m 2,0,1
 379 1438 379 1438 379 1393 c 2,2,-1
 379 156 l 1,3,-1
 942 156 l 2,4,5
 983 156 983 156 983 94 c 2,6,-1
 983 61 l 2,7,8
 983 0 983 0 942 0 c 2,9,-1
 260 0 l 2,10,11
 228 0 228 0 213.5 14.5 c 128,-1,12
 199 29 199 29 199 61 c 2,13,-1
 199 1393 l 2,14,15
 199 1438 199 1438 281 1438 c 2,16,-1
 297 1438 l 2,0,1
729 1434 m 2,17,18
 767 1434 767 1434 789 1418 c 128,-1,19
 811 1402 811 1402 811 1376 c 0,20,21
 811 1251 811 1251 758.5 1164 c 128,-1,22
 706 1077 706 1077 662 1077 c 0,23,24
 602 1077 602 1077 602 1108 c 0,25,26
 602 1117 602 1117 615.5 1200 c 128,-1,27
 629 1283 629 1283 629 1368 c 0,28,29
 629 1398 629 1398 650 1416 c 128,-1,30
 671 1434 671 1434 711 1434 c 2,31,-1
 729 1434 l 2,17,18
EndSplineSet
Position2: "'cpsp' Capital Spacing lookup 3 subtable" dx=10 dy=0 dh=20 dv=0
EndChar

StartChar: Lcommaaccent
Encoding: 315 315 91
Width: 991
Flags: MW
HStem: -481 43G<445 490> 0 156<239 942 379 942 379 942> 1397 41G<281 297 297 326>
VStem: 199 180<156 1393 156 1393 156 1407> 485 182<-248 -151>
LayerCount: 2
Fore
SplineSet
297 1438 m 2,0,1
 379 1438 379 1438 379 1393 c 2,2,-1
 379 156 l 1,3,-1
 942 156 l 2,4,5
 983 156 983 156 983 94 c 2,6,-1
 983 61 l 2,7,8
 983 0 983 0 942 0 c 2,9,-1
 260 0 l 2,10,11
 228 0 228 0 213.5 14.5 c 128,-1,12
 199 29 199 29 199 61 c 2,13,-1
 199 1393 l 2,14,15
 199 1438 199 1438 281 1438 c 2,16,-1
 297 1438 l 2,0,1
586 -104 m 2,17,18
 624 -104 624 -104 646 -120 c 128,-1,19
 668 -136 668 -136 668 -162 c 0,20,21
 668 -232 668 -232 645 -294.5 c 128,-1,22
 622 -357 622 -357 588 -396 c 128,-1,23
 554 -435 554 -435 519 -458 c 128,-1,24
 484 -481 484 -481 457 -481 c 0,25,26
 397 -481 397 -481 397 -451 c 0,27,28
 397 -434 397 -434 419 -395.5 c 128,-1,29
 441 -357 441 -357 463 -297.5 c 128,-1,30
 485 -238 485 -238 485 -170 c 0,31,32
 485 -140 485 -140 506 -122 c 128,-1,33
 527 -104 527 -104 567 -104 c 2,34,-1
 586 -104 l 2,17,18
EndSplineSet
Position2: "'cpsp' Capital Spacing lookup 3 subtable" dx=10 dy=0 dh=20 dv=0
EndChar

StartChar: Ldot
Encoding: 319 319 92
Width: 991
Flags: MW
HStem: 0 156<239 942 379 942 379 942> 633 211<587 646> 1397 41G<281 297 297 326>
VStem: 199 180<156 1393 156 1393 156 1407> 512 211<708 767>
LayerCount: 2
Fore
SplineSet
297 1438 m 2,0,1
 379 1438 379 1438 379 1393 c 2,2,-1
 379 156 l 1,3,-1
 942 156 l 2,4,5
 983 156 983 156 983 94 c 2,6,-1
 983 61 l 2,7,8
 983 0 983 0 942 0 c 2,9,-1
 260 0 l 2,10,11
 228 0 228 0 213.5 14.5 c 128,-1,12
 199 29 199 29 199 61 c 2,13,-1
 199 1393 l 2,14,15
 199 1438 199 1438 281 1438 c 2,16,-1
 297 1438 l 2,0,1
616 844 m 128,-1,18
 660 844 660 844 691.5 812.5 c 128,-1,19
 723 781 723 781 723 737 c 128,-1,20
 723 693 723 693 692 663 c 128,-1,21
 661 633 661 633 616 633 c 0,22,23
 572 633 572 633 542 663 c 128,-1,24
 512 693 512 693 512 737 c 0,25,26
 512 782 512 782 542 813 c 128,-1,17
 572 844 572 844 616 844 c 128,-1,18
EndSplineSet
Ligature2: "Ligature Substitution lookup 20 subtable" L periodcentered
Position2: "'cpsp' Capital Spacing lookup 3 subtable" dx=10 dy=0 dh=20 dv=0
EndChar

StartChar: Lj
Encoding: 456 456 93
Width: 1556
Flags: MW
HStem: -434 147<1078 1117 1058 1157> 0 156<239 942 379 942 379 942> 1329 211<1243 1296 1272 1296> 1397 41G<281 297 297 326>
VStem: 199 180<156 1393 156 1393 156 1407> 1190 188<1374 1495 1360 1509> 1198 172<-135 1030>
LayerCount: 2
Fore
SplineSet
1296 1540 m 2,0,1
 1378 1540 1378 1540 1378 1495 c 2,2,-1
 1378 1374 l 2,3,4
 1378 1329 1378 1329 1296 1329 c 2,5,-1
 1272 1329 l 2,6,7
 1190 1329 1190 1329 1190 1374 c 2,8,-1
 1190 1495 l 2,9,10
 1190 1540 1190 1540 1272 1540 c 2,11,-1
 1296 1540 l 2,0,1
297 1438 m 2,12,13
 379 1438 379 1438 379 1393 c 2,14,-1
 379 156 l 1,15,-1
 942 156 l 2,16,17
 983 156 983 156 983 94 c 2,18,-1
 983 61 l 2,19,20
 983 0 983 0 942 0 c 2,21,-1
 260 0 l 2,22,23
 228 0 228 0 213.5 14.5 c 128,-1,24
 199 29 199 29 199 61 c 2,25,-1
 199 1393 l 2,26,27
 199 1438 199 1438 281 1438 c 2,28,-1
 297 1438 l 2,12,13
1288 1075 m 2,29,30
 1370 1075 1370 1075 1370 1030 c 2,31,-1
 1370 -152 l 2,32,33
 1370 -220 1370 -220 1352 -272.5 c 128,-1,34
 1334 -325 1334 -325 1307 -354.5 c 128,-1,35
 1280 -384 1280 -384 1243 -403 c 128,-1,36
 1206 -422 1206 -422 1173 -428 c 128,-1,37
 1140 -434 1140 -434 1106 -434 c 0,38,39
 956 -434 956 -434 956 -373 c 0,40,41
 956 -352 956 -352 968 -314 c 128,-1,42
 980 -276 980 -276 999 -276 c 0,43,44
 1003 -276 1003 -276 1027.5 -281.5 c 128,-1,45
 1052 -287 1052 -287 1087 -287 c 0,46,47
 1198 -287 1198 -287 1198 -135 c 2,48,-1
 1198 1030 l 2,49,50
 1198 1075 1198 1075 1280 1075 c 2,51,-1
 1288 1075 l 2,29,30
EndSplineSet
Position2: "'cpsp' Capital Spacing lookup 3 subtable" dx=10 dy=0 dh=20 dv=0
EndChar

StartChar: Lslash
Encoding: 321 321 94
Width: 995
Flags: MW
HStem: 0 156<214 950 354 950 354 950> 1397 41G<256 272 272 301>
VStem: 174 180<156 713 713 713 807 821 915 1393>
LayerCount: 2
Fore
SplineSet
272 1438 m 2,0,1
 354 1438 354 1438 354 1393 c 2,2,-1
 354 915 l 1,3,-1
 575 1047 l 1,4,5
 591 1055 591 1055 596 1055 c 0,6,7
 614 1055 614 1055 614 1026 c 2,8,-1
 614 1014 l 2,9,10
 614 974 614 974 575 952 c 2,11,-1
 354 821 l 1,12,-1
 354 156 l 1,13,-1
 950 156 l 2,14,15
 991 156 991 156 991 94 c 2,16,-1
 991 61 l 2,17,18
 991 0 991 0 950 0 c 2,19,-1
 236 0 l 2,20,21
 204 0 204 0 189 14.5 c 128,-1,22
 174 29 174 29 174 61 c 2,23,-1
 174 713 l 1,24,-1
 35 631 l 1,25,26
 24 623 24 623 14 623 c 0,27,28
 -4 623 -4 623 -4 651 c 2,29,-1
 -4 664 l 2,30,31
 -4 703 -4 703 35 725 c 2,32,-1
 174 807 l 1,33,-1
 174 1393 l 2,34,35
 174 1438 174 1438 256 1438 c 2,36,-1
 272 1438 l 2,0,1
EndSplineSet
Position2: "'cpsp' Capital Spacing lookup 3 subtable" dx=10 dy=0 dh=20 dv=0
EndChar

StartChar: M
Encoding: 77 77 95
Width: 1726
Flags: MW
HStem: -4 43G<238 266 266 281 1417 1446 1446 1460> 1397 41G<266 340 340 365 1393 1460 1460 1489>
VStem: 184 178<41 1155> 1364 178<41 1143 1143 1143>
LayerCount: 2
Fore
SplineSet
1460 1438 m 2,0,1
 1542 1438 1542 1438 1542 1393 c 2,2,-1
 1542 41 l 2,3,4
 1542 -4 1542 -4 1460 -4 c 2,5,-1
 1446 -4 l 2,6,7
 1364 -4 1364 -4 1364 41 c 2,8,-1
 1364 1143 l 1,9,-1
 1360 1135 l 1,10,-1
 952 426 l 2,11,12
 937 399 937 399 907 399 c 2,13,-1
 825 399 l 2,14,15
 795 399 795 399 780 426 c 2,16,-1
 367 1147 l 1,17,-1
 362 1155 l 1,18,-1
 362 41 l 2,19,20
 362 -4 362 -4 281 -4 c 2,21,-1
 266 -4 l 2,22,23
 184 -4 184 -4 184 41 c 2,24,-1
 184 1393 l 2,25,26
 184 1438 184 1438 266 1438 c 2,27,-1
 340 1438 l 2,28,29
 407 1438 407 1438 426 1401 c 1,30,-1
 813 729 l 1,31,-1
 866 600 l 1,32,-1
 920 717 l 1,33,-1
 1307 1401 l 1,34,35
 1326 1438 1326 1438 1393 1438 c 2,36,-1
 1460 1438 l 2,0,1
EndSplineSet
Position2: "'cpsp' Capital Spacing lookup 3 subtable" dx=10 dy=0 dh=20 dv=0
EndChar

StartChar: N
Encoding: 78 78 96
Width: 1472
Flags: MW
HStem: -4 43G<238 266 266 281 1146 1165 1165 1206> 1397 41G<266 309 309 332 1192 1206 1206 1235>
VStem: 184 178<41 1149> 1110 178<297 1393>
LayerCount: 2
Fore
SplineSet
1206 1438 m 2,0,1
 1288 1438 1288 1438 1288 1393 c 2,2,-1
 1288 41 l 2,3,4
 1288 -4 1288 -4 1206 -4 c 2,5,-1
 1165 -4 l 2,6,7
 1113 -4 1113 -4 1094 25 c 2,8,-1
 418 1044 l 1,9,-1
 362 1149 l 1,10,-1
 362 41 l 2,11,12
 362 -4 362 -4 281 -4 c 2,13,-1
 266 -4 l 2,14,15
 184 -4 184 -4 184 41 c 2,16,-1
 184 1393 l 2,17,18
 184 1438 184 1438 266 1438 c 2,19,-1
 309 1438 l 2,20,21
 343 1438 343 1438 361.5 1429.5 c 128,-1,22
 380 1421 380 1421 395 1399 c 2,23,-1
 1049 412 l 1,24,-1
 1110 297 l 1,25,-1
 1110 1393 l 2,26,27
 1110 1438 1110 1438 1192 1438 c 2,28,-1
 1206 1438 l 2,0,1
EndSplineSet
Position2: "'cpsp' Capital Spacing lookup 3 subtable" dx=10 dy=0 dh=20 dv=0
EndChar

StartChar: NJ
Encoding: 458 458 97
Width: 2295
Flags: MW
HStem: -12 160<1653 1760 1626 1849> -4 43G<238 266 266 281 1146 1165 1165 1206> 1397 41G<266 309 309 332 1192 1206 1206 1235 2028 2044 2044 2073>
VStem: 184 178<41 1149> 1110 178<297 1393> 1946 180<399 420 420 1393>
LayerCount: 2
Fore
SplineSet
1206 1438 m 2,0,1
 1288 1438 1288 1438 1288 1393 c 2,2,-1
 1288 41 l 2,3,4
 1288 -4 1288 -4 1206 -4 c 2,5,-1
 1165 -4 l 2,6,7
 1113 -4 1113 -4 1094 25 c 2,8,-1
 418 1044 l 1,9,-1
 362 1149 l 1,10,-1
 362 41 l 2,11,12
 362 -4 362 -4 281 -4 c 2,13,-1
 266 -4 l 2,14,15
 184 -4 184 -4 184 41 c 2,16,-1
 184 1393 l 2,17,18
 184 1438 184 1438 266 1438 c 2,19,-1
 309 1438 l 2,20,21
 343 1438 343 1438 361.5 1429.5 c 128,-1,22
 380 1421 380 1421 395 1399 c 2,23,-1
 1049 412 l 1,24,-1
 1110 297 l 1,25,-1
 1110 1393 l 2,26,27
 1110 1438 1110 1438 1192 1438 c 2,28,-1
 1206 1438 l 2,0,1
2044 1438 m 2,29,30
 2126 1438 2126 1438 2126 1393 c 2,31,-1
 2126 420 l 2,32,33
 2126 -12 2126 -12 1692 -12 c 0,34,35
 1658 -12 1658 -12 1626 -9.5 c 128,-1,36
 1594 -7 1594 -7 1560 -0.5 c 128,-1,37
 1526 6 1526 6 1505.5 20 c 128,-1,38
 1485 34 1485 34 1485 53 c 0,39,40
 1485 74 1485 74 1497 120 c 128,-1,41
 1509 166 1509 166 1530 166 c 0,42,43
 1532 166 1532 166 1576 156.5 c 128,-1,44
 1620 147 1620 147 1659 147 c 0,45,46
 1811 147 1811 147 1878.5 207 c 128,-1,47
 1946 267 1946 267 1946 399 c 2,48,-1
 1946 1393 l 2,49,50
 1946 1438 1946 1438 2028 1438 c 2,51,-1
 2044 1438 l 2,29,30
EndSplineSet
Position2: "'cpsp' Capital Spacing lookup 3 subtable" dx=10 dy=0 dh=20 dv=0
EndChar

StartChar: Nacute
Encoding: 323 323 98
Width: 1472
Flags: MW
HStem: -4 43G<238 266 266 281 1146 1165 1165 1206> 1397 41G<266 309 309 332 1192 1206 1206 1235>
VStem: 184 178<41 1149> 1110 178<297 1393>
LayerCount: 2
Fore
SplineSet
901 1862 m 0,0,1
 999 1862 999 1862 999 1835 c 0,2,3
 999 1821 999 1821 982 1799 c 128,-1,4
 965 1777 965 1777 883.078686952 1683.8672606 c 0,5,6
 837 1631 837 1631 807 1597 c 0,7,8
 774 1561 774 1561 702 1561 c 0,9,10
 655 1561 655 1561 655 1581 c 0,11,12
 655 1595 655 1595 675.5 1633.5 c 128,-1,13
 696 1672 696 1672 774 1808 c 0,14,15
 806 1862 806 1862 901 1862 c 0,0,1
1206 1438 m 2,16,17
 1288 1438 1288 1438 1288 1393 c 2,18,-1
 1288 41 l 2,19,20
 1288 -4 1288 -4 1206 -4 c 2,21,-1
 1165 -4 l 2,22,23
 1113 -4 1113 -4 1094 25 c 2,24,-1
 418 1044 l 1,25,-1
 362 1149 l 1,26,-1
 362 41 l 2,27,28
 362 -4 362 -4 281 -4 c 2,29,-1
 266 -4 l 2,30,31
 184 -4 184 -4 184 41 c 2,32,-1
 184 1393 l 2,33,34
 184 1438 184 1438 266 1438 c 2,35,-1
 309 1438 l 2,36,37
 343 1438 343 1438 361.5 1429.5 c 128,-1,38
 380 1421 380 1421 395 1399 c 2,39,-1
 1049 412 l 1,40,-1
 1110 297 l 1,41,-1
 1110 1393 l 2,42,43
 1110 1438 1110 1438 1192 1438 c 2,44,-1
 1206 1438 l 2,16,17
EndSplineSet
Substitution2: "'locl' Localized Forms in Latin lookup 12 subtable" Nacute.loclPLK
Substitution2: "'aalt' Access All Alternates lookup 0 subtable" Nacute.loclPLK
Position2: "'cpsp' Capital Spacing lookup 3 subtable" dx=10 dy=0 dh=20 dv=0
EndChar

StartChar: Ncaron
Encoding: 327 327 99
Width: 1472
Flags: MW
HStem: -4 43G<238 266 266 281 1146 1165 1165 1206> 1397 41G<266 309 309 332 1192 1206 1206 1235> 1554 291<537 711 537 762>
VStem: 184 178<41 1149> 1110 178<297 1393>
LayerCount: 2
Fore
SplineSet
936 1845 m 2,0,1
 985 1845 985 1845 985 1815 c 0,2,3
 985 1798 985 1798 973 1780 c 2,4,-1
 856 1599 l 2,5,6
 827 1554 827 1554 762 1554 c 2,7,-1
 711 1554 l 2,8,9
 645 1554 645 1554 616 1599 c 2,10,-1
 502 1780 l 1,11,12
 489 1803 489 1803 489 1817 c 0,13,14
 489 1845 489 1845 537 1845 c 2,15,-1
 541 1845 l 2,16,17
 581 1845 581 1845 610 1819 c 1,18,-1
 735 1667 l 1,19,-1
 864 1819 l 1,20,21
 893 1845 893 1845 932 1845 c 2,22,-1
 936 1845 l 2,0,1
1206 1438 m 2,23,24
 1288 1438 1288 1438 1288 1393 c 2,25,-1
 1288 41 l 2,26,27
 1288 -4 1288 -4 1206 -4 c 2,28,-1
 1165 -4 l 2,29,30
 1113 -4 1113 -4 1094 25 c 2,31,-1
 418 1044 l 1,32,-1
 362 1149 l 1,33,-1
 362 41 l 2,34,35
 362 -4 362 -4 281 -4 c 2,36,-1
 266 -4 l 2,37,38
 184 -4 184 -4 184 41 c 2,39,-1
 184 1393 l 2,40,41
 184 1438 184 1438 266 1438 c 2,42,-1
 309 1438 l 2,43,44
 343 1438 343 1438 361.5 1429.5 c 128,-1,45
 380 1421 380 1421 395 1399 c 2,46,-1
 1049 412 l 1,47,-1
 1110 297 l 1,48,-1
 1110 1393 l 2,49,50
 1110 1438 1110 1438 1192 1438 c 2,51,-1
 1206 1438 l 2,23,24
EndSplineSet
Position2: "'cpsp' Capital Spacing lookup 3 subtable" dx=10 dy=0 dh=20 dv=0
EndChar

StartChar: Ncommaaccent
Encoding: 325 325 100
Width: 1472
Flags: MW
HStem: -481 43G<605 650> -4 43G<238 266 266 281 1146 1165 1165 1206> 1397 41G<266 309 309 332 1192 1206 1206 1235>
VStem: 184 178<41 1149> 645 182<-248 -151> 1110 178<297 1393>
LayerCount: 2
Fore
SplineSet
1206 1438 m 2,0,1
 1288 1438 1288 1438 1288 1393 c 2,2,-1
 1288 41 l 2,3,4
 1288 -4 1288 -4 1206 -4 c 2,5,-1
 1165 -4 l 2,6,7
 1113 -4 1113 -4 1094 25 c 2,8,-1
 418 1044 l 1,9,-1
 362 1149 l 1,10,-1
 362 41 l 2,11,12
 362 -4 362 -4 281 -4 c 2,13,-1
 266 -4 l 2,14,15
 184 -4 184 -4 184 41 c 2,16,-1
 184 1393 l 2,17,18
 184 1438 184 1438 266 1438 c 2,19,-1
 309 1438 l 2,20,21
 343 1438 343 1438 361.5 1429.5 c 128,-1,22
 380 1421 380 1421 395 1399 c 2,23,-1
 1049 412 l 1,24,-1
 1110 297 l 1,25,-1
 1110 1393 l 2,26,27
 1110 1438 1110 1438 1192 1438 c 2,28,-1
 1206 1438 l 2,0,1
745 -104 m 2,29,30
 783 -104 783 -104 805 -120 c 128,-1,31
 827 -136 827 -136 827 -162 c 0,32,33
 827 -232 827 -232 804 -294.5 c 128,-1,34
 781 -357 781 -357 747 -396 c 128,-1,35
 713 -435 713 -435 678 -458 c 128,-1,36
 643 -481 643 -481 616 -481 c 0,37,38
 557 -481 557 -481 557 -451 c 0,39,40
 557 -434 557 -434 579 -395.5 c 128,-1,41
 601 -357 601 -357 623 -297.5 c 128,-1,42
 645 -238 645 -238 645 -170 c 0,43,44
 645 -140 645 -140 666 -122 c 128,-1,45
 687 -104 687 -104 727 -104 c 2,46,-1
 745 -104 l 2,29,30
EndSplineSet
Position2: "'cpsp' Capital Spacing lookup 3 subtable" dx=10 dy=0 dh=20 dv=0
EndChar

StartChar: Ndotaccent
Encoding: 7748 7748 101
Width: 1472
Flags: MW
HStem: -4 43G<238 266 266 281 1146 1165 1165 1206> 1397 41G<266 309 309 332 1192 1206 1206 1235> 1606 195<709 766>
VStem: 184 178<41 1149> 651 172<1651 1755 1637 1768> 1110 178<297 1393>
LayerCount: 2
Fore
SplineSet
651 1755 m 2,0,1
 651 1800 651 1800 741 1800 c 0,2,3
 823 1800 823 1800 823 1755 c 2,4,-1
 823 1651 l 2,5,6
 823 1606 823 1606 733 1606 c 0,7,8
 651 1606 651 1606 651 1651 c 2,9,-1
 651 1755 l 2,0,1
1206 1438 m 2,10,11
 1288 1438 1288 1438 1288 1393 c 2,12,-1
 1288 41 l 2,13,14
 1288 -4 1288 -4 1206 -4 c 2,15,-1
 1165 -4 l 2,16,17
 1113 -4 1113 -4 1094 25 c 2,18,-1
 418 1044 l 1,19,-1
 362 1149 l 1,20,-1
 362 41 l 2,21,22
 362 -4 362 -4 281 -4 c 2,23,-1
 266 -4 l 2,24,25
 184 -4 184 -4 184 41 c 2,26,-1
 184 1393 l 2,27,28
 184 1438 184 1438 266 1438 c 2,29,-1
 309 1438 l 2,30,31
 343 1438 343 1438 361.5 1429.5 c 128,-1,32
 380 1421 380 1421 395 1399 c 2,33,-1
 1049 412 l 1,34,-1
 1110 297 l 1,35,-1
 1110 1393 l 2,36,37
 1110 1438 1110 1438 1192 1438 c 2,38,-1
 1206 1438 l 2,10,11
EndSplineSet
Position2: "'cpsp' Capital Spacing lookup 3 subtable" dx=10 dy=0 dh=20 dv=0
EndChar

StartChar: Eng
Encoding: 330 330 102
Width: 1472
Flags: MW
HStem: -434 147<996 1035 976 1075> -4 43G<238 266 266 281> 1397 41G<266 309 309 332 1192 1206 1206 1235>
VStem: 184 178<41 1149> 1110 178<297 1393>
LayerCount: 2
Fore
SplineSet
1206 1438 m 2,0,1
 1288 1438 1288 1438 1288 1393 c 2,2,-1
 1288 -152 l 2,3,4
 1288 -220 1288 -220 1270 -272.5 c 128,-1,5
 1252 -325 1252 -325 1225 -354.5 c 128,-1,6
 1198 -384 1198 -384 1161 -403 c 128,-1,7
 1124 -422 1124 -422 1091 -428 c 128,-1,8
 1058 -434 1058 -434 1024 -434 c 0,9,10
 874 -434 874 -434 874 -373 c 0,11,12
 874 -352 874 -352 886.5 -314 c 128,-1,13
 899 -276 899 -276 918 -276 c 0,14,15
 922 -276 922 -276 946.5 -281.5 c 128,-1,16
 971 -287 971 -287 1006 -287 c 0,17,18
 1116 -287 1116 -287 1116 -135 c 2,19,-1
 1116 -8 l 1,20,-1
 418 1044 l 1,21,-1
 362 1149 l 1,22,-1
 362 41 l 2,23,24
 362 -4 362 -4 281 -4 c 2,25,-1
 266 -4 l 2,26,27
 184 -4 184 -4 184 41 c 2,28,-1
 184 1393 l 2,29,30
 184 1438 184 1438 266 1438 c 2,31,-1
 309 1438 l 2,32,33
 343 1438 343 1438 361.5 1429.5 c 128,-1,34
 380 1421 380 1421 395 1399 c 2,35,-1
 1049 412 l 1,36,-1
 1110 297 l 1,37,-1
 1110 1393 l 2,38,39
 1110 1438 1110 1438 1192 1438 c 2,40,-1
 1206 1438 l 2,0,1
EndSplineSet
Position2: "'cpsp' Capital Spacing lookup 3 subtable" dx=10 dy=0 dh=20 dv=0
EndChar

StartChar: Nj
Encoding: 459 459 103
Width: 2037
Flags: MW
HStem: -434 147<1560 1598 1539 1638> -4 43G<238 266 266 281 1146 1165 1165 1206> 1329 211<1724 1778 1753 1778> 1397 41G<266 309 309 332 1192 1206 1206 1235>
VStem: 184 178<41 1149> 1110 178<297 1393> 1671 188<1374 1495 1360 1509> 1679 172<-135 1030>
LayerCount: 2
Fore
SplineSet
1778 1540 m 2,0,1
 1860 1540 1860 1540 1860 1495 c 2,2,-1
 1860 1374 l 2,3,4
 1860 1329 1860 1329 1778 1329 c 2,5,-1
 1753 1329 l 2,6,7
 1671 1329 1671 1329 1671 1374 c 2,8,-1
 1671 1495 l 2,9,10
 1671 1540 1671 1540 1753 1540 c 2,11,-1
 1778 1540 l 2,0,1
1206 1438 m 2,12,13
 1288 1438 1288 1438 1288 1393 c 2,14,-1
 1288 41 l 2,15,16
 1288 -4 1288 -4 1206 -4 c 2,17,-1
 1165 -4 l 2,18,19
 1113 -4 1113 -4 1094 25 c 2,20,-1
 418 1044 l 1,21,-1
 362 1149 l 1,22,-1
 362 41 l 2,23,24
 362 -4 362 -4 281 -4 c 2,25,-1
 266 -4 l 2,26,27
 184 -4 184 -4 184 41 c 2,28,-1
 184 1393 l 2,29,30
 184 1438 184 1438 266 1438 c 2,31,-1
 309 1438 l 2,32,33
 343 1438 343 1438 361.5 1429.5 c 128,-1,34
 380 1421 380 1421 395 1399 c 2,35,-1
 1049 412 l 1,36,-1
 1110 297 l 1,37,-1
 1110 1393 l 2,38,39
 1110 1438 1110 1438 1192 1438 c 2,40,-1
 1206 1438 l 2,12,13
1769 1075 m 2,41,42
 1851 1075 1851 1075 1851 1030 c 2,43,-1
 1851 -152 l 2,44,45
 1851 -220 1851 -220 1833 -272.5 c 128,-1,46
 1815 -325 1815 -325 1788 -354.5 c 128,-1,47
 1761 -384 1761 -384 1724 -403 c 128,-1,48
 1687 -422 1687 -422 1654 -428 c 128,-1,49
 1621 -434 1621 -434 1587 -434 c 0,50,51
 1438 -434 1438 -434 1438 -373 c 0,52,53
 1438 -352 1438 -352 1450 -314 c 128,-1,54
 1462 -276 1462 -276 1481 -276 c 0,55,56
 1485 -276 1485 -276 1509.5 -281.5 c 128,-1,57
 1534 -287 1534 -287 1569 -287 c 0,58,59
 1679 -287 1679 -287 1679 -135 c 2,60,-1
 1679 1030 l 2,61,62
 1679 1075 1679 1075 1761 1075 c 2,63,-1
 1769 1075 l 2,41,42
EndSplineSet
Position2: "'cpsp' Capital Spacing lookup 3 subtable" dx=10 dy=0 dh=20 dv=0
EndChar

StartChar: Ntilde
Encoding: 209 209 104
Width: 1472
Flags: MW
HStem: -4 43G<238 266 266 281 1146 1165 1165 1206> 1397 41G<266 309 309 332 1192 1206 1206 1235> 1561 131<854 890> 1622 131<587 624>
VStem: 184 178<41 1149> 1110 178<297 1393>
LayerCount: 2
Fore
SplineSet
993 1739 m 1,0,1
 1006 1749 1006 1749 1024 1749 c 0,2,3
 1045 1749 1045 1749 1063 1731 c 1,4,5
 1081 1710 1081 1710 1081 1688 c 0,6,7
 1081 1664 1081 1664 1059 1645 c 1,8,9
 945 1561 945 1561 848 1561 c 0,10,11
 768 1561 768 1561 698 1593 c 0,12,13
 693 1596 693 1596 682 1601 c 128,-1,14
 671 1606 671 1606 666.5 1608 c 128,-1,15
 662 1610 662 1610 653 1613.5 c 128,-1,16
 644 1617 644 1617 637.5 1618.5 c 128,-1,17
 631 1620 631 1620 622 1621 c 128,-1,18
 613 1622 613 1622 604 1622 c 0,19,20
 553 1622 553 1622 492 1583 c 1,21,22
 467 1569 467 1569 453 1569 c 0,23,24
 430 1569 430 1569 408 1597 c 0,25,26
 393 1615 393 1615 393 1632 c 0,27,28
 393 1652 393 1652 416 1671 c 1,29,30
 534 1753 534 1753 629 1753 c 0,31,32
 647 1753 647 1753 664 1751 c 128,-1,33
 681 1749 681 1749 692 1746.5 c 128,-1,34
 703 1744 703 1744 717 1739 c 128,-1,35
 731 1734 731 1734 736.5 1731.5 c 128,-1,36
 742 1729 742 1729 755.5 1722 c 128,-1,37
 769 1715 769 1715 772 1714 c 0,38,39
 818 1692 818 1692 874 1692 c 0,40,41
 923 1692 923 1692 993 1739 c 1,0,1
1206 1438 m 2,42,43
 1288 1438 1288 1438 1288 1393 c 2,44,-1
 1288 41 l 2,45,46
 1288 -4 1288 -4 1206 -4 c 2,47,-1
 1165 -4 l 2,48,49
 1113 -4 1113 -4 1094 25 c 2,50,-1
 418 1044 l 1,51,-1
 362 1149 l 1,52,-1
 362 41 l 2,53,54
 362 -4 362 -4 281 -4 c 2,55,-1
 266 -4 l 2,56,57
 184 -4 184 -4 184 41 c 2,58,-1
 184 1393 l 2,59,60
 184 1438 184 1438 266 1438 c 2,61,-1
 309 1438 l 2,62,63
 343 1438 343 1438 361.5 1429.5 c 128,-1,64
 380 1421 380 1421 395 1399 c 2,65,-1
 1049 412 l 1,66,-1
 1110 297 l 1,67,-1
 1110 1393 l 2,68,69
 1110 1438 1110 1438 1192 1438 c 2,70,-1
 1206 1438 l 2,42,43
EndSplineSet
Position2: "'cpsp' Capital Spacing lookup 3 subtable" dx=10 dy=0 dh=20 dv=0
EndChar

StartChar: O
Encoding: 79 79 105
Width: 1497
Flags: MW
HStem: -12 156<603 892 603 953> 1290 156<603 892>
VStem: 117 186<532 909 532 961> 1194 186<532 909>
LayerCount: 2
Fore
SplineSet
748 1446 m 0,0,1
 1058 1446 1058 1446 1219 1262.5 c 128,-1,2
 1380 1079 1380 1079 1380 721 c 0,3,4
 1380 362 1380 362 1218.5 175 c 128,-1,5
 1057 -12 1057 -12 748 -12 c 0,6,7
 440 -12 440 -12 278.5 175 c 128,-1,8
 117 362 117 362 117 721 c 0,9,10
 117 1079 117 1079 278 1262.5 c 128,-1,11
 439 1446 439 1446 748 1446 c 0,0,1
748 1290 m 128,-1,13
 530 1290 530 1290 416.5 1146 c 128,-1,14
 303 1002 303 1002 303 721 c 0,15,16
 303 439 303 439 417 291 c 128,-1,17
 531 143 531 143 748 143 c 128,-1,18
 965 143 965 143 1079.5 291 c 128,-1,19
 1194 439 1194 439 1194 721 c 0,20,21
 1194 1002 1194 1002 1080 1146 c 128,-1,12
 966 1290 966 1290 748 1290 c 128,-1,13
EndSplineSet
Substitution2: "Single Substitution lookup 21 subtable" ordmasculine
Substitution2: "'aalt' Access All Alternates lookup 0 subtable" ordmasculine
Position2: "'cpsp' Capital Spacing lookup 3 subtable" dx=10 dy=0 dh=20 dv=0
EndChar

StartChar: Oacute
Encoding: 211 211 106
Width: 1497
Flags: MW
HStem: -12 156<603 892 603 953> 1290 156<603 892>
VStem: 117 186<532 909 532 961> 1194 186<532 909>
LayerCount: 2
Fore
SplineSet
913 1862 m 0,0,1
 1012 1862 1012 1862 1012 1835 c 0,2,3
 1012 1817 1012 1817 906.275737715 1696.50565953 c 0,4,5
 854 1637 854 1637 819 1597 c 1,6,7
 786 1561 786 1561 715 1561 c 0,8,9
 668 1561 668 1561 668 1581 c 0,10,11
 668 1595 668 1595 689.5 1636.5 c 128,-1,12
 711 1678 711 1678 786 1808 c 0,13,14
 818 1862 818 1862 913 1862 c 0,0,1
748 1446 m 0,15,16
 1058 1446 1058 1446 1219 1262.5 c 128,-1,17
 1380 1079 1380 1079 1380 721 c 0,18,19
 1380 362 1380 362 1218.5 175 c 128,-1,20
 1057 -12 1057 -12 748 -12 c 0,21,22
 440 -12 440 -12 278.5 175 c 128,-1,23
 117 362 117 362 117 721 c 0,24,25
 117 1079 117 1079 278 1262.5 c 128,-1,26
 439 1446 439 1446 748 1446 c 0,15,16
748 1290 m 128,-1,28
 530 1290 530 1290 416.5 1146 c 128,-1,29
 303 1002 303 1002 303 721 c 0,30,31
 303 439 303 439 417 291 c 128,-1,32
 531 143 531 143 748 143 c 128,-1,33
 965 143 965 143 1079.5 291 c 128,-1,34
 1194 439 1194 439 1194 721 c 0,35,36
 1194 1002 1194 1002 1080 1146 c 128,-1,27
 966 1290 966 1290 748 1290 c 128,-1,28
EndSplineSet
Substitution2: "'locl' Localized Forms in Latin lookup 12 subtable" Oacute.loclPLK
Substitution2: "'aalt' Access All Alternates lookup 0 subtable" Oacute.loclPLK
Position2: "'cpsp' Capital Spacing lookup 3 subtable" dx=10 dy=0 dh=20 dv=0
EndChar

StartChar: Obreve
Encoding: 334 334 107
Width: 1497
Flags: MW
HStem: -12 156<603 892 603 953> 1290 156<603 892> 1561 135<701 802 701 824>
VStem: 117 186<532 909 532 961> 1194 186<532 909>
LayerCount: 2
Fore
SplineSet
1016 1827 m 0,0,1
 1047 1827 1047 1827 1047 1796 c 0,2,3
 1047 1685 1047 1685 959 1623 c 128,-1,4
 871 1561 871 1561 752 1561 c 0,5,6
 675 1561 675 1561 609.5 1586 c 128,-1,7
 544 1611 544 1611 499.5 1666 c 128,-1,8
 455 1721 455 1721 455 1796 c 0,9,10
 455 1827 455 1827 485 1827 c 0,11,12
 498 1827 498 1827 505 1823 c 128,-1,13
 512 1819 512 1819 514.5 1814.5 c 128,-1,14
 517 1810 517 1810 521.5 1797.5 c 128,-1,15
 526 1785 526 1785 530 1776 c 0,16,17
 574 1696 574 1696 752 1696 c 0,18,19
 927 1696 927 1696 971 1776 c 0,20,21
 975 1785 975 1785 979.5 1797.5 c 128,-1,22
 984 1810 984 1810 986.5 1814.5 c 128,-1,23
 989 1819 989 1819 996 1823 c 128,-1,24
 1003 1827 1003 1827 1016 1827 c 0,0,1
748 1446 m 0,25,26
 1058 1446 1058 1446 1219 1262.5 c 128,-1,27
 1380 1079 1380 1079 1380 721 c 0,28,29
 1380 362 1380 362 1218.5 175 c 128,-1,30
 1057 -12 1057 -12 748 -12 c 0,31,32
 440 -12 440 -12 278.5 175 c 128,-1,33
 117 362 117 362 117 721 c 0,34,35
 117 1079 117 1079 278 1262.5 c 128,-1,36
 439 1446 439 1446 748 1446 c 0,25,26
748 1290 m 128,-1,38
 530 1290 530 1290 416.5 1146 c 128,-1,39
 303 1002 303 1002 303 721 c 0,40,41
 303 439 303 439 417 291 c 128,-1,42
 531 143 531 143 748 143 c 128,-1,43
 965 143 965 143 1079.5 291 c 128,-1,44
 1194 439 1194 439 1194 721 c 0,45,46
 1194 1002 1194 1002 1080 1146 c 128,-1,37
 966 1290 966 1290 748 1290 c 128,-1,38
EndSplineSet
Position2: "'cpsp' Capital Spacing lookup 3 subtable" dx=10 dy=0 dh=20 dv=0
EndChar

StartChar: Ocircumflex
Encoding: 212 212 108
Width: 1497
Flags: MW
HStem: -12 156<603 892 603 953> 1290 156<603 892> 1542 291<534 774 549 774 723 944 723 948>
VStem: 117 186<532 909 532 961> 1194 186<532 909>
LayerCount: 2
Fore
SplineSet
774 1833 m 2,0,1
 839 1833 839 1833 868 1788 c 2,2,-1
 985 1608 l 2,3,4
 997 1590 997 1590 997 1573 c 0,5,6
 997 1542 997 1542 948 1542 c 2,7,-1
 944 1542 l 2,8,9
 907 1542 907 1542 877 1569 c 1,10,-1
 748 1720 l 1,11,-1
 623 1569 l 1,12,13
 593 1542 593 1542 553 1542 c 2,14,-1
 549 1542 l 2,15,16
 502 1542 502 1542 502 1571 c 0,17,18
 502 1587 502 1587 514 1608 c 1,19,-1
 629 1788 l 2,20,21
 658 1833 658 1833 723 1833 c 2,22,-1
 774 1833 l 2,0,1
748 1446 m 0,23,24
 1058 1446 1058 1446 1219 1262.5 c 128,-1,25
 1380 1079 1380 1079 1380 721 c 0,26,27
 1380 362 1380 362 1218.5 175 c 128,-1,28
 1057 -12 1057 -12 748 -12 c 0,29,30
 440 -12 440 -12 278.5 175 c 128,-1,31
 117 362 117 362 117 721 c 0,32,33
 117 1079 117 1079 278 1262.5 c 128,-1,34
 439 1446 439 1446 748 1446 c 0,23,24
748 1290 m 128,-1,36
 530 1290 530 1290 416.5 1146 c 128,-1,37
 303 1002 303 1002 303 721 c 0,38,39
 303 439 303 439 417 291 c 128,-1,40
 531 143 531 143 748 143 c 128,-1,41
 965 143 965 143 1079.5 291 c 128,-1,42
 1194 439 1194 439 1194 721 c 0,43,44
 1194 1002 1194 1002 1080 1146 c 128,-1,35
 966 1290 966 1290 748 1290 c 128,-1,36
EndSplineSet
Position2: "'cpsp' Capital Spacing lookup 3 subtable" dx=10 dy=0 dh=20 dv=0
EndChar

StartChar: Ocircumflexacute
Encoding: 7888 7888 109
Width: 1497
Flags: MW
HStem: -12 156<603 892 603 953> 1290 156<603 892>
VStem: 117 186<532 909 532 961> 1194 186<532 909>
LayerCount: 2
Fore
SplineSet
748 1446 m 0,0,1
 1058 1446 1058 1446 1219 1262.5 c 128,-1,2
 1380 1079 1380 1079 1380 721 c 0,3,4
 1380 362 1380 362 1218.5 175 c 128,-1,5
 1057 -12 1057 -12 748 -12 c 0,6,7
 440 -12 440 -12 278.5 175 c 128,-1,8
 117 362 117 362 117 721 c 0,9,10
 117 1079 117 1079 278 1262.5 c 128,-1,11
 439 1446 439 1446 748 1446 c 0,0,1
748 1290 m 128,-1,13
 530 1290 530 1290 416.5 1146 c 128,-1,14
 303 1002 303 1002 303 721 c 0,15,16
 303 439 303 439 417 291 c 128,-1,17
 531 143 531 143 748 143 c 128,-1,18
 965 143 965 143 1079.5 291 c 128,-1,19
 1194 439 1194 439 1194 721 c 0,20,21
 1194 1002 1194 1002 1080 1146 c 128,-1,12
 966 1290 966 1290 748 1290 c 128,-1,13
1180 1968 m 0,22,23
 1214 1968 1214 1968 1228.5 1962.5 c 128,-1,24
 1243 1957 1243 1957 1243 1942 c 0,25,26
 1243 1930 1243 1930 1229 1909 c 128,-1,27
 1215 1888 1215 1888 1142.14809386 1790.7406543 c 0,28,29
 1111 1749 1111 1749 1092 1724 c 0,30,31
 1066 1688 1066 1688 1018 1688 c 0,32,33
 971 1688 971 1688 971 1708 c 0,34,35
 971 1727 971 1727 1069 1915 c 1,36,37
 1100 1968 1100 1968 1180 1968 c 0,22,23
782 1833 m 2,38,39
 829 1833 829 1833 856 1788 c 2,40,-1
 963 1608 l 1,41,42
 975 1590 975 1590 975 1573 c 0,43,44
 975 1542 975 1542 926 1542 c 2,45,-1
 922 1542 l 2,46,47
 872 1542 872 1542 854 1569 c 2,48,-1
 756 1720 l 1,49,-1
 631 1569 l 1,50,51
 601 1542 601 1542 561 1542 c 2,52,-1
 557 1542 l 2,53,54
 510 1542 510 1542 510 1571 c 0,55,56
 510 1587 510 1587 522 1608 c 1,57,-1
 637 1788 l 2,58,59
 666 1833 666 1833 731 1833 c 2,60,-1
 782 1833 l 2,38,39
EndSplineSet
Position2: "'cpsp' Capital Spacing lookup 3 subtable" dx=10 dy=0 dh=20 dv=0
EndChar

StartChar: Ocircumflexdotbelow
Encoding: 7896 7896 110
Width: 1497
Flags: MW
HStem: -358 195<727 784> -12 156<603 892 603 953> 1290 156<603 892> 1542 291<534 774 549 774 723 944 723 948>
VStem: 117 186<532 909 532 961> 670 172<-313 -209 -327 -196> 1194 186<532 909>
LayerCount: 2
Fore
SplineSet
748 1446 m 0,0,1
 1058 1446 1058 1446 1219 1262.5 c 128,-1,2
 1380 1079 1380 1079 1380 721 c 0,3,4
 1380 362 1380 362 1218.5 175 c 128,-1,5
 1057 -12 1057 -12 748 -12 c 0,6,7
 440 -12 440 -12 278.5 175 c 128,-1,8
 117 362 117 362 117 721 c 0,9,10
 117 1079 117 1079 278 1262.5 c 128,-1,11
 439 1446 439 1446 748 1446 c 0,0,1
748 1290 m 128,-1,13
 530 1290 530 1290 416.5 1146 c 128,-1,14
 303 1002 303 1002 303 721 c 0,15,16
 303 439 303 439 417 291 c 128,-1,17
 531 143 531 143 748 143 c 128,-1,18
 965 143 965 143 1079.5 291 c 128,-1,19
 1194 439 1194 439 1194 721 c 0,20,21
 1194 1002 1194 1002 1080 1146 c 128,-1,12
 966 1290 966 1290 748 1290 c 128,-1,13
774 1833 m 2,22,23
 839 1833 839 1833 868 1788 c 2,24,-1
 985 1608 l 2,25,26
 997 1590 997 1590 997 1573 c 0,27,28
 997 1542 997 1542 948 1542 c 2,29,-1
 944 1542 l 2,30,31
 907 1542 907 1542 877 1569 c 1,32,-1
 748 1720 l 1,33,-1
 623 1569 l 1,34,35
 593 1542 593 1542 553 1542 c 2,36,-1
 549 1542 l 2,37,38
 502 1542 502 1542 502 1571 c 0,39,40
 502 1587 502 1587 514 1608 c 1,41,-1
 629 1788 l 2,42,43
 658 1833 658 1833 723 1833 c 2,44,-1
 774 1833 l 2,22,23
670 -209 m 2,45,46
 670 -164 670 -164 760 -164 c 0,47,48
 842 -164 842 -164 842 -209 c 2,49,-1
 842 -313 l 2,50,51
 842 -358 842 -358 752 -358 c 0,52,53
 670 -358 670 -358 670 -313 c 2,54,-1
 670 -209 l 2,45,46
EndSplineSet
Position2: "'cpsp' Capital Spacing lookup 3 subtable" dx=10 dy=0 dh=20 dv=0
EndChar

StartChar: Ocircumflexgrave
Encoding: 7890 7890 111
Width: 1497
Flags: MW
HStem: -12 156<603 892 603 953> 1290 156<603 892>
VStem: 117 186<532 909 532 961> 1194 186<532 909>
LayerCount: 2
Fore
SplineSet
748 1446 m 0,0,1
 1058 1446 1058 1446 1219 1262.5 c 128,-1,2
 1380 1079 1380 1079 1380 721 c 0,3,4
 1380 362 1380 362 1218.5 175 c 128,-1,5
 1057 -12 1057 -12 748 -12 c 0,6,7
 440 -12 440 -12 278.5 175 c 128,-1,8
 117 362 117 362 117 721 c 0,9,10
 117 1079 117 1079 278 1262.5 c 128,-1,11
 439 1446 439 1446 748 1446 c 0,0,1
748 1290 m 128,-1,13
 530 1290 530 1290 416.5 1146 c 128,-1,14
 303 1002 303 1002 303 721 c 0,15,16
 303 439 303 439 417 291 c 128,-1,17
 531 143 531 143 748 143 c 128,-1,18
 965 143 965 143 1079.5 291 c 128,-1,19
 1194 439 1194 439 1194 721 c 0,20,21
 1194 1002 1194 1002 1080 1146 c 128,-1,12
 966 1290 966 1290 748 1290 c 128,-1,13
946 1968 m 0,22,23
 1027 1968 1027 1968 1049 1915 c 0,24,25
 1126 1732 1126 1732 1126 1708 c 0,26,27
 1126 1688 1126 1688 1079 1688 c 0,28,29
 1029 1688 1029 1688 1006 1724 c 0,30,31
 989 1751 989 1751 971.5 1778 c 128,-1,32
 954 1805 954 1805 943 1822 c 128,-1,33
 932 1839 932 1839 921 1856 c 128,-1,34
 910 1873 910 1873 903.5 1882.5 c 128,-1,35
 897 1892 897 1892 891 1902 c 128,-1,36
 885 1912 885 1912 882.5 1917 c 128,-1,37
 880 1922 880 1922 877.5 1927 c 128,-1,38
 875 1932 875 1932 874.5 1935.5 c 128,-1,39
 874 1939 874 1939 874 1942 c 0,40,41
 874 1957 874 1957 889 1962.5 c 128,-1,42
 904 1968 904 1968 946 1968 c 0,22,23
782 1833 m 2,43,44
 829 1833 829 1833 856 1788 c 2,45,-1
 963 1608 l 1,46,47
 975 1590 975 1590 975 1573 c 0,48,49
 975 1542 975 1542 926 1542 c 2,50,-1
 922 1542 l 2,51,52
 872 1542 872 1542 854 1569 c 2,53,-1
 756 1720 l 1,54,-1
 631 1569 l 1,55,56
 601 1542 601 1542 561 1542 c 2,57,-1
 557 1542 l 2,58,59
 510 1542 510 1542 510 1571 c 0,60,61
 510 1587 510 1587 522 1608 c 1,62,-1
 637 1788 l 2,63,64
 666 1833 666 1833 731 1833 c 2,65,-1
 782 1833 l 2,43,44
EndSplineSet
Position2: "'cpsp' Capital Spacing lookup 3 subtable" dx=10 dy=0 dh=20 dv=0
EndChar

StartChar: Ocircumflexhookabove
Encoding: 7892 7892 112
Width: 1497
Flags: MW
HStem: -12 156<603 892 603 953> 1290 156<603 892> 1907 98<990 1030>
VStem: 117 186<532 909 532 961> 1085 117<1837 1870> 1194 186<532 909>
LayerCount: 2
Fore
SplineSet
748 1446 m 0,0,1
 1058 1446 1058 1446 1219 1262.5 c 128,-1,2
 1380 1079 1380 1079 1380 721 c 0,3,4
 1380 362 1380 362 1218.5 175 c 128,-1,5
 1057 -12 1057 -12 748 -12 c 0,6,7
 440 -12 440 -12 278.5 175 c 128,-1,8
 117 362 117 362 117 721 c 0,9,10
 117 1079 117 1079 278 1262.5 c 128,-1,11
 439 1446 439 1446 748 1446 c 0,0,1
748 1290 m 128,-1,13
 530 1290 530 1290 416.5 1146 c 128,-1,14
 303 1002 303 1002 303 721 c 0,15,16
 303 439 303 439 417 291 c 128,-1,17
 531 143 531 143 748 143 c 128,-1,18
 965 143 965 143 1079.5 291 c 128,-1,19
 1194 439 1194 439 1194 721 c 0,20,21
 1194 1002 1194 1002 1080 1146 c 128,-1,12
 966 1290 966 1290 748 1290 c 128,-1,13
1085 1851 m 0,22,23
 1085 1878 1085 1878 1063.5 1892.5 c 128,-1,24
 1042 1907 1042 1907 1010 1907 c 0,25,26
 982 1907 982 1907 961 1900.5 c 128,-1,27
 940 1894 940 1894 929 1887 c 128,-1,28
 918 1880 918 1880 915 1880 c 0,29,30
 903 1880 903 1880 884.5 1906.5 c 128,-1,31
 866 1933 866 1933 866 1948 c 0,32,33
 866 1968 866 1968 918.5 1986.5 c 128,-1,34
 971 2005 971 2005 1026 2005 c 0,35,36
 1066 2005 1066 2005 1103.5 1993.5 c 128,-1,37
 1141 1982 1141 1982 1171.5 1948.5 c 128,-1,38
 1202 1915 1202 1915 1202 1866 c 0,39,40
 1202 1795 1202 1795 1130 1735 c 1,41,42
 1110 1717 1110 1717 1083.5 1703.5 c 128,-1,43
 1057 1690 1057 1690 1047 1690 c 0,44,45
 1016 1690 1016 1690 993.5 1703.5 c 128,-1,46
 971 1717 971 1717 971 1731 c 0,47,48
 971 1742 971 1742 982.5 1751.5 c 128,-1,49
 994 1761 994 1761 1022 1776 c 0,50,51
 1085 1811 1085 1811 1085 1851 c 0,22,23
782 1833 m 2,52,53
 829 1833 829 1833 856 1788 c 2,54,-1
 963 1608 l 1,55,56
 975 1590 975 1590 975 1573 c 0,57,58
 975 1542 975 1542 926 1542 c 2,59,-1
 922 1542 l 2,60,61
 872 1542 872 1542 854 1569 c 2,62,-1
 756 1720 l 1,63,-1
 631 1569 l 1,64,65
 601 1542 601 1542 561 1542 c 2,66,-1
 557 1542 l 2,67,68
 510 1542 510 1542 510 1571 c 0,69,70
 510 1587 510 1587 522 1608 c 1,71,-1
 637 1788 l 2,72,73
 666 1833 666 1833 731 1833 c 2,74,-1
 782 1833 l 2,52,53
EndSplineSet
Position2: "'cpsp' Capital Spacing lookup 3 subtable" dx=10 dy=0 dh=20 dv=0
EndChar

StartChar: Ocircumflextilde
Encoding: 7894 7894 113
Width: 1497
Flags: MW
HStem: -12 156<603 892 603 953> 1290 156<603 892> 1849 131<848 882> 1911 131<605 639>
VStem: 117 186<532 909 532 961> 1194 186<532 909>
LayerCount: 2
Fore
SplineSet
748 1446 m 0,0,1
 1058 1446 1058 1446 1219 1262.5 c 128,-1,2
 1380 1079 1380 1079 1380 721 c 0,3,4
 1380 362 1380 362 1218.5 175 c 128,-1,5
 1057 -12 1057 -12 748 -12 c 0,6,7
 440 -12 440 -12 278.5 175 c 128,-1,8
 117 362 117 362 117 721 c 0,9,10
 117 1079 117 1079 278 1262.5 c 128,-1,11
 439 1446 439 1446 748 1446 c 0,0,1
748 1290 m 128,-1,13
 530 1290 530 1290 416.5 1146 c 128,-1,14
 303 1002 303 1002 303 721 c 0,15,16
 303 439 303 439 417 291 c 128,-1,17
 531 143 531 143 748 143 c 128,-1,18
 965 143 965 143 1079.5 291 c 128,-1,19
 1194 439 1194 439 1194 721 c 0,20,21
 1194 1002 1194 1002 1080 1146 c 128,-1,12
 966 1290 966 1290 748 1290 c 128,-1,13
975 2028 m 0,22,23
 988 2038 988 2038 1004 2038 c 0,24,25
 1023 2038 1023 2038 1038 2019 c 0,26,27
 1057 1994 1057 1994 1057 1976 c 0,28,29
 1057 1956 1057 1956 1034 1933 c 1,30,31
 931 1849 931 1849 844 1849 c 0,32,33
 775 1849 775 1849 707 1882 c 0,34,35
 705 1883 705 1883 691 1890.5 c 128,-1,36
 677 1898 677 1898 673.5 1899.5 c 128,-1,37
 670 1901 670 1901 659.5 1905 c 128,-1,38
 649 1909 649 1909 640.5 1910 c 128,-1,39
 632 1911 632 1911 621 1911 c 0,40,41
 574 1911 574 1911 518 1872 c 0,42,43
 497 1858 497 1858 483 1858 c 0,44,45
 461 1858 461 1858 442 1886 c 0,46,47
 430 1904 430 1904 430 1921 c 0,48,49
 430 1942 430 1942 451 1960 c 1,50,51
 557 2042 557 2042 643 2042 c 0,52,53
 663 2042 663 2042 679.5 2040 c 128,-1,54
 696 2038 696 2038 711.5 2032.5 c 128,-1,55
 727 2027 727 2027 734 2024 c 128,-1,56
 741 2021 741 2021 756.5 2012.5 c 128,-1,57
 772 2004 772 2004 774 2003 c 0,58,59
 818 1980 818 1980 866 1980 c 0,60,61
 912 1980 912 1980 975 2028 c 0,22,23
774 1784 m 2,62,63
 823 1784 823 1784 868 1739 c 1,64,-1
 985 1608 l 1,65,66
 997 1590 997 1590 997 1573 c 0,67,68
 997 1542 997 1542 948 1542 c 2,69,-1
 944 1542 l 2,70,71
 921 1542 921 1542 877 1569 c 1,72,-1
 748 1671 l 1,73,-1
 623 1569 l 1,74,75
 584 1542 584 1542 553 1542 c 2,76,-1
 549 1542 l 2,77,78
 502 1542 502 1542 502 1571 c 0,79,80
 502 1587 502 1587 514 1608 c 1,81,-1
 629 1739 l 1,82,83
 677 1784 677 1784 723 1784 c 2,84,-1
 774 1784 l 2,62,63
EndSplineSet
Position2: "'cpsp' Capital Spacing lookup 3 subtable" dx=10 dy=0 dh=20 dv=0
EndChar

StartChar: Odieresis
Encoding: 214 214 114
Width: 1497
Flags: MW
HStem: -12 156<603 892 603 953> 1290 156<603 892> 1606 195<573 631 868 926>
VStem: 117 186<532 909 532 961> 516 172<1651 1755 1637 1768> 811 172<1651 1755 1637 1768> 1194 186<532 909>
LayerCount: 2
Fore
SplineSet
748 1446 m 0,0,1
 1058 1446 1058 1446 1219 1262.5 c 128,-1,2
 1380 1079 1380 1079 1380 721 c 0,3,4
 1380 362 1380 362 1218.5 175 c 128,-1,5
 1057 -12 1057 -12 748 -12 c 0,6,7
 440 -12 440 -12 278.5 175 c 128,-1,8
 117 362 117 362 117 721 c 0,9,10
 117 1079 117 1079 278 1262.5 c 128,-1,11
 439 1446 439 1446 748 1446 c 0,0,1
748 1290 m 128,-1,13
 530 1290 530 1290 416.5 1146 c 128,-1,14
 303 1002 303 1002 303 721 c 0,15,16
 303 439 303 439 417 291 c 128,-1,17
 531 143 531 143 748 143 c 128,-1,18
 965 143 965 143 1079.5 291 c 128,-1,19
 1194 439 1194 439 1194 721 c 0,20,21
 1194 1002 1194 1002 1080 1146 c 128,-1,12
 966 1290 966 1290 748 1290 c 128,-1,13
516 1755 m 2,22,23
 516 1800 516 1800 606 1800 c 0,24,25
 688 1800 688 1800 688 1755 c 2,26,-1
 688 1651 l 2,27,28
 688 1606 688 1606 598 1606 c 0,29,30
 516 1606 516 1606 516 1651 c 2,31,-1
 516 1755 l 2,22,23
811 1755 m 2,32,33
 811 1800 811 1800 901 1800 c 0,34,35
 983 1800 983 1800 983 1755 c 2,36,-1
 983 1651 l 2,37,38
 983 1606 983 1606 893 1606 c 0,39,40
 811 1606 811 1606 811 1651 c 2,41,-1
 811 1755 l 2,32,33
EndSplineSet
Position2: "'cpsp' Capital Spacing lookup 3 subtable" dx=10 dy=0 dh=20 dv=0
EndChar

StartChar: Odotbelow
Encoding: 7884 7884 115
Width: 1497
Flags: MW
HStem: -358 195<727 784> -12 156<603 892 603 953> 1290 156<603 892>
VStem: 117 186<532 909 532 961> 670 172<-313 -209 -327 -196> 1194 186<532 909>
LayerCount: 2
Fore
SplineSet
748 1446 m 0,0,1
 1058 1446 1058 1446 1219 1262.5 c 128,-1,2
 1380 1079 1380 1079 1380 721 c 0,3,4
 1380 362 1380 362 1218.5 175 c 128,-1,5
 1057 -12 1057 -12 748 -12 c 0,6,7
 440 -12 440 -12 278.5 175 c 128,-1,8
 117 362 117 362 117 721 c 0,9,10
 117 1079 117 1079 278 1262.5 c 128,-1,11
 439 1446 439 1446 748 1446 c 0,0,1
748 1290 m 128,-1,13
 530 1290 530 1290 416.5 1146 c 128,-1,14
 303 1002 303 1002 303 721 c 0,15,16
 303 439 303 439 417 291 c 128,-1,17
 531 143 531 143 748 143 c 128,-1,18
 965 143 965 143 1079.5 291 c 128,-1,19
 1194 439 1194 439 1194 721 c 0,20,21
 1194 1002 1194 1002 1080 1146 c 128,-1,12
 966 1290 966 1290 748 1290 c 128,-1,13
670 -209 m 2,22,23
 670 -164 670 -164 760 -164 c 0,24,25
 842 -164 842 -164 842 -209 c 2,26,-1
 842 -313 l 2,27,28
 842 -358 842 -358 752 -358 c 0,29,30
 670 -358 670 -358 670 -313 c 2,31,-1
 670 -209 l 2,22,23
EndSplineSet
Position2: "'cpsp' Capital Spacing lookup 3 subtable" dx=10 dy=0 dh=20 dv=0
EndChar

StartChar: Ograve
Encoding: 210 210 116
Width: 1497
Flags: MW
HStem: -12 156<603 892 603 953> 1290 156<603 892>
VStem: 117 186<532 909 532 961> 1194 186<532 909>
LayerCount: 2
Fore
SplineSet
606 1862 m 0,0,1
 701 1862 701 1862 733 1808 c 0,2,3
 811 1672 811 1672 831.5 1633.5 c 128,-1,4
 852 1595 852 1595 852 1581 c 0,5,6
 852 1561 852 1561 805 1561 c 0,7,8
 733 1561 733 1561 700 1597 c 0,9,10
 670 1631 670 1631 623.921313048 1683.8672606 c 0,11,12
 544 1775 544 1775 526 1798 c 128,-1,13
 508 1821 508 1821 508 1835 c 0,14,15
 508 1862 508 1862 606 1862 c 0,0,1
748 1446 m 0,16,17
 1058 1446 1058 1446 1219 1262.5 c 128,-1,18
 1380 1079 1380 1079 1380 721 c 0,19,20
 1380 362 1380 362 1218.5 175 c 128,-1,21
 1057 -12 1057 -12 748 -12 c 0,22,23
 440 -12 440 -12 278.5 175 c 128,-1,24
 117 362 117 362 117 721 c 0,25,26
 117 1079 117 1079 278 1262.5 c 128,-1,27
 439 1446 439 1446 748 1446 c 0,16,17
748 1290 m 128,-1,29
 530 1290 530 1290 416.5 1146 c 128,-1,30
 303 1002 303 1002 303 721 c 0,31,32
 303 439 303 439 417 291 c 128,-1,33
 531 143 531 143 748 143 c 128,-1,34
 965 143 965 143 1079.5 291 c 128,-1,35
 1194 439 1194 439 1194 721 c 0,36,37
 1194 1002 1194 1002 1080 1146 c 128,-1,28
 966 1290 966 1290 748 1290 c 128,-1,29
EndSplineSet
Position2: "'cpsp' Capital Spacing lookup 3 subtable" dx=10 dy=0 dh=20 dv=0
EndChar

StartChar: Ohookabove
Encoding: 7886 7886 117
Width: 1497
Flags: MW
HStem: -12 156<603 892 603 953> 1290 156<603 892> 1794 104<728 768>
VStem: 117 186<532 909 532 961> 823 127<1688 1757> 1194 186<532 909>
LayerCount: 2
Fore
SplineSet
823 1739 m 0,0,1
 823 1766 823 1766 802 1780 c 128,-1,2
 781 1794 781 1794 748 1794 c 0,3,4
 720 1794 720 1794 699 1787 c 128,-1,5
 678 1780 678 1780 667 1773.5 c 128,-1,6
 656 1767 656 1767 653 1767 c 0,7,8
 641 1767 641 1767 622.5 1793.5 c 128,-1,9
 604 1820 604 1820 604 1835 c 0,10,11
 604 1855 604 1855 657.5 1876.5 c 128,-1,12
 711 1898 711 1898 764 1898 c 0,13,14
 793 1898 793 1898 823 1891 c 128,-1,15
 853 1884 853 1884 883 1868.5 c 128,-1,16
 913 1853 913 1853 931.5 1823 c 128,-1,17
 950 1793 950 1793 950 1753 c 0,18,19
 950 1706 950 1706 924.5 1659.5 c 128,-1,20
 899 1613 899 1613 866 1583 c 128,-1,21
 833 1553 833 1553 804 1534.5 c 128,-1,22
 775 1516 775 1516 764 1516 c 0,23,24
 747 1516 747 1516 721.5 1527 c 128,-1,25
 696 1538 696 1538 696 1550 c 0,26,27
 696 1569 696 1569 716 1590 c 128,-1,28
 736 1611 736 1611 759.5 1628 c 128,-1,29
 783 1645 783 1645 803 1675 c 128,-1,30
 823 1705 823 1705 823 1739 c 0,0,1
748 1446 m 0,31,32
 1058 1446 1058 1446 1219 1262.5 c 128,-1,33
 1380 1079 1380 1079 1380 721 c 0,34,35
 1380 362 1380 362 1218.5 175 c 128,-1,36
 1057 -12 1057 -12 748 -12 c 0,37,38
 440 -12 440 -12 278.5 175 c 128,-1,39
 117 362 117 362 117 721 c 0,40,41
 117 1079 117 1079 278 1262.5 c 128,-1,42
 439 1446 439 1446 748 1446 c 0,31,32
748 1290 m 128,-1,44
 530 1290 530 1290 416.5 1146 c 128,-1,45
 303 1002 303 1002 303 721 c 0,46,47
 303 439 303 439 417 291 c 128,-1,48
 531 143 531 143 748 143 c 128,-1,49
 965 143 965 143 1079.5 291 c 128,-1,50
 1194 439 1194 439 1194 721 c 0,51,52
 1194 1002 1194 1002 1080 1146 c 128,-1,43
 966 1290 966 1290 748 1290 c 128,-1,44
EndSplineSet
Position2: "'cpsp' Capital Spacing lookup 3 subtable" dx=10 dy=0 dh=20 dv=0
EndChar

StartChar: Ohorn
Encoding: 416 416 118
Width: 1497
Flags: MW
HStem: -12 156<603 892 603 953> 1290 106 1290 156<603 801 543 892>
VStem: 117 186<532 909 532 961> 1171 125<1448 1543> 1194 186<532 867 481 909>
LayerCount: 2
Fore
SplineSet
1184 1657 m 2,0,1
 1195 1665 1195 1665 1208 1665 c 0,2,3
 1241 1665 1241 1665 1268.5 1613 c 128,-1,4
 1296 1561 1296 1561 1296 1513 c 0,5,6
 1296 1443 1296 1443 1257 1396.5 c 128,-1,7
 1218 1350 1218 1350 1139 1335 c 1,8,9
 1380 1162 1380 1162 1380 721 c 0,10,11
 1380 362 1380 362 1218.5 175 c 128,-1,12
 1057 -12 1057 -12 748 -12 c 0,13,14
 440 -12 440 -12 278.5 175 c 128,-1,15
 117 362 117 362 117 721 c 0,16,17
 117 1079 117 1079 278 1262.5 c 128,-1,18
 439 1446 439 1446 748 1446 c 0,19,20
 909 1446 909 1446 1028 1397 c 1,21,-1
 1059 1397 l 2,22,23
 1171 1397 1171 1397 1171 1464 c 1,24,25
 1174 1491 1174 1491 1161.5 1516.5 c 128,-1,26
 1149 1542 1149 1542 1133.5 1562.5 c 128,-1,27
 1118 1583 1118 1583 1116 1591 c 1,28,29
 1116 1611 1116 1611 1135 1624 c 2,30,-1
 1184 1657 l 2,0,1
748 143 m 128,-1,32
 965 143 965 143 1079.5 291 c 128,-1,33
 1194 439 1194 439 1194 721 c 0,34,35
 1194 1002 1194 1002 1080 1146 c 128,-1,36
 966 1290 966 1290 748 1290 c 128,-1,37
 530 1290 530 1290 416.5 1146 c 128,-1,38
 303 1002 303 1002 303 721 c 0,39,40
 303 439 303 439 417 291 c 128,-1,31
 531 143 531 143 748 143 c 128,-1,32
EndSplineSet
Position2: "'cpsp' Capital Spacing lookup 3 subtable" dx=10 dy=0 dh=20 dv=0
EndChar

StartChar: Ohornacute
Encoding: 7898 7898 119
Width: 1497
Flags: MW
HStem: -12 156<603 892 603 953> 1290 106 1290 156<603 801 543 892>
VStem: 117 186<532 909 532 961> 1171 125<1448 1543> 1194 186<532 867 481 909>
LayerCount: 2
Fore
SplineSet
715 1561 m 0,0,1
 668 1561 668 1561 668 1581 c 0,2,3
 668 1595 668 1595 689.5 1636.5 c 128,-1,4
 711 1678 711 1678 786 1808 c 0,5,6
 818 1862 818 1862 913 1862 c 0,7,8
 1012 1862 1012 1862 1012 1835 c 0,9,10
 1012 1817 1012 1817 906.275737715 1696.50565953 c 0,11,12
 854 1637 854 1637 819 1597 c 1,13,14
 786 1561 786 1561 715 1561 c 0,0,1
1184 1657 m 2,15,16
 1195 1665 1195 1665 1208 1665 c 0,17,18
 1241 1665 1241 1665 1268.5 1613 c 128,-1,19
 1296 1561 1296 1561 1296 1513 c 0,20,21
 1296 1443 1296 1443 1257 1396.5 c 128,-1,22
 1218 1350 1218 1350 1139 1335 c 1,23,24
 1380 1162 1380 1162 1380 721 c 0,25,26
 1380 362 1380 362 1218.5 175 c 128,-1,27
 1057 -12 1057 -12 748 -12 c 0,28,29
 440 -12 440 -12 278.5 175 c 128,-1,30
 117 362 117 362 117 721 c 0,31,32
 117 1079 117 1079 278 1262.5 c 128,-1,33
 439 1446 439 1446 748 1446 c 0,34,35
 909 1446 909 1446 1028 1397 c 1,36,-1
 1059 1397 l 2,37,38
 1171 1397 1171 1397 1171 1464 c 1,39,40
 1174 1491 1174 1491 1161.5 1516.5 c 128,-1,41
 1149 1542 1149 1542 1133.5 1562.5 c 128,-1,42
 1118 1583 1118 1583 1116 1591 c 1,43,44
 1116 1611 1116 1611 1135 1624 c 2,45,-1
 1184 1657 l 2,15,16
748 143 m 128,-1,47
 965 143 965 143 1079.5 291 c 128,-1,48
 1194 439 1194 439 1194 721 c 0,49,50
 1194 1002 1194 1002 1080 1146 c 128,-1,51
 966 1290 966 1290 748 1290 c 128,-1,52
 530 1290 530 1290 416.5 1146 c 128,-1,53
 303 1002 303 1002 303 721 c 0,54,55
 303 439 303 439 417 291 c 128,-1,46
 531 143 531 143 748 143 c 128,-1,47
EndSplineSet
Position2: "'cpsp' Capital Spacing lookup 3 subtable" dx=10 dy=0 dh=20 dv=0
EndChar

StartChar: Ohorndotbelow
Encoding: 7906 7906 120
Width: 1497
Flags: MW
HStem: -358 195<727 784> -12 156<603 892 603 953> 1290 106 1290 156<603 801 543 892>
VStem: 117 186<532 909 532 961> 670 172<-313 -209 -327 -196> 1171 125<1448 1543> 1194 186<532 867 481 909>
LayerCount: 2
Fore
SplineSet
1184 1657 m 2,0,1
 1195 1665 1195 1665 1208 1665 c 0,2,3
 1241 1665 1241 1665 1268.5 1613 c 128,-1,4
 1296 1561 1296 1561 1296 1513 c 0,5,6
 1296 1443 1296 1443 1257 1396.5 c 128,-1,7
 1218 1350 1218 1350 1139 1335 c 1,8,9
 1380 1162 1380 1162 1380 721 c 0,10,11
 1380 362 1380 362 1218.5 175 c 128,-1,12
 1057 -12 1057 -12 748 -12 c 0,13,14
 440 -12 440 -12 278.5 175 c 128,-1,15
 117 362 117 362 117 721 c 0,16,17
 117 1079 117 1079 278 1262.5 c 128,-1,18
 439 1446 439 1446 748 1446 c 0,19,20
 909 1446 909 1446 1028 1397 c 1,21,-1
 1059 1397 l 2,22,23
 1171 1397 1171 1397 1171 1464 c 1,24,25
 1174 1491 1174 1491 1161.5 1516.5 c 128,-1,26
 1149 1542 1149 1542 1133.5 1562.5 c 128,-1,27
 1118 1583 1118 1583 1116 1591 c 1,28,29
 1116 1611 1116 1611 1135 1624 c 2,30,-1
 1184 1657 l 2,0,1
748 143 m 128,-1,32
 965 143 965 143 1079.5 291 c 128,-1,33
 1194 439 1194 439 1194 721 c 0,34,35
 1194 1002 1194 1002 1080 1146 c 128,-1,36
 966 1290 966 1290 748 1290 c 128,-1,37
 530 1290 530 1290 416.5 1146 c 128,-1,38
 303 1002 303 1002 303 721 c 0,39,40
 303 439 303 439 417 291 c 128,-1,31
 531 143 531 143 748 143 c 128,-1,32
670 -209 m 2,41,42
 670 -164 670 -164 760 -164 c 0,43,44
 842 -164 842 -164 842 -209 c 2,45,-1
 842 -313 l 2,46,47
 842 -358 842 -358 752 -358 c 0,48,49
 670 -358 670 -358 670 -313 c 2,50,-1
 670 -209 l 2,41,42
EndSplineSet
Position2: "'cpsp' Capital Spacing lookup 3 subtable" dx=10 dy=0 dh=20 dv=0
EndChar

StartChar: Ohorngrave
Encoding: 7900 7900 121
Width: 1497
Flags: MW
HStem: -12 156<603 892 603 953> 1290 106 1290 156<603 801 543 892>
VStem: 117 186<532 909 532 961> 1171 125<1448 1543> 1194 186<532 867 481 909>
LayerCount: 2
Fore
SplineSet
805 1561 m 0,0,1
 733 1561 733 1561 700 1597 c 0,2,3
 670 1631 670 1631 623.921313048 1683.8672606 c 0,4,5
 544 1775 544 1775 526 1798 c 128,-1,6
 508 1821 508 1821 508 1835 c 0,7,8
 508 1862 508 1862 606 1862 c 0,9,10
 701 1862 701 1862 733 1808 c 0,11,12
 811 1672 811 1672 831.5 1633.5 c 128,-1,13
 852 1595 852 1595 852 1581 c 0,14,15
 852 1561 852 1561 805 1561 c 0,0,1
1184 1657 m 2,16,17
 1195 1665 1195 1665 1208 1665 c 0,18,19
 1241 1665 1241 1665 1268.5 1613 c 128,-1,20
 1296 1561 1296 1561 1296 1513 c 0,21,22
 1296 1443 1296 1443 1257 1396.5 c 128,-1,23
 1218 1350 1218 1350 1139 1335 c 1,24,25
 1380 1162 1380 1162 1380 721 c 0,26,27
 1380 362 1380 362 1218.5 175 c 128,-1,28
 1057 -12 1057 -12 748 -12 c 0,29,30
 440 -12 440 -12 278.5 175 c 128,-1,31
 117 362 117 362 117 721 c 0,32,33
 117 1079 117 1079 278 1262.5 c 128,-1,34
 439 1446 439 1446 748 1446 c 0,35,36
 909 1446 909 1446 1028 1397 c 1,37,-1
 1059 1397 l 2,38,39
 1171 1397 1171 1397 1171 1464 c 1,40,41
 1174 1491 1174 1491 1161.5 1516.5 c 128,-1,42
 1149 1542 1149 1542 1133.5 1562.5 c 128,-1,43
 1118 1583 1118 1583 1116 1591 c 1,44,45
 1116 1611 1116 1611 1135 1624 c 2,46,-1
 1184 1657 l 2,16,17
748 143 m 128,-1,48
 965 143 965 143 1079.5 291 c 128,-1,49
 1194 439 1194 439 1194 721 c 0,50,51
 1194 1002 1194 1002 1080 1146 c 128,-1,52
 966 1290 966 1290 748 1290 c 128,-1,53
 530 1290 530 1290 416.5 1146 c 128,-1,54
 303 1002 303 1002 303 721 c 0,55,56
 303 439 303 439 417 291 c 128,-1,47
 531 143 531 143 748 143 c 128,-1,48
EndSplineSet
Position2: "'cpsp' Capital Spacing lookup 3 subtable" dx=10 dy=0 dh=20 dv=0
EndChar

StartChar: Ohornhookabove
Encoding: 7902 7902 122
Width: 1497
Flags: MW
HStem: -12 156<603 892 603 953> 1290 106 1290 156<603 801 543 892> 1794 104<728 768>
VStem: 117 186<532 909 532 961> 823 127<1688 1757> 1171 125<1448 1543> 1194 186<532 867 481 909>
LayerCount: 2
Fore
SplineSet
653 1767 m 0,0,1
 641 1767 641 1767 622.5 1793.5 c 128,-1,2
 604 1820 604 1820 604 1835 c 0,3,4
 604 1855 604 1855 657.5 1876.5 c 128,-1,5
 711 1898 711 1898 764 1898 c 0,6,7
 793 1898 793 1898 823 1891 c 128,-1,8
 853 1884 853 1884 883 1868.5 c 128,-1,9
 913 1853 913 1853 931.5 1823 c 128,-1,10
 950 1793 950 1793 950 1753 c 0,11,12
 950 1706 950 1706 924.5 1659.5 c 128,-1,13
 899 1613 899 1613 866 1583 c 128,-1,14
 833 1553 833 1553 804 1534.5 c 128,-1,15
 775 1516 775 1516 764 1516 c 0,16,17
 747 1516 747 1516 721.5 1527 c 128,-1,18
 696 1538 696 1538 696 1550 c 0,19,20
 696 1569 696 1569 716 1590 c 128,-1,21
 736 1611 736 1611 759.5 1628 c 128,-1,22
 783 1645 783 1645 803 1675 c 128,-1,23
 823 1705 823 1705 823 1739 c 0,24,25
 823 1766 823 1766 802 1780 c 128,-1,26
 781 1794 781 1794 748 1794 c 0,27,28
 720 1794 720 1794 699 1787 c 128,-1,29
 678 1780 678 1780 667 1773.5 c 128,-1,30
 656 1767 656 1767 653 1767 c 0,0,1
1184 1657 m 2,31,32
 1195 1665 1195 1665 1208 1665 c 0,33,34
 1241 1665 1241 1665 1268.5 1613 c 128,-1,35
 1296 1561 1296 1561 1296 1513 c 0,36,37
 1296 1443 1296 1443 1257 1396.5 c 128,-1,38
 1218 1350 1218 1350 1139 1335 c 1,39,40
 1380 1162 1380 1162 1380 721 c 0,41,42
 1380 362 1380 362 1218.5 175 c 128,-1,43
 1057 -12 1057 -12 748 -12 c 0,44,45
 440 -12 440 -12 278.5 175 c 128,-1,46
 117 362 117 362 117 721 c 0,47,48
 117 1079 117 1079 278 1262.5 c 128,-1,49
 439 1446 439 1446 748 1446 c 0,50,51
 909 1446 909 1446 1028 1397 c 1,52,-1
 1059 1397 l 2,53,54
 1171 1397 1171 1397 1171 1464 c 1,55,56
 1174 1491 1174 1491 1161.5 1516.5 c 128,-1,57
 1149 1542 1149 1542 1133.5 1562.5 c 128,-1,58
 1118 1583 1118 1583 1116 1591 c 1,59,60
 1116 1611 1116 1611 1135 1624 c 2,61,-1
 1184 1657 l 2,31,32
748 143 m 128,-1,63
 965 143 965 143 1079.5 291 c 128,-1,64
 1194 439 1194 439 1194 721 c 0,65,66
 1194 1002 1194 1002 1080 1146 c 128,-1,67
 966 1290 966 1290 748 1290 c 128,-1,68
 530 1290 530 1290 416.5 1146 c 128,-1,69
 303 1002 303 1002 303 721 c 0,70,71
 303 439 303 439 417 291 c 128,-1,62
 531 143 531 143 748 143 c 128,-1,63
EndSplineSet
Position2: "'cpsp' Capital Spacing lookup 3 subtable" dx=10 dy=0 dh=20 dv=0
EndChar

StartChar: Ohorntilde
Encoding: 7904 7904 123
Width: 1497
Flags: MW
HStem: -12 156<603 892 603 953> 1290 106 1290 156<603 801 543 892> 1561 131<817 849> 1622 131<577 609>
VStem: 117 186<532 909 532 961> 1171 125<1448 1543> 1194 186<532 867 481 909>
LayerCount: 2
Fore
SplineSet
492 1583 m 1,0,1
 471 1569 471 1569 457 1569 c 0,2,3
 435 1569 435 1569 416 1597 c 0,4,5
 403 1616 403 1616 403 1634 c 0,6,7
 403 1655 403 1655 422 1671 c 1,8,9
 528 1753 528 1753 614 1753 c 0,10,11
 628 1753 628 1753 640.5 1752 c 128,-1,12
 653 1751 653 1751 664.5 1748 c 128,-1,13
 676 1745 676 1745 684 1743 c 128,-1,14
 692 1741 692 1741 702 1736 c 128,-1,15
 712 1731 712 1731 716.5 1729 c 128,-1,16
 721 1727 721 1727 731 1721 c 128,-1,17
 741 1715 741 1715 743 1714 c 0,18,19
 785 1692 785 1692 836 1692 c 0,20,21
 880 1692 880 1692 942 1739 c 0,22,23
 954 1749 954 1749 971 1749 c 0,24,25
 992 1749 992 1749 1006 1731 c 0,26,27
 1022 1710 1022 1710 1022 1688 c 128,-1,28
 1022 1666 1022 1666 1001 1645 c 1,29,30
 898 1561 898 1561 811 1561 c 0,31,32
 740 1561 740 1561 678 1593 c 0,33,34
 672 1596 672 1596 660 1602 c 128,-1,35
 648 1608 648 1608 643 1610.5 c 128,-1,36
 638 1613 638 1613 628.5 1616.5 c 128,-1,37
 619 1620 619 1620 610.5 1621 c 128,-1,38
 602 1622 602 1622 592 1622 c 0,39,40
 541 1622 541 1622 492 1583 c 1,0,1
1184 1657 m 2,41,42
 1195 1665 1195 1665 1208 1665 c 0,43,44
 1241 1665 1241 1665 1268.5 1613 c 128,-1,45
 1296 1561 1296 1561 1296 1513 c 0,46,47
 1296 1443 1296 1443 1257 1396.5 c 128,-1,48
 1218 1350 1218 1350 1139 1335 c 1,49,50
 1380 1162 1380 1162 1380 721 c 0,51,52
 1380 362 1380 362 1218.5 175 c 128,-1,53
 1057 -12 1057 -12 748 -12 c 0,54,55
 440 -12 440 -12 278.5 175 c 128,-1,56
 117 362 117 362 117 721 c 0,57,58
 117 1079 117 1079 278 1262.5 c 128,-1,59
 439 1446 439 1446 748 1446 c 0,60,61
 909 1446 909 1446 1028 1397 c 1,62,-1
 1059 1397 l 2,63,64
 1171 1397 1171 1397 1171 1464 c 1,65,66
 1174 1491 1174 1491 1161.5 1516.5 c 128,-1,67
 1149 1542 1149 1542 1133.5 1562.5 c 128,-1,68
 1118 1583 1118 1583 1116 1591 c 1,69,70
 1116 1611 1116 1611 1135 1624 c 2,71,-1
 1184 1657 l 2,41,42
748 143 m 128,-1,73
 965 143 965 143 1079.5 291 c 128,-1,74
 1194 439 1194 439 1194 721 c 0,75,76
 1194 1002 1194 1002 1080 1146 c 128,-1,77
 966 1290 966 1290 748 1290 c 128,-1,78
 530 1290 530 1290 416.5 1146 c 128,-1,79
 303 1002 303 1002 303 721 c 0,80,81
 303 439 303 439 417 291 c 128,-1,72
 531 143 531 143 748 143 c 128,-1,73
EndSplineSet
Position2: "'cpsp' Capital Spacing lookup 3 subtable" dx=10 dy=0 dh=20 dv=0
EndChar

StartChar: Ohungarumlaut
Encoding: 336 336 124
Width: 1497
Flags: MW
HStem: -12 156<603 892 603 953> 1290 156<603 892> 1561 301<551 799 733 890>
VStem: 117 186<532 909 532 961> 1194 186<532 909>
LayerCount: 2
Fore
SplineSet
748 1446 m 0,0,1
 1058 1446 1058 1446 1219 1262.5 c 128,-1,2
 1380 1079 1380 1079 1380 721 c 0,3,4
 1380 362 1380 362 1218.5 175 c 128,-1,5
 1057 -12 1057 -12 748 -12 c 0,6,7
 440 -12 440 -12 278.5 175 c 128,-1,8
 117 362 117 362 117 721 c 0,9,10
 117 1079 117 1079 278 1262.5 c 128,-1,11
 439 1446 439 1446 748 1446 c 0,0,1
748 1290 m 128,-1,13
 530 1290 530 1290 416.5 1146 c 128,-1,14
 303 1002 303 1002 303 721 c 0,15,16
 303 439 303 439 417 291 c 128,-1,17
 531 143 531 143 748 143 c 128,-1,18
 965 143 965 143 1079.5 291 c 128,-1,19
 1194 439 1194 439 1194 721 c 0,20,21
 1194 1002 1194 1002 1080 1146 c 128,-1,12
 966 1290 966 1290 748 1290 c 128,-1,13
766 1862 m 0,22,23
 864 1862 864 1862 864 1835 c 0,24,25
 864 1821 864 1821 847 1799 c 128,-1,26
 830 1777 830 1777 748.078686952 1683.8672606 c 0,27,28
 702 1631 702 1631 672 1597 c 0,29,30
 639 1561 639 1561 567 1561 c 0,31,32
 520 1561 520 1561 520 1581 c 0,33,34
 520 1595 520 1595 540.5 1633.5 c 128,-1,35
 561 1672 561 1672 639 1808 c 0,36,37
 671 1862 671 1862 766 1862 c 0,22,23
1067 1862 m 0,38,39
 1165 1862 1165 1862 1165 1835 c 0,40,41
 1165 1821 1165 1821 1148 1799 c 128,-1,42
 1131 1777 1131 1777 1049.07868695 1683.8672606 c 0,43,44
 1003 1631 1003 1631 973 1597 c 0,45,46
 940 1561 940 1561 868 1561 c 0,47,48
 821 1561 821 1561 821 1581 c 0,49,50
 821 1595 821 1595 841.5 1633.5 c 128,-1,51
 862 1672 862 1672 940 1808 c 0,52,53
 972 1862 972 1862 1067 1862 c 0,38,39
EndSplineSet
Position2: "'cpsp' Capital Spacing lookup 3 subtable" dx=10 dy=0 dh=20 dv=0
EndChar

StartChar: Omacron
Encoding: 332 332 125
Width: 1497
Flags: MW
HStem: -12 156<603 892 603 953> 1290 156<603 892> 1616 143<508 979 522 979>
VStem: 117 186<532 909 532 961> 1194 186<532 909>
LayerCount: 2
Fore
SplineSet
979 1759 m 2,0,1
 1020 1759 1020 1759 1020 1698 c 2,2,-1
 1020 1677 l 2,3,4
 1020 1616 1020 1616 979 1616 c 2,5,-1
 522 1616 l 2,6,7
 481 1616 481 1616 481 1677 c 2,8,-1
 481 1698 l 2,9,10
 481 1759 481 1759 522 1759 c 2,11,-1
 979 1759 l 2,0,1
748 1446 m 0,12,13
 1058 1446 1058 1446 1219 1262.5 c 128,-1,14
 1380 1079 1380 1079 1380 721 c 0,15,16
 1380 362 1380 362 1218.5 175 c 128,-1,17
 1057 -12 1057 -12 748 -12 c 0,18,19
 440 -12 440 -12 278.5 175 c 128,-1,20
 117 362 117 362 117 721 c 0,21,22
 117 1079 117 1079 278 1262.5 c 128,-1,23
 439 1446 439 1446 748 1446 c 0,12,13
748 1290 m 128,-1,25
 530 1290 530 1290 416.5 1146 c 128,-1,26
 303 1002 303 1002 303 721 c 0,27,28
 303 439 303 439 417 291 c 128,-1,29
 531 143 531 143 748 143 c 128,-1,30
 965 143 965 143 1079.5 291 c 128,-1,31
 1194 439 1194 439 1194 721 c 0,32,33
 1194 1002 1194 1002 1080 1146 c 128,-1,24
 966 1290 966 1290 748 1290 c 128,-1,25
EndSplineSet
Position2: "'cpsp' Capital Spacing lookup 3 subtable" dx=10 dy=0 dh=20 dv=0
EndChar

StartChar: Oogonek
Encoding: 490 490 126
Width: 1497
Flags: MW
HStem: -375 143<986 1025 986 1038> -12 156<603 748 748 786> 1290 156<603 892>
VStem: 117 186<532 909 532 961> 745 137<-176 -147> 1194 186<532 909>
LayerCount: 2
Fore
SplineSet
1380 721 m 0,0,1
 1380 411 1380 411 1259.5 228.5 c 128,-1,2
 1139 46 1139 46 907 2 c 1,3,-1
 907 -2 l 2,4,5
 907 -14 907 -14 895 -57 c 128,-1,6
 883 -100 883 -100 883 -127 c 0,7,8
 883 -231 883 -231 1010 -231 c 0,9,10
 1025 -231 1025 -231 1062 -221 c 128,-1,11
 1099 -211 1099 -211 1116 -211 c 0,12,13
 1155 -211 1155 -211 1155 -262 c 0,14,15
 1155 -327 1155 -327 1113 -351 c 128,-1,16
 1071 -375 1071 -375 987 -375 c 0,17,18
 925 -375 925 -375 878 -358.5 c 128,-1,19
 831 -342 831 -342 806.5 -319 c 128,-1,20
 782 -296 782 -296 767.5 -264.5 c 128,-1,21
 753 -233 753 -233 749 -210.5 c 128,-1,22
 745 -188 745 -188 745 -166 c 0,23,24
 745 -65 745 -65 786 -12 c 1,25,-1
 748 -12 l 2,26,27
 440 -12 440 -12 278.5 175 c 128,-1,28
 117 362 117 362 117 721 c 0,29,30
 117 1079 117 1079 278 1262.5 c 128,-1,31
 439 1446 439 1446 748 1446 c 0,32,33
 1058 1446 1058 1446 1219 1262.5 c 128,-1,34
 1380 1079 1380 1079 1380 721 c 0,0,1
748 143 m 128,-1,36
 965 143 965 143 1079.5 291 c 128,-1,37
 1194 439 1194 439 1194 721 c 0,38,39
 1194 1002 1194 1002 1080 1146 c 128,-1,40
 966 1290 966 1290 748 1290 c 128,-1,41
 530 1290 530 1290 416.5 1146 c 128,-1,42
 303 1002 303 1002 303 721 c 0,43,44
 303 439 303 439 417 291 c 128,-1,35
 531 143 531 143 748 143 c 128,-1,36
EndSplineSet
Position2: "'cpsp' Capital Spacing lookup 3 subtable" dx=10 dy=0 dh=20 dv=0
EndChar

StartChar: Oslash
Encoding: 216 216 127
Width: 1497
Flags: MW
HStem: -12 156<671 892 671 953> 1290 156<603 815> 1397 41G<1320 1334>
VStem: 117 186<653 909 653 961> 1194 186<532 800>
LayerCount: 2
Fore
SplineSet
231 238 m 1,0,1
 117 420 117 420 117 721 c 0,2,3
 117 1079 117 1079 278 1262.5 c 128,-1,4
 439 1446 439 1446 748 1446 c 0,5,6
 1022 1446 1022 1446 1184 1296 c 1,7,-1
 1296 1421 l 2,8,9
 1310 1438 1310 1438 1325 1438 c 0,10,11
 1338 1438 1338 1438 1354 1423.5 c 128,-1,12
 1370 1409 1370 1409 1370 1397 c 0,13,14
 1370 1383 1370 1383 1358 1368 c 1,15,-1
 1239 1237 l 1,16,17
 1380 1052 1380 1052 1380 721 c 0,18,19
 1380 362 1380 362 1218.5 175 c 128,-1,20
 1057 -12 1057 -12 748 -12 c 0,21,22
 440 -12 440 -12 281 172 c 1,23,-1
 143 20 l 2,24,25
 128 2 128 2 115 2 c 0,26,27
 101 2 101 2 85.5 17 c 128,-1,28
 70 32 70 32 70 45 c 0,29,30
 70 59 70 59 82 74 c 1,31,-1
 231 238 l 1,0,1
1063 1163 m 1,32,33
 951 1290 951 1290 748 1290 c 0,34,35
 530 1290 530 1290 416.5 1146 c 128,-1,36
 303 1002 303 1002 303 721 c 0,37,38
 303 519 303 519 362 383 c 1,39,-1
 1063 1163 l 1,32,33
403 309 m 1,40,41
 514 143 514 143 748 143 c 0,42,43
 965 143 965 143 1079.5 291 c 128,-1,44
 1194 439 1194 439 1194 721 c 0,45,46
 1194 956 1194 956 1112 1098 c 1,47,-1
 403 309 l 1,40,41
EndSplineSet
Position2: "'cpsp' Capital Spacing lookup 3 subtable" dx=10 dy=0 dh=20 dv=0
EndChar

StartChar: Oslashacute
Encoding: 510 510 128
Width: 1497
Flags: MW
HStem: -12 156<671 892 671 953> 1290 156<603 815> 1397 41G<1320 1334>
VStem: 117 186<653 909 653 961> 1194 186<532 800>
LayerCount: 2
Fore
SplineSet
231 238 m 1,0,1
 117 420 117 420 117 721 c 0,2,3
 117 1079 117 1079 278 1262.5 c 128,-1,4
 439 1446 439 1446 748 1446 c 0,5,6
 1022 1446 1022 1446 1184 1296 c 1,7,-1
 1296 1421 l 2,8,9
 1310 1438 1310 1438 1325 1438 c 0,10,11
 1338 1438 1338 1438 1354 1423.5 c 128,-1,12
 1370 1409 1370 1409 1370 1397 c 0,13,14
 1370 1383 1370 1383 1358 1368 c 1,15,-1
 1239 1237 l 1,16,17
 1380 1052 1380 1052 1380 721 c 0,18,19
 1380 362 1380 362 1218.5 175 c 128,-1,20
 1057 -12 1057 -12 748 -12 c 0,21,22
 440 -12 440 -12 281 172 c 1,23,-1
 143 20 l 2,24,25
 128 2 128 2 115 2 c 0,26,27
 101 2 101 2 85.5 17 c 128,-1,28
 70 32 70 32 70 45 c 0,29,30
 70 59 70 59 82 74 c 1,31,-1
 231 238 l 1,0,1
1063 1163 m 1,32,33
 951 1290 951 1290 748 1290 c 0,34,35
 530 1290 530 1290 416.5 1146 c 128,-1,36
 303 1002 303 1002 303 721 c 0,37,38
 303 519 303 519 362 383 c 1,39,-1
 1063 1163 l 1,32,33
403 309 m 1,40,41
 514 143 514 143 748 143 c 0,42,43
 965 143 965 143 1079.5 291 c 128,-1,44
 1194 439 1194 439 1194 721 c 0,45,46
 1194 956 1194 956 1112 1098 c 1,47,-1
 403 309 l 1,40,41
913 1862 m 0,48,49
 1012 1862 1012 1862 1012 1835 c 0,50,51
 1012 1817 1012 1817 906.275737715 1696.50565953 c 0,52,53
 854 1637 854 1637 819 1597 c 1,54,55
 786 1561 786 1561 715 1561 c 0,56,57
 668 1561 668 1561 668 1581 c 0,58,59
 668 1595 668 1595 689.5 1636.5 c 128,-1,60
 711 1678 711 1678 786 1808 c 0,61,62
 818 1862 818 1862 913 1862 c 0,48,49
EndSplineSet
Position2: "'cpsp' Capital Spacing lookup 3 subtable" dx=10 dy=0 dh=20 dv=0
EndChar

